{
customParameters = (
{
name = glyphOrder;
value = (
    ".notdef",
    uni0000,
    uni000D,
    exclam,
    quotedbl,
    numbersign,
    dollar,
    percent,
    ampersand,
    quotesingle,
    parenleft,
    parenright,
    asterisk,
    plus,
    comma,
    hyphen,
    period,
    slash,
    zero,
    one,
    two,
    three,
    four,
    five,
    six,
    seven,
    eight,
    nine,
    colon,
    semicolon,
    less,
    equal,
    greater,
    question,
    at,
    A,
    B,
    C,
    D,
    E,
    F,
    G,
    H,
    I,
    J,
    K,
    L,
    M,
    N,
    O,
    P,
    Q,
    R,
    S,
    T,
    U,
    V,
    W,
    X,
    Y,
    Z,
    bracketleft,
    backslash,
    bracketright,
    asciicircum,
    underscore,
    grave,
    a,
    b,
    c,
    d,
    e,
    f,
    g,
    h,
    i,
    j,
    k,
    l,
    m,
    n,
    o,
    p,
    q,
    r,
    s,
    t,
    u,
    v,
    w,
    x,
    y,
    z,
    braceleft,
    bar,
    braceright,
    asciitilde,
    copyright,
    ordfeminine,
    uni00AD,
    registered,
    uni00B2,
    uni00B3,
    uni00B9,
    ordmasculine,
    Agrave,
    Acircumflex,
    Atilde,
    Adieresis,
    Aring,
    Ccedilla,
    Egrave,
    Eacute,
    Ecircumflex,
    Igrave,
    Icircumflex,
    Ntilde,
    Ograve,
    Ocircumflex,
    Otilde,
    Odieresis,
    Ugrave,
    Ucircumflex,
    Udieresis,
    agrave,
    aacute,
    acircumflex,
    atilde,
    adieresis,
    aring,
    ccedilla,
    egrave,
    eacute,
    ecircumflex,
    edieresis,
    igrave,
    iacute,
    icircumflex,
    idieresis,
    ntilde,
    ograve,
    oacute,
    ocircumflex,
    otilde,
    odieresis,
    ugrave,
    ucircumflex,
    OE,
    oe,
    circumflex,
    tilde,
    uni2010,
    uni2011,
    figuredash,
    endash,
    emdash,
    quoteleft,
    quoteright,
    quotedblleft,
    quotedblright,
    ellipsis,
    guilsinglleft,
    guilsinglright,
    trademark,
    uniE000,
    uniFB01,
    uniFB02,
    uniFB03,
    uniFB04
);
}

glyphs = (
{
glyphname = exclam;
lastChange = "2013-03-19 22:53:44 +0100";
layers = (
{
layerId = "47E17F20-96EA-4F25-9FDC-A26DCA823BDE";
name = Regular;
paths = (
{
closed = 1;
nodes = (
"317 471 OFFCURVE",
"325 499 OFFCURVE",
"328 521 CURVE SMOOTH",
"332 539 OFFCURVE",
"334 553 OFFCURVE",
"334 563 CURVE SMOOTH",
"337 571 OFFCURVE",
"337 582 OFFCURVE",
"337 588 CURVE",
"334 621 OFFCURVE",
"310 645 OFFCURVE",
"271 646 CURVE SMOOTH",
"240 647 OFFCURVE",
"219 628 OFFCURVE",
"220 593 CURVE SMOOTH",
"220 585 OFFCURVE",
"220 579 OFFCURVE",
"222 568 CURVE SMOOTH",
"228 527 LINE",
"228 527 OFFCURVE",
"230 515 OFFCURVE",
"234 496 CURVE SMOOTH",
"238 477 OFFCURVE",
"240 458 OFFCURVE",
"243 446 CURVE SMOOTH",
"250 403 OFFCURVE",
"262 358 OFFCURVE",
"263 313 CURVE",
"272 313 LINE",
"291 358 OFFCURVE",
"303 403 OFFCURVE",
"313 442 CURVE SMOOTH"
);
},
{
closed = 1;
nodes = (
"317 238 OFFCURVE",
"294 265 OFFCURVE",
"267 265 CURVE SMOOTH",
"235 265 OFFCURVE",
"206 243 OFFCURVE",
"201 211 CURVE SMOOTH",
"198 180 OFFCURVE",
"219 155 OFFCURVE",
"250 154 CURVE SMOOTH",
"273 154 OFFCURVE",
"308 176 OFFCURVE",
"313 208 CURVE SMOOTH"
);
}
);
width = 537;
}
);
unicode = 0021;
},
{
glyphname = plus;
lastChange = "2013-03-19 22:53:54 +0100";
layers = (
{
layerId = "47E17F20-96EA-4F25-9FDC-A26DCA823BDE";
name = Regular;
paths = (
{
closed = 1;
nodes = (
"182 433 LINE",
"181 540 LINE SMOOTH",
"181 541 OFFCURVE",
"181 543 OFFCURVE",
"181 544 CURVE",
"179 547 OFFCURVE",
"176 547 OFFCURVE",
"174 548 CURVE SMOOTH",
"124 548 LINE SMOOTH",
"121 548 OFFCURVE",
"117 547 OFFCURVE",
"116 543 CURVE",
"116 542 OFFCURVE",
"115 541 OFFCURVE",
"115 540 CURVE SMOOTH",
"115 434 LINE",
"8 433 LINE SMOOTH",
"7 433 OFFCURVE",
"5 433 OFFCURVE",
"5 433 CURVE",
"1 431 OFFCURVE",
"0 429 OFFCURVE",
"0 425 CURVE SMOOTH",
"0 375 LINE SMOOTH",
"0 371 OFFCURVE",
"1 369 OFFCURVE",
"4 367 CURVE",
"6 366 OFFCURVE",
"7 366 OFFCURVE",
"8 367 CURVE SMOOTH",
"115 367 LINE",
"116 260 LINE SMOOTH",
"115 259 OFFCURVE",
"114 258 OFFCURVE",
"116 256 CURVE",
"117 253 OFFCURVE",
"119 252 OFFCURVE",
"122 252 CURVE SMOOTH",
"173 252 LINE SMOOTH",
"177 252 OFFCURVE",
"179 253 OFFCURVE",
"181 255 CURVE",
"182 257 OFFCURVE",
"182 258 OFFCURVE",
"181 259 CURVE SMOOTH",
"182 366 LINE",
"289 367 LINE SMOOTH",
"290 367 OFFCURVE",
"291 367 OFFCURVE",
"292 367 CURVE",
"295 369 OFFCURVE",
"296 371 OFFCURVE",
"297 375 CURVE SMOOTH",
"296 425 LINE SMOOTH",
"296 428 OFFCURVE",
"295 430 OFFCURVE",
"292 432 CURVE",
"290 433 OFFCURVE",
"289 433 OFFCURVE",
"288 433 CURVE SMOOTH"
);
}
);
width = 297;
}
);
unicode = 002B;
},
{
glyphname = hyphen;
lastChange = "2013-03-19 22:54:04 +0100";
layers = (
{
layerId = "47E17F20-96EA-4F25-9FDC-A26DCA823BDE";
name = Regular;
paths = (
{
closed = 1;
nodes = (
"8 434 LINE SMOOTH",
"7 434 OFFCURVE",
"5 434 OFFCURVE",
"5 434 CURVE",
"1 432 OFFCURVE",
"0 430 OFFCURVE",
"0 426 CURVE SMOOTH",
"0 376 LINE SMOOTH",
"0 372 OFFCURVE",
"1 370 OFFCURVE",
"4 368 CURVE",
"6 367 OFFCURVE",
"7 367 OFFCURVE",
"8 368 CURVE SMOOTH",
"289 368 LINE SMOOTH",
"290 368 OFFCURVE",
"291 368 OFFCURVE",
"292 368 CURVE",
"295 370 OFFCURVE",
"296 372 OFFCURVE",
"297 376 CURVE SMOOTH",
"296 426 LINE SMOOTH",
"296 429 OFFCURVE",
"295 431 OFFCURVE",
"292 433 CURVE",
"290 434 OFFCURVE",
"289 434 OFFCURVE",
"288 434 CURVE SMOOTH"
);
}
);
width = 297;
}
);
unicode = 002D;
},
{
glyphname = zero;
lastChange = "2013-03-19 22:54:13 +0100";
layers = (
{
layerId = "47E17F20-96EA-4F25-9FDC-A26DCA823BDE";
name = Regular;
paths = (
{
closed = 1;
nodes = (
"106 600 OFFCURVE",
"50 544 OFFCURVE",
"50 475 CURVE SMOOTH",
"50 431 OFFCURVE",
"72 370 OFFCURVE",
"94 327 CURVE SMOOTH",
"115 284 OFFCURVE",
"150 233 OFFCURVE",
"162 217 CURVE",
"167 210 OFFCURVE",
"171 204 OFFCURVE",
"175 200 CURVE",
"191 222 LINE SMOOTH",
"264 322 OFFCURVE",
"300 406 OFFCURVE",
"300 475 CURVE SMOOTH",
"300 544 OFFCURVE",
"245 600 OFFCURVE",
"175 600 CURVE SMOOTH"
);
},
{
closed = 1;
nodes = (
"212 541 OFFCURVE",
"242 510 OFFCURVE",
"242 473 CURVE SMOOTH",
"242 436 OFFCURVE",
"212 406 OFFCURVE",
"175 406 CURVE SMOOTH",
"138 406 OFFCURVE",
"107 436 OFFCURVE",
"107 473 CURVE SMOOTH",
"107 512 OFFCURVE",
"136 541 OFFCURVE",
"175 541 CURVE SMOOTH"
);
}
);
width = 350;
}
);
unicode = 0030;
},
{
glyphname = one;
lastChange = "2013-03-19 22:54:23 +0100";
layers = (
{
layerId = "47E17F20-96EA-4F25-9FDC-A26DCA823BDE";
name = Regular;
paths = (
{
closed = 1;
nodes = (
"155 228 OFFCURVE",
"209 245 OFFCURVE",
"239 273 CURVE",
"183 276 OFFCURVE",
"148 311 OFFCURVE",
"138 356 CURVE",
"149 354 OFFCURVE",
"158 353 OFFCURVE",
"166 353 CURVE SMOOTH",
"170 353 OFFCURVE",
"177 353 OFFCURVE",
"184 354 CURVE",
"135 362 OFFCURVE",
"96 406 OFFCURVE",
"96 450 CURVE SMOOTH",
"96 456 OFFCURVE",
"97 462 OFFCURVE",
"98 469 CURVE",
"100 469 OFFCURVE",
"103 468 OFFCURVE",
"108 467 CURVE",
"117 462 OFFCURVE",
"122 459 OFFCURVE",
"131 459 CURVE",
"135 457 OFFCURVE",
"139 457 OFFCURVE",
"142 457 CURVE",
"111 481 OFFCURVE",
"96 510 OFFCURVE",
"96 542 CURVE SMOOTH",
"96 544 LINE SMOOTH",
"97 572 OFFCURVE",
"102 593 OFFCURVE",
"111 606 CURVE",
"142 566 OFFCURVE",
"179 537 OFFCURVE",
"223 516 CURVE SMOOTH",
"231 513 OFFCURVE",
"238 510 OFFCURVE",
"243 508 CURVE",
"249 506 OFFCURVE",
"258 504 OFFCURVE",
"271 499 CURVE",
"272 499 OFFCURVE",
"273 499 OFFCURVE",
"274 499 CURVE",
"275 499 OFFCURVE",
"275 498 OFFCURVE",
"277 498 CURVE",
"278 498 OFFCURVE",
"278 498 OFFCURVE",
"279 498 CURVE",
"287 497 OFFCURVE",
"293 495 OFFCURVE",
"296 495 CURVE",
"299 495 OFFCURVE",
"307 493 OFFCURVE",
"318 490 CURVE SMOOTH",
"329 487 OFFCURVE",
"337 486 OFFCURVE",
"342 486 CURVE SMOOTH",
"345 486 OFFCURVE",
"346 486 OFFCURVE",
"346 486 CURVE",
"346 493 OFFCURVE",
"344 502 OFFCURVE",
"344 509 CURVE SMOOTH",
"344 552 OFFCURVE",
"364 590 OFFCURVE",
"399 611 CURVE SMOOTH",
"416 623 OFFCURVE",
"435 628 OFFCURVE",
"456 628 CURVE SMOOTH",
"485 628 OFFCURVE",
"513 617 OFFCURVE",
"537 593 CURVE",
"566 595 OFFCURVE",
"591 608 OFFCURVE",
"614 626 CURVE",
"606 596 OFFCURVE",
"590 573 OFFCURVE",
"565 556 CURVE",
"588 560 OFFCURVE",
"609 566 OFFCURVE",
"628 572 CURVE",
"616 548 OFFCURVE",
"600 533 OFFCURVE",
"572 516 CURVE",
"572 509 LINE SMOOTH",
"572 507 OFFCURVE",
"572 506 OFFCURVE",
"572 504 CURVE SMOOTH",
"571 502 OFFCURVE",
"571 499 OFFCURVE",
"571 498 CURVE",
"572 498 LINE",
"572 439 OFFCURVE",
"556 381 OFFCURVE",
"528 334 CURVE SMOOTH",
"500 286 OFFCURVE",
"458 245 OFFCURVE",
"411 217 CURVE SMOOTH",
"364 190 OFFCURVE",
"306 172 OFFCURVE",
"247 172 CURVE SMOOTH",
"188 172 OFFCURVE",
"127 193 OFFCURVE",
"75 224 CURVE"
);
}
);
width = 703;
}
);
unicode = 0031;
},
{
glyphname = two;
lastChange = "2013-03-19 22:54:34 +0100";
layers = (
{
layerId = "47E17F20-96EA-4F25-9FDC-A26DCA823BDE";
name = Regular;
paths = (
{
closed = 1;
nodes = (
"480 546 LINE",
"480 636 LINE",
"407 636 LINE SMOOTH",
"375 636 OFFCURVE",
"352 625 OFFCURVE",
"330 602 CURVE SMOOTH",
"309 579 OFFCURVE",
"298 549 OFFCURVE",
"298 517 CURVE SMOOTH",
"298 473 LINE",
"223 473 LINE",
"223 382 LINE",
"298 382 LINE",
"298 165 LINE",
"388 165 LINE",
"388 382 LINE",
"480 382 LINE",
"480 473 LINE",
"388 473 LINE",
"388 519 LINE SMOOTH",
"388 526 OFFCURVE",
"389 532 OFFCURVE",
"395 540 CURVE SMOOTH",
"399 543 OFFCURVE",
"402 546 OFFCURVE",
"407 546 CURVE SMOOTH"
);
}
);
width = 703;
}
);
unicode = 0032;
},
{
glyphname = three;
lastChange = "2013-03-19 22:54:42 +0100";
layers = (
{
layerId = "47E17F20-96EA-4F25-9FDC-A26DCA823BDE";
name = Regular;
paths = (
{
closed = 1;
nodes = (
"376 642 LINE",
"229 642 LINE SMOOTH",
"194 642 OFFCURVE",
"164 631 OFFCURVE",
"137 610 CURVE SMOOTH",
"112 588 OFFCURVE",
"99 563 OFFCURVE",
"99 531 CURVE SMOOTH",
"99 505 OFFCURVE",
"107 478 OFFCURVE",
"129 457 CURVE SMOOTH",
"151 434 OFFCURVE",
"178 426 OFFCURVE",
"211 426 CURVE SMOOTH",
"218 426 OFFCURVE",
"222 426 OFFCURVE",
"225 426 CURVE",
"222 415 OFFCURVE",
"218 405 OFFCURVE",
"218 399 CURVE SMOOTH",
"218 381 OFFCURVE",
"225 369 OFFCURVE",
"239 357 CURVE",
"236 357 OFFCURVE",
"232 357 OFFCURVE",
"226 357 CURVE SMOOTH",
"222 357 OFFCURVE",
"217 357 OFFCURVE",
"213 357 CURVE SMOOTH",
"172 357 OFFCURVE",
"136 344 OFFCURVE",
"107 322 CURVE SMOOTH",
"80 300 OFFCURVE",
"65 276 OFFCURVE",
"65 247 CURVE SMOOTH",
"65 222 OFFCURVE",
"80 200 OFFCURVE",
"111 183 CURVE SMOOTH",
"140 165 OFFCURVE",
"175 158 OFFCURVE",
"218 158 CURVE SMOOTH",
"265 158 OFFCURVE",
"301 169 OFFCURVE",
"329 190 CURVE SMOOTH",
"352 212 OFFCURVE",
"366 237 OFFCURVE",
"366 268 CURVE SMOOTH",
"366 289 OFFCURVE",
"356 307 OFFCURVE",
"353 321 CURVE SMOOTH",
"350 338 OFFCURVE",
"333 349 OFFCURVE",
"314 365 CURVE",
"306 370 OFFCURVE",
"296 379 OFFCURVE",
"288 389 CURVE",
"279 399 OFFCURVE",
"275 405 OFFCURVE",
"275 413 CURVE SMOOTH",
"275 419 OFFCURVE",
"277 427 OFFCURVE",
"281 432 CURVE SMOOTH",
"284 440 OFFCURVE",
"291 444 OFFCURVE",
"304 456 CURVE",
"332 475 OFFCURVE",
"349 504 OFFCURVE",
"349 531 CURVE SMOOTH",
"349 550 OFFCURVE",
"347 570 OFFCURVE",
"333 586 CURVE",
"325 604 OFFCURVE",
"312 614 OFFCURVE",
"297 617 CURVE",
"349 617 LINE"
);
},
{
closed = 1;
nodes = (
"329 270 OFFCURVE",
"329 266 OFFCURVE",
"329 260 CURVE SMOOTH",
"329 209 OFFCURVE",
"291 183 OFFCURVE",
"218 183 CURVE SMOOTH",
"190 183 OFFCURVE",
"167 190 OFFCURVE",
"147 206 CURVE SMOOTH",
"129 223 OFFCURVE",
"118 242 OFFCURVE",
"118 263 CURVE SMOOTH",
"118 283 OFFCURVE",
"129 304 OFFCURVE",
"153 319 CURVE SMOOTH",
"173 334 OFFCURVE",
"199 343 OFFCURVE",
"229 340 CURVE",
"241 340 OFFCURVE",
"253 339 OFFCURVE",
"266 337 CURVE",
"269 334 OFFCURVE",
"273 330 OFFCURVE",
"279 327 CURVE SMOOTH",
"285 322 OFFCURVE",
"288 320 OFFCURVE",
"291 319 CURVE",
"292 316 OFFCURVE",
"296 314 OFFCURVE",
"301 312 CURVE SMOOTH",
"306 307 OFFCURVE",
"309 305 OFFCURVE",
"311 304 CURVE",
"312 300 OFFCURVE",
"314 297 OFFCURVE",
"316 296 CURVE",
"319 292 OFFCURVE",
"322 290 OFFCURVE",
"324 285 CURVE SMOOTH",
"325 283 OFFCURVE",
"327 278 OFFCURVE",
"328 276 CURVE"
);
},
{
closed = 1;
nodes = (
"268 447 OFFCURVE",
"253 440 OFFCURVE",
"235 441 CURVE SMOOTH",
"216 441 OFFCURVE",
"197 449 OFFCURVE",
"181 470 CURVE",
"165 488 OFFCURVE",
"155 508 OFFCURVE",
"153 531 CURVE SMOOTH",
"150 561 OFFCURVE",
"153 582 OFFCURVE",
"164 596 CURVE SMOOTH",
"174 614 OFFCURVE",
"190 624 OFFCURVE",
"210 621 CURVE SMOOTH",
"229 621 OFFCURVE",
"247 610 OFFCURVE",
"263 593 CURVE SMOOTH",
"279 574 OFFCURVE",
"289 553 OFFCURVE",
"292 528 CURVE SMOOTH",
"296 505 OFFCURVE",
"291 481 OFFCURVE",
"281 464 CURVE SMOOTH"
);
},
{
closed = 1;
nodes = (
"530 534 LINE",
"530 642 LINE",
"494 642 LINE",
"494 534 LINE",
"387 534 LINE",
"387 500 LINE",
"494 500 LINE",
"494 392 LINE",
"530 392 LINE",
"530 500 LINE",
"638 500 LINE",
"638 534 LINE"
);
}
);
width = 703;
}
);
unicode = 0033;
},
{
glyphname = less;
lastChange = "2013-03-19 22:54:50 +0100";
layers = (
{
layerId = "47E17F20-96EA-4F25-9FDC-A26DCA823BDE";
name = Regular;
paths = (
{
closed = 1;
nodes = (
"50 408 LINE",
"230 241 LINE",
"230 350 LINE",
"369 350 OFFCURVE",
"443 332 OFFCURVE",
"500 230 CURVE",
"494 258 OFFCURVE",
"482 288 OFFCURVE",
"466 321 CURVE SMOOTH",
"412 422 OFFCURVE",
"333 473 OFFCURVE",
"230 473 CURVE",
"230 570 LINE"
);
}
);
width = 550;
}
);
unicode = 003C;
},
{
glyphname = at;
lastChange = "2013-03-19 22:55:01 +0100";
layers = (
{
layerId = "47E17F20-96EA-4F25-9FDC-A26DCA823BDE";
name = Regular;
paths = (
{
closed = 1;
nodes = (
"397 215 OFFCURVE",
"325 196 OFFCURVE",
"287 196 CURVE SMOOTH",
"173 196 OFFCURVE",
"110 262 OFFCURVE",
"106 385 CURVE SMOOTH",
"101 509 OFFCURVE",
"179 595 OFFCURVE",
"292 595 CURVE SMOOTH",
"397 595 OFFCURVE",
"455 538 OFFCURVE",
"459 433 CURVE SMOOTH",
"462 357 OFFCURVE",
"444 319 OFFCURVE",
"397 319 CURVE SMOOTH",
"378 319 OFFCURVE",
"368 338 OFFCURVE",
"376 385 CURVE",
"390 509 LINE",
"371 519 OFFCURVE",
"342 528 OFFCURVE",
"314 528 CURVE SMOOTH",
"210 528 OFFCURVE",
"154 452 OFFCURVE",
"157 367 CURVE SMOOTH",
"160 300 OFFCURVE",
"190 272 OFFCURVE",
"237 272 CURVE SMOOTH",
"266 272 OFFCURVE",
"293 291 OFFCURVE",
"321 329 CURVE",
"332 291 OFFCURVE",
"351 272 OFFCURVE",
"380 272 CURVE SMOOTH",
"465 272 OFFCURVE",
"516 329 OFFCURVE",
"512 443 CURVE SMOOTH",
"508 557 OFFCURVE",
"414 642 OFFCURVE",
"291 642 CURVE SMOOTH",
"140 642 OFFCURVE",
"39 519 OFFCURVE",
"43 376 CURVE SMOOTH",
"47 253 OFFCURVE",
"147 158 OFFCURVE",
"270 158 CURVE SMOOTH",
"317 158 OFFCURVE",
"369 178 OFFCURVE",
"406 196 CURVE",
"425 229 LINE"
);
},
{
closed = 1;
nodes = (
"310 357 OFFCURVE",
"283 329 OFFCURVE",
"255 329 CURVE SMOOTH",
"235 329 OFFCURVE",
"226 348 OFFCURVE",
"225 376 CURVE SMOOTH",
"223 443 OFFCURVE",
"250 471 OFFCURVE",
"297 471 CURVE SMOOTH",
"306 471 OFFCURVE",
"316 471 OFFCURVE",
"326 471 CURVE",
"318 405 LINE"
);
}
);
width = 554;
}
);
unicode = 0040;
},
{
glyphname = A;
lastChange = "2013-03-19 22:55:16 +0100";
layers = (
{
layerId = "47E17F20-96EA-4F25-9FDC-A26DCA823BDE";
name = Regular;
paths = (
{
closed = 1;
nodes = (
"636 384 LINE",
"494 384 LINE SMOOTH",
"430 564 LINE",
"372 287 LINE",
"250 625 LINE",
"210 384 LINE",
"68 384 LINE",
"68 357 LINE",
"235 357 LINE",
"260 509 LINE",
"379 175 LINE",
"438 453 LINE",
"473 357 LINE",
"636 357 LINE"
);
}
);
width = 703;
}
);
unicode = 0041;
},
{
glyphname = B;
lastChange = "2013-03-19 22:55:40 +0100";
layers = (
{
background = {
paths = (
{
closed = 1;
nodes = (
"297 420 OFFCURVE",
"289 417 OFFCURVE",
"285 407 CURVE SMOOTH",
"177 179 LINE SMOOTH",
"173 170 OFFCURVE",
"177 161 OFFCURVE",
"187 158 CURVE SMOOTH",
"200 150 LINE SMOOTH",
"209 147 OFFCURVE",
"218 149 OFFCURVE",
"221 159 CURVE SMOOTH",
"227 168 LINE",
"334 145 LINE",
"332 133 LINE SMOOTH",
"327 115 OFFCURVE",
"338 99 OFFCURVE",
"356 96 CURVE SMOOTH",
"403 86 LINE SMOOTH",
"420 83 OFFCURVE",
"436 93 OFFCURVE",
"439 110 CURVE SMOOTH",
"442 122 LINE",
"530 103 LINE SMOOTH",
"535 101 OFFCURVE",
"538 95 OFFCURVE",
"536 92 CURVE SMOOTH",
"534 90 LINE SMOOTH",
"534 85 OFFCURVE",
"535 82 OFFCURVE",
"539 80 CURVE SMOOTH",
"563 69 LINE SMOOTH",
"565 67 OFFCURVE",
"569 68 OFFCURVE",
"571 74 CURVE SMOOTH",
"626 189 LINE SMOOTH",
"627 192 OFFCURVE",
"625 196 OFFCURVE",
"622 198 CURVE SMOOTH",
"599 208 LINE SMOOTH",
"594 210 OFFCURVE",
"591 209 OFFCURVE",
"589 207 CURVE SMOOTH",
"587 204 LINE SMOOTH",
"586 200 OFFCURVE",
"581 198 OFFCURVE",
"577 200 CURVE SMOOTH",
"323 378 LINE",
"328 387 LINE SMOOTH",
"331 396 OFFCURVE",
"329 405 OFFCURVE",
"320 410 CURVE SMOOTH",
"306 415 LINE SMOOTH"
);
},
{
closed = 1;
nodes = (
"111 278 OFFCURVE",
"110 278 OFFCURVE",
"110 277 CURVE",
"104 276 OFFCURVE",
"102 272 OFFCURVE",
"100 268 CURVE",
"100 265 OFFCURVE",
"100 264 OFFCURVE",
"102 260 CURVE",
"103 256 OFFCURVE",
"106 253 OFFCURVE",
"110 252 CURVE SMOOTH",
"152 245 LINE",
"154 245 OFFCURVE",
"155 245 OFFCURVE",
"157 246 CURVE SMOOTH",
"162 248 OFFCURVE",
"166 252 OFFCURVE",
"167 257 CURVE",
"168 261 OFFCURVE",
"168 261 OFFCURVE",
"167 263 CURVE",
"164 268 OFFCURVE",
"161 271 OFFCURVE",
"155 271 CURVE SMOOTH",
"112 279 LINE"
);
},
{
closed = 1;
nodes = (
"118 358 OFFCURVE",
"114 351 OFFCURVE",
"116 344 CURVE",
"118 341 OFFCURVE",
"119 339 OFFCURVE",
"124 337 CURVE SMOOTH",
"168 316 LINE",
"173 315 OFFCURVE",
"176 315 OFFCURVE",
"179 316 CURVE",
"182 317 OFFCURVE",
"185 319 OFFCURVE",
"186 323 CURVE SMOOTH",
"188 326 OFFCURVE",
"188 328 OFFCURVE",
"186 333 CURVE",
"185 337 OFFCURVE",
"184 339 OFFCURVE",
"180 340 CURVE SMOOTH",
"135 361 LINE SMOOTH",
"130 363 OFFCURVE",
"128 363 OFFCURVE",
"124 362 CURVE"
);
},
{
closed = 1;
nodes = (
"422 126 LINE",
"419 114 LINE",
"419 108 OFFCURVE",
"412 104 OFFCURVE",
"406 104 CURVE",
"360 113 LINE",
"352 117 OFFCURVE",
"348 120 OFFCURVE",
"350 128 CURVE SMOOTH",
"353 141 LINE"
);
},
{
closed = 1;
nodes = (
"177 429 OFFCURVE",
"177 428 OFFCURVE",
"172 424 CURVE",
"168 419 OFFCURVE",
"168 417 OFFCURVE",
"169 413 CURVE",
"169 411 OFFCURVE",
"171 409 OFFCURVE",
"174 407 CURVE",
"206 379 LINE",
"209 375 OFFCURVE",
"213 375 OFFCURVE",
"218 377 CURVE",
"221 378 OFFCURVE",
"222 379 OFFCURVE",
"223 380 CURVE",
"227 384 OFFCURVE",
"228 388 OFFCURVE",
"226 395 CURVE SMOOTH",
"222 399 LINE",
"192 427 LINE",
"187 431 OFFCURVE",
"184 431 OFFCURVE",
"178 430 CURVE"
);
},
{
closed = 1;
nodes = (
"554 183 LINE",
"291 308 LINE",
"313 355 LINE"
);
}
);
};
layerId = "47E17F20-96EA-4F25-9FDC-A26DCA823BDE";
name = Regular;
paths = (
{
closed = 1;
nodes = (
"285 571 OFFCURVE",
"277 568 OFFCURVE",
"273 558 CURVE SMOOTH",
"166 330 LINE SMOOTH",
"162 321 OFFCURVE",
"166 312 OFFCURVE",
"175 309 CURVE SMOOTH",
"188 301 LINE SMOOTH",
"197 298 OFFCURVE",
"206 300 OFFCURVE",
"209 310 CURVE SMOOTH",
"215 319 LINE",
"317 297 LINE",
"314 284 LINE SMOOTH",
"310 264 OFFCURVE",
"321 246 OFFCURVE",
"342 243 CURVE SMOOTH",
"393 232 LINE SMOOTH",
"412 229 OFFCURVE",
"429 240 OFFCURVE",
"433 259 CURVE SMOOTH",
"437 272 LINE",
"518 254 LINE SMOOTH",
"523 252 OFFCURVE",
"526 246 OFFCURVE",
"524 243 CURVE SMOOTH",
"522 241 LINE SMOOTH",
"522 236 OFFCURVE",
"523 233 OFFCURVE",
"527 231 CURVE SMOOTH",
"551 220 LINE SMOOTH",
"553 218 OFFCURVE",
"557 219 OFFCURVE",
"560 225 CURVE SMOOTH",
"614 340 LINE SMOOTH",
"616 343 OFFCURVE",
"613 347 OFFCURVE",
"610 349 CURVE SMOOTH",
"587 359 LINE SMOOTH",
"583 361 OFFCURVE",
"579 360 OFFCURVE",
"577 358 CURVE SMOOTH",
"575 355 LINE SMOOTH",
"575 351 OFFCURVE",
"569 349 OFFCURVE",
"565 351 CURVE SMOOTH",
"312 529 LINE",
"316 538 LINE SMOOTH",
"319 547 OFFCURVE",
"317 556 OFFCURVE",
"309 561 CURVE SMOOTH",
"294 566 LINE SMOOTH"
);
},
{
closed = 1;
nodes = (
"98 428 LINE",
"92 427 OFFCURVE",
"90 423 OFFCURVE",
"88 419 CURVE",
"88 416 OFFCURVE",
"88 415 OFFCURVE",
"90 411 CURVE",
"91 407 OFFCURVE",
"94 404 OFFCURVE",
"98 403 CURVE SMOOTH",
"141 396 LINE",
"142 396 OFFCURVE",
"144 396 OFFCURVE",
"146 397 CURVE SMOOTH",
"150 399 OFFCURVE",
"154 403 OFFCURVE",
"155 408 CURVE",
"156 412 OFFCURVE",
"156 412 OFFCURVE",
"155 414 CURVE",
"152 419 OFFCURVE",
"149 422 OFFCURVE",
"144 422 CURVE SMOOTH",
"100 430 LINE"
);
},
{
closed = 1;
nodes = (
"106 509 OFFCURVE",
"102 502 OFFCURVE",
"104 495 CURVE",
"106 492 OFFCURVE",
"107 490 OFFCURVE",
"112 488 CURVE SMOOTH",
"157 467 LINE",
"162 466 OFFCURVE",
"164 466 OFFCURVE",
"167 467 CURVE SMOOTH",
"170 468 OFFCURVE",
"173 470 OFFCURVE",
"174 474 CURVE SMOOTH",
"176 477 OFFCURVE",
"176 479 OFFCURVE",
"174 484 CURVE",
"173 488 OFFCURVE",
"172 490 OFFCURVE",
"168 491 CURVE SMOOTH",
"123 512 LINE SMOOTH",
"119 514 OFFCURVE",
"117 514 OFFCURVE",
"112 513 CURVE"
);
},
{
closed = 1;
nodes = (
"415 276 LINE",
"411 263 LINE",
"410 256 OFFCURVE",
"403 252 OFFCURVE",
"396 253 CURVE SMOOTH",
"345 262 LINE",
"336 266 OFFCURVE",
"333 270 OFFCURVE",
"334 278 CURVE SMOOTH",
"338 293 LINE"
);
},
{
closed = 1;
nodes = (
"161 575 LINE",
"157 570 OFFCURVE",
"157 568 OFFCURVE",
"157 564 CURVE",
"158 562 OFFCURVE",
"159 560 OFFCURVE",
"162 558 CURVE SMOOTH",
"194 530 LINE",
"198 526 OFFCURVE",
"202 526 OFFCURVE",
"206 528 CURVE",
"209 529 OFFCURVE",
"210 530 OFFCURVE",
"211 531 CURVE SMOOTH",
"215 535 OFFCURVE",
"216 539 OFFCURVE",
"214 546 CURVE SMOOTH",
"210 550 LINE",
"180 578 LINE",
"175 582 OFFCURVE",
"172 582 OFFCURVE",
"167 581 CURVE"
);
},
{
closed = 1;
nodes = (
"542 334 LINE",
"279 459 LINE",
"301 506 LINE"
);
}
);
width = 703;
}
);
unicode = 0042;
},
{
glyphname = C;
lastChange = "2013-03-19 22:56:09 +0100";
layers = (
{
layerId = "47E17F20-96EA-4F25-9FDC-A26DCA823BDE";
name = Regular;
paths = (
{
closed = 1;
nodes = (
"349 535 LINE SMOOTH",
"349 539 OFFCURVE",
"349 541 OFFCURVE",
"346 544 CURVE SMOOTH",
"343 547 OFFCURVE",
"340 548 OFFCURVE",
"335 548 CURVE SMOOTH",
"309 548 LINE SMOOTH",
"305 548 OFFCURVE",
"302 547 OFFCURVE",
"299 544 CURVE SMOOTH",
"297 541 OFFCURVE",
"295 539 OFFCURVE",
"295 535 CURVE SMOOTH",
"295 481 LINE SMOOTH",
"295 477 OFFCURVE",
"297 473 OFFCURVE",
"299 471 CURVE SMOOTH",
"302 468 OFFCURVE",
"305 467 OFFCURVE",
"309 467 CURVE SMOOTH",
"335 467 LINE SMOOTH",
"340 467 OFFCURVE",
"343 468 OFFCURVE",
"346 471 CURVE SMOOTH",
"349 473 OFFCURVE",
"349 477 OFFCURVE",
"349 481 CURVE SMOOTH"
);
},
{
closed = 1;
nodes = (
"430 522 LINE",
"430 494 LINE",
"363 494 LINE",
"363 522 LINE"
);
},
{
closed = 1;
nodes = (
"282 522 LINE",
"282 494 LINE",
"106 494 LINE",
"106 522 LINE"
);
},
{
closed = 1;
nodes = (
"241 427 LINE SMOOTH",
"241 431 OFFCURVE",
"240 434 OFFCURVE",
"238 436 CURVE SMOOTH",
"235 439 OFFCURVE",
"232 441 OFFCURVE",
"227 441 CURVE SMOOTH",
"201 441 LINE SMOOTH",
"197 441 OFFCURVE",
"194 439 OFFCURVE",
"191 436 CURVE SMOOTH",
"188 434 OFFCURVE",
"188 431 OFFCURVE",
"188 427 CURVE SMOOTH",
"188 372 LINE SMOOTH",
"188 368 OFFCURVE",
"188 365 OFFCURVE",
"191 363 CURVE SMOOTH",
"194 360 OFFCURVE",
"197 359 OFFCURVE",
"201 359 CURVE SMOOTH",
"227 359 LINE SMOOTH",
"232 359 OFFCURVE",
"235 360 OFFCURVE",
"238 363 CURVE SMOOTH",
"240 365 OFFCURVE",
"241 368 OFFCURVE",
"241 372 CURVE SMOOTH"
);
},
{
closed = 1;
nodes = (
"430 413 LINE",
"430 386 LINE",
"255 386 LINE",
"255 413 LINE"
);
},
{
closed = 1;
nodes = (
"174 413 LINE",
"174 386 LINE",
"106 386 LINE",
"106 413 LINE"
);
},
{
closed = 1;
nodes = (
"322 319 LINE SMOOTH",
"322 323 OFFCURVE",
"322 325 OFFCURVE",
"319 328 CURVE SMOOTH",
"316 330 OFFCURVE",
"313 333 OFFCURVE",
"309 333 CURVE SMOOTH",
"282 333 LINE SMOOTH",
"278 333 OFFCURVE",
"275 330 OFFCURVE",
"272 328 CURVE SMOOTH",
"270 325 OFFCURVE",
"268 323 OFFCURVE",
"268 319 CURVE SMOOTH",
"268 265 LINE SMOOTH",
"268 261 OFFCURVE",
"270 257 OFFCURVE",
"272 255 CURVE SMOOTH",
"275 252 OFFCURVE",
"278 252 OFFCURVE",
"282 252 CURVE SMOOTH",
"309 252 LINE SMOOTH",
"313 252 OFFCURVE",
"316 252 OFFCURVE",
"319 255 CURVE SMOOTH",
"322 257 OFFCURVE",
"322 261 OFFCURVE",
"322 265 CURVE SMOOTH"
);
},
{
closed = 1;
nodes = (
"430 305 LINE",
"430 278 LINE",
"335 278 LINE",
"335 305 LINE"
);
},
{
closed = 1;
nodes = (
"255 305 LINE",
"255 278 LINE",
"106 278 LINE",
"106 305 LINE"
);
},
{
closed = 1;
nodes = (
"484 568 LINE SMOOTH",
"484 578 OFFCURVE",
"480 586 OFFCURVE",
"475 592 CURVE SMOOTH",
"468 599 OFFCURVE",
"459 603 OFFCURVE",
"451 603 CURVE SMOOTH",
"86 603 LINE SMOOTH",
"77 603 OFFCURVE",
"68 599 OFFCURVE",
"62 592 CURVE",
"56 586 OFFCURVE",
"53 578 OFFCURVE",
"53 568 CURVE SMOOTH",
"53 231 LINE SMOOTH",
"53 222 OFFCURVE",
"56 214 OFFCURVE",
"62 207 CURVE SMOOTH",
"68 201 OFFCURVE",
"77 198 OFFCURVE",
"86 198 CURVE SMOOTH",
"451 198 LINE SMOOTH",
"459 198 OFFCURVE",
"468 201 OFFCURVE",
"475 207 CURVE",
"480 214 OFFCURVE",
"484 222 OFFCURVE",
"484 231 CURVE SMOOTH"
);
},
{
closed = 1;
nodes = (
"86 224 LINE SMOOTH",
"82 224 OFFCURVE",
"79 227 OFFCURVE",
"79 231 CURVE SMOOTH",
"79 568 LINE SMOOTH",
"79 573 OFFCURVE",
"82 575 OFFCURVE",
"86 575 CURVE SMOOTH",
"451 575 LINE SMOOTH",
"455 575 OFFCURVE",
"458 573 OFFCURVE",
"458 568 CURVE SMOOTH",
"458 231 LINE SMOOTH",
"458 227 OFFCURVE",
"455 224 OFFCURVE",
"451 224 CURVE SMOOTH"
);
}
);
width = 537;
}
);
unicode = 0043;
},
{
glyphname = D;
lastChange = "2013-03-19 22:56:23 +0100";
layers = (
{
layerId = "47E17F20-96EA-4F25-9FDC-A26DCA823BDE";
name = Regular;
paths = (
{
closed = 1;
nodes = (
"188 425 LINE",
"175 323 LINE",
"276 457 LINE",
"463 528 LINE",
"328 227 LINE",
"226 278 LINE",
"182 208 LINE",
"189 295 LINE",
"412 478 LINE",
"171 305 LINE",
"49 375 LINE"
);
},
{
closed = 1;
nodes = (
"239 593 LINE",
"149 466 LINE",
"216 479 LINE",
"201 389 LINE",
"290 516 LINE",
"224 504 LINE"
);
}
);
width = 512;
}
);
unicode = 0044;
},
{
glyphname = E;
lastChange = "2013-03-19 22:56:37 +0100";
layers = (
{
layerId = "47E17F20-96EA-4F25-9FDC-A26DCA823BDE";
name = Regular;
paths = (
{
closed = 1;
nodes = (
"287 269 LINE",
"155 269 LINE",
"155 400 LINE",
"182 400 LINE",
"182 295 LINE",
"287 295 LINE",
"287 532 LINE",
"392 585 LINE",
"182 585 LINE",
"182 506 LINE",
"155 506 LINE",
"155 611 LINE",
"445 611 LINE",
"445 269 LINE",
"287 189 LINE"
);
},
{
closed = 1;
nodes = (
"128 374 LINE",
"23 453 LINE",
"128 532 LINE",
"128 479 LINE",
"234 479 LINE",
"234 427 LINE",
"128 427 LINE"
);
}
);
width = 537;
}
);
unicode = 0045;
},
{
glyphname = F;
lastChange = "2013-03-19 22:56:46 +0100";
layers = (
{
layerId = "47E17F20-96EA-4F25-9FDC-A26DCA823BDE";
name = Regular;
paths = (
{
closed = 1;
nodes = (
"116 413 LINE",
"115 417 LINE SMOOTH",
"112 429 OFFCURVE",
"110 441 OFFCURVE",
"110 452 CURVE",
"63 471 LINE",
"64 486 OFFCURVE",
"68 502 OFFCURVE",
"75 519 CURVE",
"126 512 LINE",
"131 523 OFFCURVE",
"139 534 OFFCURVE",
"151 544 CURVE",
"129 591 LINE",
"144 602 OFFCURVE",
"157 610 OFFCURVE",
"171 616 CURVE",
"203 576 LINE",
"208 577 LINE SMOOTH",
"220 581 OFFCURVE",
"230 582 OFFCURVE",
"242 582 CURVE",
"261 630 LINE",
"278 629 OFFCURVE",
"293 625 OFFCURVE",
"308 619 CURVE",
"303 567 LINE",
"314 560 OFFCURVE",
"325 553 OFFCURVE",
"334 542 CURVE",
"382 562 LINE",
"392 551 OFFCURVE",
"401 536 OFFCURVE",
"407 522 CURVE",
"367 490 LINE",
"368 485 LINE SMOOTH",
"371 474 OFFCURVE",
"373 463 OFFCURVE",
"373 451 CURVE",
"420 430 LINE",
"419 414 OFFCURVE",
"415 399 OFFCURVE",
"409 384 CURVE",
"357 390 LINE",
"352 379 OFFCURVE",
"343 368 OFFCURVE",
"333 359 CURVE",
"354 310 LINE",
"340 300 OFFCURVE",
"327 292 OFFCURVE",
"313 286 CURVE",
"281 326 LINE",
"276 325 LINE SMOOTH",
"264 321 OFFCURVE",
"252 320 OFFCURVE",
"241 320 CURVE",
"223 272 LINE",
"207 275 OFFCURVE",
"190 278 OFFCURVE",
"175 284 CURVE",
"181 336 LINE",
"170 341 OFFCURVE",
"160 349 OFFCURVE",
"149 358 CURVE",
"101 339 LINE",
"90 353 OFFCURVE",
"82 366 OFFCURVE",
"76 380 CURVE"
);
},
{
closed = 1;
nodes = (
"189 397 OFFCURVE",
"225 378 OFFCURVE",
"259 386 CURVE SMOOTH",
"295 396 OFFCURVE",
"313 435 OFFCURVE",
"305 468 CURVE SMOOTH",
"304 472 OFFCURVE",
"301 478 OFFCURVE",
"298 485 CURVE SMOOTH",
"283 510 OFFCURVE",
"251 522 OFFCURVE",
"225 514 CURVE SMOOTH",
"221 513 OFFCURVE",
"215 511 OFFCURVE",
"208 507 CURVE SMOOTH",
"183 492 OFFCURVE",
"171 462 OFFCURVE",
"179 434 CURVE SMOOTH"
);
},
{
closed = 1;
nodes = (
"409 261 LINE",
"405 273 OFFCURVE",
"402 280 OFFCURVE",
"400 284 CURVE SMOOTH",
"399 290 OFFCURVE",
"398 297 OFFCURVE",
"397 307 CURVE",
"359 324 LINE",
"361 340 OFFCURVE",
"365 354 OFFCURVE",
"371 369 CURVE",
"412 364 LINE",
"421 379 OFFCURVE",
"433 390 OFFCURVE",
"445 398 CURVE",
"441 440 LINE",
"448 443 OFFCURVE",
"455 445 OFFCURVE",
"462 448 CURVE SMOOTH",
"470 449 OFFCURVE",
"478 451 OFFCURVE",
"485 452 CURVE",
"501 412 LINE",
"519 412 OFFCURVE",
"534 409 OFFCURVE",
"548 401 CURVE",
"582 425 LINE",
"595 417 OFFCURVE",
"605 405 OFFCURVE",
"615 393 CURVE",
"590 359 LINE",
"593 351 OFFCURVE",
"598 344 OFFCURVE",
"599 338 CURVE SMOOTH",
"601 331 OFFCURVE",
"602 323 OFFCURVE",
"602 313 CURVE",
"641 297 LINE",
"638 282 OFFCURVE",
"636 267 OFFCURVE",
"628 252 CURVE",
"587 256 LINE",
"578 243 OFFCURVE",
"567 232 OFFCURVE",
"552 223 CURVE",
"558 182 LINE",
"551 178 OFFCURVE",
"543 176 OFFCURVE",
"536 175 CURVE SMOOTH",
"528 172 OFFCURVE",
"521 171 OFFCURVE",
"514 170 CURVE",
"496 208 LINE",
"481 209 OFFCURVE",
"466 212 OFFCURVE",
"451 220 CURVE",
"417 195 LINE",
"404 205 OFFCURVE",
"394 217 OFFCURVE",
"385 228 CURVE"
);
},
{
closed = 1;
nodes = (
"448 324 OFFCURVE",
"446 312 OFFCURVE",
"450 297 CURVE SMOOTH",
"457 271 OFFCURVE",
"486 254 OFFCURVE",
"513 261 CURVE SMOOTH",
"541 269 OFFCURVE",
"557 297 OFFCURVE",
"549 324 CURVE SMOOTH",
"542 352 OFFCURVE",
"514 368 OFFCURVE",
"486 360 CURVE SMOOTH",
"473 357 OFFCURVE",
"462 349 OFFCURVE",
"455 336 CURVE SMOOTH"
);
}
);
width = 703;
}
);
unicode = 0046;
},
{
glyphname = I;
lastChange = "2013-03-19 22:57:06 +0100";
layers = (
{
layerId = "47E17F20-96EA-4F25-9FDC-A26DCA823BDE";
name = Regular;
paths = (
{
closed = 1;
nodes = (
"366 558 OFFCURVE",
"332 557 OFFCURVE",
"303 544 CURVE SMOOTH",
"302 544 LINE SMOOTH",
"269 527 OFFCURVE",
"247 503 OFFCURVE",
"236 473 CURVE SMOOTH",
"226 443 OFFCURVE",
"227 407 OFFCURVE",
"241 378 CURVE SMOOTH",
"243 373 LINE SMOOTH",
"246 365 OFFCURVE",
"250 359 OFFCURVE",
"254 355 CURVE",
"259 348 OFFCURVE",
"263 343 OFFCURVE",
"270 338 CURVE SMOOTH",
"280 328 OFFCURVE",
"293 319 OFFCURVE",
"308 309 CURVE SMOOTH",
"323 299 OFFCURVE",
"340 284 OFFCURVE",
"354 272 CURVE SMOOTH",
"362 267 OFFCURVE",
"368 260 OFFCURVE",
"374 256 CURVE SMOOTH",
"384 249 OFFCURVE",
"391 245 OFFCURVE",
"400 247 CURVE",
"406 250 LINE",
"417 254 LINE",
"435 262 LINE",
"440 265 LINE",
"449 269 LINE SMOOTH",
"452 270 OFFCURVE",
"456 272 OFFCURVE",
"458 275 CURVE SMOOTH",
"461 276 OFFCURVE",
"462 276 OFFCURVE",
"464 276 CURVE",
"468 279 OFFCURVE",
"469 282 OFFCURVE",
"471 287 CURVE SMOOTH",
"475 297 OFFCURVE",
"475 310 OFFCURVE",
"475 329 CURVE SMOOTH",
"475 338 OFFCURVE",
"474 348 OFFCURVE",
"475 361 CURVE",
"475 372 OFFCURVE",
"477 378 OFFCURVE",
"477 387 CURVE SMOOTH",
"478 397 OFFCURVE",
"479 404 OFFCURVE",
"479 412 CURVE SMOOTH",
"480 429 OFFCURVE",
"479 443 OFFCURVE",
"476 457 CURVE SMOOTH",
"474 465 OFFCURVE",
"473 470 OFFCURVE",
"470 478 CURVE",
"470 480 LINE",
"468 483 LINE SMOOTH",
"453 515 OFFCURVE",
"427 536 OFFCURVE",
"397 547 CURVE SMOOTH"
);
},
{
closed = 1;
nodes = (
"184 309 LINE SMOOTH",
"179 305 OFFCURVE",
"176 297 OFFCURVE",
"182 290 CURVE SMOOTH",
"186 282 OFFCURVE",
"194 281 OFFCURVE",
"201 284 CURVE",
"201 285 LINE SMOOTH",
"202 287 OFFCURVE",
"203 287 OFFCURVE",
"203 288 CURVE",
"234 322 LINE",
"235 323 OFFCURVE",
"236 324 OFFCURVE",
"235 327 CURVE SMOOTH",
"235 332 OFFCURVE",
"230 339 OFFCURVE",
"224 333 CURVE SMOOTH"
);
},
{
closed = 1;
nodes = (
"145 496 OFFCURVE",
"135 492 OFFCURVE",
"131 484 CURVE SMOOTH",
"129 474 OFFCURVE",
"131 465 OFFCURVE",
"141 463 CURVE SMOOTH",
"142 462 LINE",
"145 462 LINE",
"196 455 LINE SMOOTH",
"200 454 OFFCURVE",
"202 454 OFFCURVE",
"204 456 CURVE SMOOTH",
"208 461 OFFCURVE",
"209 469 OFFCURVE",
"201 473 CURVE SMOOTH",
"153 492 LINE SMOOTH"
);
},
{
closed = 1;
nodes = (
"460 210 LINE",
"425 193 LINE SMOOTH",
"417 190 OFFCURVE",
"414 180 OFFCURVE",
"417 172 CURVE SMOOTH",
"420 166 OFFCURVE",
"429 162 OFFCURVE",
"439 166 CURVE SMOOTH",
"470 182 LINE",
"472 182 LINE",
"500 195 LINE SMOOTH",
"510 199 OFFCURVE",
"514 209 OFFCURVE",
"511 216 CURVE SMOOTH",
"507 224 OFFCURVE",
"496 228 OFFCURVE",
"487 222 CURVE SMOOTH"
);
},
{
closed = 1;
nodes = (
"406 236 LINE SMOOTH",
"396 231 OFFCURVE",
"395 221 OFFCURVE",
"397 214 CURVE SMOOTH",
"400 206 OFFCURVE",
"409 204 OFFCURVE",
"419 208 CURVE SMOOTH",
"451 223 LINE",
"452 223 LINE",
"480 237 LINE SMOOTH",
"490 240 OFFCURVE",
"495 251 OFFCURVE",
"492 257 CURVE SMOOTH",
"487 265 OFFCURVE",
"477 269 OFFCURVE",
"467 264 CURVE SMOOTH"
);
},
{
closed = 1;
nodes = (
"252 631 OFFCURVE",
"249 624 OFFCURVE",
"251 616 CURVE",
"253 612 LINE",
"281 568 LINE SMOOTH",
"283 564 OFFCURVE",
"288 562 OFFCURVE",
"294 565 CURVE SMOOTH",
"296 566 LINE SMOOTH",
"298 567 OFFCURVE",
"298 572 OFFCURVE",
"297 576 CURVE",
"282 626 LINE",
"282 627 OFFCURVE",
"282 629 OFFCURVE",
"280 630 CURVE",
"276 636 OFFCURVE",
"269 638 OFFCURVE",
"262 636 CURVE"
);
},
{
closed = 1;
nodes = (
"509 465 LINE SMOOTH",
"503 464 OFFCURVE",
"502 461 OFFCURVE",
"502 456 CURVE",
"503 451 OFFCURVE",
"506 447 OFFCURVE",
"511 448 CURVE",
"558 450 LINE",
"559 449 OFFCURVE",
"560 449 OFFCURVE",
"562 450 CURVE",
"570 452 OFFCURVE",
"574 461 OFFCURVE",
"571 468 CURVE SMOOTH",
"568 477 OFFCURVE",
"562 482 OFFCURVE",
"553 479 CURVE SMOOTH"
);
},
{
closed = 1;
nodes = (
"451 638 OFFCURVE",
"442 635 OFFCURVE",
"439 625 CURVE SMOOTH",
"423 576 LINE SMOOTH",
"421 571 OFFCURVE",
"423 567 OFFCURVE",
"428 565 CURVE",
"432 563 OFFCURVE",
"436 563 OFFCURVE",
"438 568 CURVE",
"469 612 LINE SMOOTH",
"469 614 OFFCURVE",
"469 614 OFFCURVE",
"470 615 CURVE",
"473 625 OFFCURVE",
"468 633 OFFCURVE",
"459 637 CURVE SMOOTH"
);
}
);
width = 703;
}
);
unicode = 0049;
},
{
glyphname = K;
lastChange = "2013-03-19 22:57:24 +0100";
layers = (
{
layerId = "47E17F20-96EA-4F25-9FDC-A26DCA823BDE";
name = Regular;
paths = (
{
closed = 1;
nodes = (
"277 630 LINE SMOOTH",
"150 628 OFFCURVE",
"51 525 OFFCURVE",
"51 400 CURVE SMOOTH",
"51 271 OFFCURVE",
"157 170 OFFCURVE",
"278 170 CURVE SMOOTH",
"284 170 LINE SMOOTH",
"411 171 OFFCURVE",
"511 275 OFFCURVE",
"511 400 CURVE SMOOTH",
"511 403 LINE SMOOTH",
"508 530 OFFCURVE",
"404 630 OFFCURVE",
"280 630 CURVE SMOOTH"
);
},
{
closed = 1;
nodes = (
"373 223 LINE",
"344 208 OFFCURVE",
"314 200 OFFCURVE",
"283 200 CURVE SMOOTH",
"279 200 LINE SMOOTH",
"249 200 OFFCURVE",
"219 207 OFFCURVE",
"188 222 CURVE",
"219 274 LINE",
"239 265 OFFCURVE",
"259 260 OFFCURVE",
"281 260 CURVE SMOOTH",
"302 260 OFFCURVE",
"322 265 OFFCURVE",
"342 274 CURVE"
);
},
{
closed = 1;
nodes = (
"155 461 LINE",
"146 442 OFFCURVE",
"141 421 OFFCURVE",
"141 399 CURVE SMOOTH",
"141 378 OFFCURVE",
"146 358 OFFCURVE",
"155 339 CURVE",
"103 308 LINE",
"88 336 OFFCURVE",
"81 367 OFFCURVE",
"81 401 CURVE SMOOTH",
"81 434 OFFCURVE",
"88 464 OFFCURVE",
"103 492 CURVE"
);
},
{
closed = 1;
nodes = (
"341 510 OFFCURVE",
"391 461 OFFCURVE",
"391 400 CURVE SMOOTH",
"391 339 OFFCURVE",
"341 290 OFFCURVE",
"281 290 CURVE SMOOTH",
"220 290 OFFCURVE",
"171 339 OFFCURVE",
"171 400 CURVE SMOOTH",
"171 431 OFFCURVE",
"182 457 OFFCURVE",
"203 478 CURVE SMOOTH",
"224 499 OFFCURVE",
"250 510 OFFCURVE",
"281 510 CURVE SMOOTH"
);
},
{
closed = 1;
nodes = (
"473 464 OFFCURVE",
"480 435 OFFCURVE",
"481 403 CURVE",
"481 368 OFFCURVE",
"473 337 OFFCURVE",
"458 308 CURVE",
"406 339 LINE",
"416 359 OFFCURVE",
"421 379 OFFCURVE",
"421 400 CURVE SMOOTH",
"421 421 OFFCURVE",
"416 441 OFFCURVE",
"406 461 CURVE",
"458 492 LINE"
);
},
{
closed = 1;
nodes = (
"312 600 OFFCURVE",
"344 592 OFFCURVE",
"373 577 CURVE",
"342 526 LINE",
"322 535 OFFCURVE",
"301 540 OFFCURVE",
"281 540 CURVE SMOOTH",
"260 540 OFFCURVE",
"239 535 OFFCURVE",
"219 526 CURVE",
"188 577 LINE",
"215 591 OFFCURVE",
"245 599 OFFCURVE",
"278 600 CURVE"
);
}
);
width = 562;
}
);
unicode = 004B;
},
{
glyphname = L;
lastChange = "2013-03-19 22:57:36 +0100";
layers = (
{
layerId = "47E17F20-96EA-4F25-9FDC-A26DCA823BDE";
name = Regular;
paths = (
{
closed = 1;
nodes = (
"453 609 OFFCURVE",
"429 594 OFFCURVE",
"410 578 CURVE SMOOTH",
"381 554 LINE",
"375 548 OFFCURVE",
"373 545 OFFCURVE",
"372 536 CURVE SMOOTH",
"372 528 OFFCURVE",
"374 522 OFFCURVE",
"378 516 CURVE SMOOTH",
"383 510 OFFCURVE",
"389 505 OFFCURVE",
"396 505 CURVE SMOOTH",
"401 505 OFFCURVE",
"408 507 OFFCURVE",
"416 512 CURVE",
"443 538 LINE SMOOTH",
"453 545 OFFCURVE",
"463 547 OFFCURVE",
"471 547 CURVE SMOOTH",
"483 546 OFFCURVE",
"495 538 OFFCURVE",
"506 526 CURVE",
"514 515 OFFCURVE",
"517 503 OFFCURVE",
"516 491 CURVE SMOOTH",
"515 480 OFFCURVE",
"510 469 OFFCURVE",
"500 460 CURVE SMOOTH",
"408 383 LINE SMOOTH",
"391 370 OFFCURVE",
"376 363 OFFCURVE",
"365 365 CURVE SMOOTH",
"356 365 OFFCURVE",
"349 369 OFFCURVE",
"343 377 CURVE",
"337 381 OFFCURVE",
"331 384 OFFCURVE",
"324 385 CURVE SMOOTH",
"317 385 OFFCURVE",
"311 383 OFFCURVE",
"305 380 CURVE SMOOTH",
"299 375 OFFCURVE",
"295 369 OFFCURVE",
"294 362 CURVE SMOOTH",
"294 356 OFFCURVE",
"297 350 OFFCURVE",
"302 342 CURVE SMOOTH",
"318 323 OFFCURVE",
"336 312 OFFCURVE",
"359 310 CURVE SMOOTH",
"385 308 OFFCURVE",
"412 320 OFFCURVE",
"441 343 CURVE SMOOTH",
"534 420 LINE SMOOTH",
"555 437 OFFCURVE",
"575 461 OFFCURVE",
"577 486 CURVE SMOOTH",
"581 513 OFFCURVE",
"563 540 OFFCURVE",
"547 561 CURVE SMOOTH",
"526 583 OFFCURVE",
"502 605 OFFCURVE",
"476 607 CURVE SMOOTH"
);
},
{
closed = 1;
nodes = (
"309 479 OFFCURVE",
"278 468 OFFCURVE",
"246 442 CURVE SMOOTH",
"160 370 LINE SMOOTH",
"138 352 OFFCURVE",
"127 329 OFFCURVE",
"125 302 CURVE SMOOTH",
"122 275 OFFCURVE",
"129 250 OFFCURVE",
"147 229 CURVE SMOOTH",
"166 208 OFFCURVE",
"190 195 OFFCURVE",
"216 193 CURVE SMOOTH",
"242 191 OFFCURVE",
"268 199 OFFCURVE",
"290 216 CURVE SMOOTH",
"313 236 LINE",
"319 240 OFFCURVE",
"323 247 OFFCURVE",
"323 253 CURVE SMOOTH",
"324 259 OFFCURVE",
"322 267 OFFCURVE",
"317 272 CURVE",
"311 280 OFFCURVE",
"305 283 OFFCURVE",
"298 284 CURVE SMOOTH",
"292 284 OFFCURVE",
"285 282 OFFCURVE",
"279 277 CURVE",
"256 255 LINE SMOOTH",
"246 248 OFFCURVE",
"232 244 OFFCURVE",
"221 246 CURVE SMOOTH",
"208 247 OFFCURVE",
"196 253 OFFCURVE",
"188 262 CURVE",
"180 274 OFFCURVE",
"176 286 OFFCURVE",
"178 299 CURVE SMOOTH",
"179 310 OFFCURVE",
"184 321 OFFCURVE",
"193 330 CURVE SMOOTH",
"281 401 LINE SMOOTH",
"300 419 OFFCURVE",
"318 425 OFFCURVE",
"330 424 CURVE SMOOTH",
"338 423 OFFCURVE",
"346 420 OFFCURVE",
"351 414 CURVE",
"355 408 OFFCURVE",
"360 404 OFFCURVE",
"368 403 CURVE SMOOTH",
"370 403 OFFCURVE",
"370 403 OFFCURVE",
"370 403 CURVE",
"384 402 OFFCURVE",
"397 414 OFFCURVE",
"399 428 CURVE SMOOTH",
"399 435 OFFCURVE",
"397 442 OFFCURVE",
"392 447 CURVE",
"376 464 OFFCURVE",
"357 475 OFFCURVE",
"336 477 CURVE SMOOTH"
);
}
);
width = 703;
}
);
unicode = 004C;
},
{
glyphname = O;
lastChange = "2013-03-19 22:57:46 +0100";
layers = (
{
layerId = "47E17F20-96EA-4F25-9FDC-A26DCA823BDE";
name = Regular;
paths = (
{
closed = 1;
nodes = (
"87 493 OFFCURVE",
"81 490 OFFCURVE",
"75 483 CURVE",
"71 482 OFFCURVE",
"69 474 OFFCURVE",
"68 468 CURVE SMOOTH",
"68 231 LINE SMOOTH",
"69 225 OFFCURVE",
"72 219 OFFCURVE",
"75 217 CURVE SMOOTH",
"80 210 OFFCURVE",
"86 206 OFFCURVE",
"93 206 CURVE SMOOTH",
"151 207 LINE SMOOTH",
"159 207 OFFCURVE",
"163 209 OFFCURVE",
"167 210 CURVE",
"170 211 OFFCURVE",
"173 216 OFFCURVE",
"175 221 CURVE SMOOTH",
"177 226 OFFCURVE",
"174 233 OFFCURVE",
"168 242 CURVE",
"164 251 OFFCURVE",
"161 258 OFFCURVE",
"159 265 CURVE SMOOTH",
"157 272 OFFCURVE",
"156 280 OFFCURVE",
"158 288 CURVE SMOOTH",
"157 294 OFFCURVE",
"161 300 OFFCURVE",
"170 303 CURVE SMOOTH",
"178 306 OFFCURVE",
"190 308 OFFCURVE",
"205 308 CURVE SMOOTH",
"221 309 OFFCURVE",
"232 306 OFFCURVE",
"242 302 CURVE SMOOTH",
"248 300 OFFCURVE",
"256 294 OFFCURVE",
"256 287 CURVE SMOOTH",
"256 280 OFFCURVE",
"255 271 OFFCURVE",
"256 265 CURVE SMOOTH",
"254 258 OFFCURVE",
"246 250 OFFCURVE",
"243 242 CURVE SMOOTH",
"238 232 OFFCURVE",
"235 226 OFFCURVE",
"237 221 CURVE SMOOTH",
"240 217 OFFCURVE",
"242 211 OFFCURVE",
"245 211 CURVE",
"247 209 OFFCURVE",
"256 206 OFFCURVE",
"258 207 CURVE SMOOTH",
"319 206 LINE SMOOTH",
"325 207 OFFCURVE",
"330 210 OFFCURVE",
"335 216 CURVE",
"339 219 OFFCURVE",
"343 225 OFFCURVE",
"342 232 CURVE SMOOTH",
"343 289 LINE SMOOTH",
"343 295 OFFCURVE",
"343 300 OFFCURVE",
"344 303 CURVE SMOOTH",
"348 306 OFFCURVE",
"351 309 OFFCURVE",
"356 313 CURVE SMOOTH",
"361 313 OFFCURVE",
"368 310 OFFCURVE",
"377 305 CURVE SMOOTH",
"385 300 OFFCURVE",
"393 297 OFFCURVE",
"400 295 CURVE SMOOTH",
"407 294 OFFCURVE",
"415 294 OFFCURVE",
"423 294 CURVE SMOOTH",
"428 295 OFFCURVE",
"436 297 OFFCURVE",
"439 306 CURVE",
"443 314 OFFCURVE",
"444 328 OFFCURVE",
"444 340 CURVE SMOOTH",
"444 357 OFFCURVE",
"443 368 OFFCURVE",
"439 377 CURVE",
"435 385 OFFCURVE",
"429 389 OFFCURVE",
"422 391 CURVE SMOOTH",
"415 391 OFFCURVE",
"408 390 OFFCURVE",
"400 388 CURVE SMOOTH",
"394 386 OFFCURVE",
"384 384 OFFCURVE",
"377 379 CURVE",
"367 372 OFFCURVE",
"361 370 OFFCURVE",
"356 372 CURVE SMOOTH",
"350 372 OFFCURVE",
"347 377 OFFCURVE",
"344 380 CURVE SMOOTH",
"344 385 OFFCURVE",
"343 389 OFFCURVE",
"343 397 CURVE SMOOTH",
"343 468 LINE SMOOTH",
"343 474 OFFCURVE",
"339 482 OFFCURVE",
"335 483 CURVE",
"330 490 OFFCURVE",
"325 493 OFFCURVE",
"318 493 CURVE SMOOTH",
"257 492 LINE SMOOTH",
"257 493 OFFCURVE",
"247 494 OFFCURVE",
"245 495 CURVE",
"241 498 OFFCURVE",
"239 501 OFFCURVE",
"237 506 CURVE SMOOTH",
"235 509 OFFCURVE",
"239 518 OFFCURVE",
"243 529 CURVE SMOOTH",
"246 537 OFFCURVE",
"254 544 OFFCURVE",
"257 551 CURVE SMOOTH",
"256 559 OFFCURVE",
"256 565 OFFCURVE",
"256 573 CURVE SMOOTH",
"257 580 OFFCURVE",
"249 583 OFFCURVE",
"242 589 CURVE",
"231 594 OFFCURVE",
"221 594 OFFCURVE",
"205 594 CURVE SMOOTH",
"190 594 OFFCURVE",
"179 594 OFFCURVE",
"171 589 CURVE",
"162 583 OFFCURVE",
"158 580 OFFCURVE",
"157 572 CURVE SMOOTH",
"157 565 OFFCURVE",
"156 558 OFFCURVE",
"159 551 CURVE SMOOTH",
"161 544 OFFCURVE",
"165 536 OFFCURVE",
"168 529 CURVE",
"174 518 OFFCURVE",
"177 509 OFFCURVE",
"175 506 CURVE SMOOTH",
"174 501 OFFCURVE",
"170 498 OFFCURVE",
"167 497 CURVE",
"163 495 OFFCURVE",
"159 493 OFFCURVE",
"151 493 CURVE SMOOTH",
"93 493 LINE SMOOTH"
);
}
);
width = 483;
}
);
unicode = 004F;
},
{
glyphname = P;
lastChange = "2013-03-19 22:57:54 +0100";
layers = (
{
layerId = "47E17F20-96EA-4F25-9FDC-A26DCA823BDE";
name = Regular;
paths = (
{
closed = 1;
nodes = (
"114 309 LINE",
"193 242 LINE",
"94 205 LINE"
);
},
{
closed = 1;
nodes = (
"126 325 LINE",
"303 537 LINE",
"385 466 LINE",
"207 255 LINE"
);
},
{
closed = 1;
nodes = (
"317 552 LINE",
"347 588 LINE",
"353 594 OFFCURVE",
"363 595 OFFCURVE",
"371 589 CURVE SMOOTH",
"426 543 LINE SMOOTH",
"434 536 OFFCURVE",
"436 528 OFFCURVE",
"429 519 CURVE SMOOTH",
"398 484 LINE"
);
},
{
closed = 1;
nodes = (
"289 309 LINE",
"369 242 LINE",
"269 205 LINE"
);
},
{
closed = 1;
nodes = (
"302 325 LINE",
"478 537 LINE",
"559 466 LINE",
"382 255 LINE"
);
},
{
closed = 1;
nodes = (
"492 552 LINE",
"522 588 LINE",
"528 594 OFFCURVE",
"539 595 OFFCURVE",
"545 589 CURVE SMOOTH",
"602 543 LINE SMOOTH",
"609 536 OFFCURVE",
"611 528 OFFCURVE",
"604 519 CURVE SMOOTH",
"573 484 LINE"
);
},
{
closed = 1;
nodes = (
"526 464 LINE",
"481 503 LINE",
"333 327 LINE",
"379 288 LINE"
);
}
);
width = 703;
}
);
unicode = 0050;
},
{
glyphname = Q;
lastChange = "2013-03-20 17:37:03 +0100";
layers = (
{
layerId = "47E17F20-96EA-4F25-9FDC-A26DCA823BDE";
name = Regular;
paths = (
{
closed = 1;
nodes = (
"398 541 OFFCURVE",
"432 518 OFFCURVE",
"432 474 CURVE SMOOTH",
"432 463 OFFCURVE",
"429 452 OFFCURVE",
"422 440 CURVE",
"419 436 OFFCURVE",
"411 432 OFFCURVE",
"398 421 CURVE SMOOTH",
"387 409 LINE SMOOTH",
"378 405 OFFCURVE",
"373 403 OFFCURVE",
"371 397 CURVE SMOOTH",
"371 394 OFFCURVE",
"371 388 OFFCURVE",
"371 383 CURVE SMOOTH",
"371 381 OFFCURVE",
"371 379 OFFCURVE",
"369 379 CURVE SMOOTH",
"333 379 LINE SMOOTH",
"330 379 OFFCURVE",
"329 381 OFFCURVE",
"329 383 CURVE",
"330 404 OFFCURVE",
"332 411 OFFCURVE",
"336 415 CURVE SMOOTH",
"340 425 OFFCURVE",
"355 435 OFFCURVE",
"366 440 CURVE",
"371 445 LINE",
"373 448 OFFCURVE",
"376 452 OFFCURVE",
"378 455 CURVE SMOOTH",
"384 462 OFFCURVE",
"387 465 OFFCURVE",
"387 472 CURVE SMOOTH",
"387 481 OFFCURVE",
"384 488 OFFCURVE",
"378 492 CURVE",
"374 500 OFFCURVE",
"368 503 OFFCURVE",
"355 503 CURVE SMOOTH",
"344 503 OFFCURVE",
"335 499 OFFCURVE",
"330 491 CURVE SMOOTH",
"325 485 OFFCURVE",
"322 474 OFFCURVE",
"322 466 CURVE",
"280 466 LINE",
"282 525 OFFCURVE",
"316 541 OFFCURVE",
"351 541 CURVE SMOOTH"
);
},
{
closed = 1;
nodes = (
"369 351 OFFCURVE",
"376 341 OFFCURVE",
"376 327 CURVE SMOOTH",
"376 325 LINE",
"376 312 OFFCURVE",
"367 301 OFFCURVE",
"351 301 CURVE",
"336 302 OFFCURVE",
"326 313 OFFCURVE",
"326 325 CURVE SMOOTH",
"326 335 OFFCURVE",
"328 341 OFFCURVE",
"335 345 CURVE SMOOTH",
"340 348 OFFCURVE",
"343 351 OFFCURVE",
"351 351 CURVE SMOOTH"
);
},
{
closed = 1;
nodes = (
"179 583 LINE SMOOTH",
"146 583 OFFCURVE",
"120 556 OFFCURVE",
"120 525 CURVE SMOOTH",
"120 322 LINE SMOOTH",
"120 291 OFFCURVE",
"146 264 OFFCURVE",
"179 264 CURVE SMOOTH",
"294 264 LINE",
"409 178 LINE",
"409 264 LINE",
"525 264 LINE SMOOTH",
"556 264 OFFCURVE",
"583 291 OFFCURVE",
"583 322 CURVE SMOOTH",
"583 525 LINE SMOOTH",
"583 556 OFFCURVE",
"556 583 OFFCURVE",
"525 583 CURVE SMOOTH"
);
}
);
width = 703;
}
);
unicode = 0051;
},
{
glyphname = R;
lastChange = "2013-03-19 22:46:41 +0100";
layers = (
{
layerId = "47E17F20-96EA-4F25-9FDC-A26DCA823BDE";
name = Regular;
paths = (
{
closed = 1;
nodes = (
"485 525 OFFCURVE",
"493 518 OFFCURVE",
"487 505 CURVE",
"453 404 LINE",
"451 395 OFFCURVE",
"439 391 OFFCURVE",
"431 393 CURVE",
"330 427 LINE SMOOTH",
"316 432 OFFCURVE",
"316 441 OFFCURVE",
"329 447 CURVE SMOOTH",
"375 470 LINE",
"360 494 OFFCURVE",
"337 512 OFFCURVE",
"310 521 CURVE SMOOTH",
"277 533 OFFCURVE",
"242 529 OFFCURVE",
"212 515 CURVE SMOOTH",
"183 501 OFFCURVE",
"159 474 OFFCURVE",
"147 441 CURVE",
"146 436 OFFCURVE",
"141 434 OFFCURVE",
"136 435 CURVE SMOOTH",
"102 447 LINE",
"96 449 OFFCURVE",
"94 454 OFFCURVE",
"96 459 CURVE SMOOTH",
"112 506 OFFCURVE",
"146 543 OFFCURVE",
"188 564 CURVE SMOOTH",
"230 585 OFFCURVE",
"280 589 OFFCURVE",
"328 573 CURVE SMOOTH",
"369 559 OFFCURVE",
"402 532 OFFCURVE",
"425 495 CURVE",
"472 518 LINE SMOOTH"
);
},
{
closed = 1;
nodes = (
"442 350 OFFCURVE",
"444 346 OFFCURVE",
"442 341 CURVE",
"426 293 OFFCURVE",
"392 256 OFFCURVE",
"350 236 CURVE SMOOTH",
"308 215 OFFCURVE",
"257 211 OFFCURVE",
"210 227 CURVE SMOOTH",
"169 240 OFFCURVE",
"135 268 OFFCURVE",
"113 305 CURVE",
"66 282 LINE",
"53 275 OFFCURVE",
"45 281 OFFCURVE",
"51 295 CURVE",
"85 396 LINE",
"87 404 OFFCURVE",
"99 409 OFFCURVE",
"107 406 CURVE",
"208 372 LINE SMOOTH",
"222 368 OFFCURVE",
"222 359 OFFCURVE",
"209 352 CURVE SMOOTH",
"163 329 LINE",
"178 306 OFFCURVE",
"200 288 OFFCURVE",
"228 278 CURVE SMOOTH",
"261 267 OFFCURVE",
"296 271 OFFCURVE",
"326 285 CURVE SMOOTH",
"355 299 OFFCURVE",
"379 325 OFFCURVE",
"391 359 CURVE",
"392 364 OFFCURVE",
"396 366 OFFCURVE",
"402 364 CURVE",
"437 353 LINE"
);
}
);
width = 538;
}
);
unicode = 0052;
},
{
glyphname = S;
lastChange = "2013-03-19 22:44:45 +0100";
layers = (
{
layerId = "47E17F20-96EA-4F25-9FDC-A26DCA823BDE";
name = Regular;
paths = (
{
closed = 1;
nodes = (
"616 605 LINE",
"444 219 LINE",
"313 285 LINE",
"257 196 LINE",
"267 307 LINE",
"550 540 LINE",
"243 320 LINE",
"88 408 LINE"
);
}
);
width = 703;
}
);
unicode = 0053;
},
{
glyphname = T;
lastChange = "2013-03-19 22:58:25 +0100";
layers = (
{
layerId = "47E17F20-96EA-4F25-9FDC-A26DCA823BDE";
name = Regular;
paths = (
{
closed = 1;
nodes = (
"120 598 OFFCURVE",
"50 529 OFFCURVE",
"50 444 CURVE SMOOTH",
"50 401 OFFCURVE",
"66 364 OFFCURVE",
"98 332 CURVE SMOOTH",
"129 300 OFFCURVE",
"167 284 OFFCURVE",
"209 284 CURVE SMOOTH",
"236 284 OFFCURVE",
"262 291 OFFCURVE",
"287 305 CURVE",
"382 210 LINE",
"388 205 OFFCURVE",
"394 202 OFFCURVE",
"399 202 CURVE SMOOTH",
"405 202 OFFCURVE",
"411 205 OFFCURVE",
"416 210 CURVE SMOOTH",
"439 234 LINE",
"443 238 OFFCURVE",
"445 242 OFFCURVE",
"445 246 CURVE SMOOTH",
"445 252 OFFCURVE",
"442 257 OFFCURVE",
"436 264 CURVE SMOOTH",
"342 359 LINE",
"356 383 OFFCURVE",
"364 410 OFFCURVE",
"364 439 CURVE SMOOTH",
"364 525 OFFCURVE",
"291 598 OFFCURVE",
"205 598 CURVE SMOOTH"
);
},
{
closed = 1;
nodes = (
"264 551 OFFCURVE",
"317 498 OFFCURVE",
"317 439 CURVE SMOOTH",
"317 380 OFFCURVE",
"269 332 OFFCURVE",
"209 332 CURVE SMOOTH",
"150 332 OFFCURVE",
"98 385 OFFCURVE",
"98 444 CURVE SMOOTH",
"98 473 OFFCURVE",
"109 499 OFFCURVE",
"130 520 CURVE SMOOTH",
"151 541 OFFCURVE",
"176 551 OFFCURVE",
"205 551 CURVE SMOOTH"
);
}
);
width = 495;
}
);
unicode = 0054;
},
{
glyphname = W;
lastChange = "2013-03-19 22:58:34 +0100";
layers = (
{
layerId = "47E17F20-96EA-4F25-9FDC-A26DCA823BDE";
name = Regular;
paths = (
{
closed = 1;
nodes = (
"659 595 OFFCURVE",
"659 595 OFFCURVE",
"659 589 CURVE SMOOTH",
"659 585 OFFCURVE",
"659 585 OFFCURVE",
"655 578 CURVE SMOOTH",
"617 578 OFFCURVE",
"606 562 OFFCURVE",
"585 525 CURVE",
"449 211 LINE",
"449 205 OFFCURVE",
"449 205 OFFCURVE",
"443 205 CURVE SMOOTH",
"438 205 OFFCURVE",
"438 205 OFFCURVE",
"432 211 CURVE",
"345 372 LINE",
"265 211 LINE",
"265 205 OFFCURVE",
"265 205 OFFCURVE",
"260 205 CURVE SMOOTH",
"254 205 OFFCURVE",
"250 205 OFFCURVE",
"250 211 CURVE",
"107 525 LINE",
"93 567 OFFCURVE",
"76 578 OFFCURVE",
"48 578 CURVE SMOOTH",
"44 578 LINE",
"44 585 OFFCURVE",
"44 585 OFFCURVE",
"44 589 CURVE SMOOTH",
"44 595 OFFCURVE",
"44 595 OFFCURVE",
"48 595 CURVE SMOOTH",
"54 595 OFFCURVE",
"65 595 OFFCURVE",
"76 589 CURVE",
"104 589 LINE SMOOTH",
"114 589 OFFCURVE",
"125 589 OFFCURVE",
"135 595 CURVE",
"167 595 LINE SMOOTH",
"173 595 OFFCURVE",
"173 589 OFFCURVE",
"173 585 CURVE SMOOTH",
"173 578 OFFCURVE",
"173 578 OFFCURVE",
"167 578 CURVE SMOOTH",
"142 578 OFFCURVE",
"131 567 OFFCURVE",
"131 551 CURVE SMOOTH",
"131 546 OFFCURVE",
"131 535 OFFCURVE",
"135 525 CURVE",
"243 281 LINE",
"313 427 LINE",
"260 525 LINE",
"232 567 OFFCURVE",
"222 578 OFFCURVE",
"195 578 CURVE SMOOTH",
"190 578 OFFCURVE",
"190 585 OFFCURVE",
"190 589 CURVE SMOOTH",
"190 595 LINE",
"201 595 OFFCURVE",
"211 595 OFFCURVE",
"227 595 CURVE",
"239 589 OFFCURVE",
"243 589 OFFCURVE",
"250 589 CURVE SMOOTH",
"254 589 OFFCURVE",
"265 589 OFFCURVE",
"282 595 CURVE",
"313 595 LINE SMOOTH",
"313 595 OFFCURVE",
"320 589 OFFCURVE",
"320 589 CURVE",
"320 585 OFFCURVE",
"320 578 OFFCURVE",
"313 578 CURVE SMOOTH",
"286 578 OFFCURVE",
"275 567 OFFCURVE",
"275 551 CURVE SMOOTH",
"275 546 OFFCURVE",
"282 535 OFFCURVE",
"286 525 CURVE SMOOTH",
"324 453 LINE",
"362 535 LINE SMOOTH",
"369 546 OFFCURVE",
"373 551 OFFCURVE",
"373 556 CURVE SMOOTH",
"373 574 OFFCURVE",
"362 578 OFFCURVE",
"334 578 CURVE SMOOTH",
"334 585 LINE SMOOTH",
"334 589 OFFCURVE",
"334 595 OFFCURVE",
"341 595 CURVE SMOOTH",
"352 595 OFFCURVE",
"362 595 OFFCURVE",
"373 589 CURVE",
"411 589 LINE SMOOTH",
"421 589 OFFCURVE",
"432 589 OFFCURVE",
"438 589 CURVE",
"449 595 OFFCURVE",
"460 595 OFFCURVE",
"477 595 CURVE SMOOTH",
"481 595 OFFCURVE",
"481 595 OFFCURVE",
"481 589 CURVE SMOOTH",
"481 585 OFFCURVE",
"481 585 OFFCURVE",
"477 578 CURVE",
"449 578 OFFCURVE",
"438 567 OFFCURVE",
"417 525 CURVE SMOOTH",
"358 400 LINE",
"421 275 LINE",
"536 535 LINE",
"536 551 LINE SMOOTH",
"536 567 OFFCURVE",
"519 578 OFFCURVE",
"498 578 CURVE SMOOTH",
"498 585 LINE SMOOTH",
"498 589 OFFCURVE",
"498 595 OFFCURVE",
"498 595 CURVE SMOOTH",
"541 595 LINE",
"557 589 OFFCURVE",
"568 589 OFFCURVE",
"579 589 CURVE SMOOTH",
"596 589 OFFCURVE",
"606 589 OFFCURVE",
"617 595 CURVE",
"655 595 LINE SMOOTH"
);
}
);
width = 703;
}
);
unicode = 0057;
},
{
glyphname = X;
lastChange = "2013-03-19 22:58:43 +0100";
layers = (
{
layerId = "47E17F20-96EA-4F25-9FDC-A26DCA823BDE";
name = Regular;
paths = (
{
closed = 1;
nodes = (
"172 400 LINE",
"248 476 LINE SMOOTH",
"249 477 OFFCURVE",
"249 478 OFFCURVE",
"250 479 CURVE",
"251 482 OFFCURVE",
"250 484 OFFCURVE",
"248 487 CURVE SMOOTH",
"212 523 LINE SMOOTH",
"209 525 OFFCURVE",
"207 526 OFFCURVE",
"204 525 CURVE",
"203 524 OFFCURVE",
"202 524 OFFCURVE",
"201 523 CURVE SMOOTH",
"125 447 LINE",
"49 523 LINE SMOOTH",
"48 524 OFFCURVE",
"47 524 OFFCURVE",
"46 525 CURVE",
"43 526 OFFCURVE",
"41 525 OFFCURVE",
"38 523 CURVE SMOOTH",
"2 487 LINE SMOOTH",
"0 484 OFFCURVE",
"-1 482 OFFCURVE",
"0 479 CURVE",
"1 478 OFFCURVE",
"1 477 OFFCURVE",
"2 476 CURVE SMOOTH",
"78 400 LINE",
"2 324 LINE SMOOTH",
"1 323 OFFCURVE",
"1 322 OFFCURVE",
"0 321 CURVE",
"-1 318 OFFCURVE",
"0 316 OFFCURVE",
"2 313 CURVE SMOOTH",
"38 277 LINE SMOOTH",
"41 275 OFFCURVE",
"43 274 OFFCURVE",
"46 276 CURVE",
"47 276 OFFCURVE",
"48 276 OFFCURVE",
"49 277 CURVE SMOOTH",
"125 353 LINE",
"201 277 LINE SMOOTH",
"202 276 OFFCURVE",
"203 276 OFFCURVE",
"204 276 CURVE",
"207 274 OFFCURVE",
"209 275 OFFCURVE",
"212 277 CURVE SMOOTH",
"248 313 LINE SMOOTH",
"250 316 OFFCURVE",
"251 318 OFFCURVE",
"250 321 CURVE",
"249 322 OFFCURVE",
"249 323 OFFCURVE",
"248 324 CURVE SMOOTH"
);
}
);
width = 250;
}
);
unicode = 0058;
},
{
glyphname = bracketright;
lastChange = "2013-03-19 22:58:55 +0100";
layers = (
{
layerId = "47E17F20-96EA-4F25-9FDC-A26DCA823BDE";
name = Regular;
paths = (
{
closed = 1;
nodes = (
"73 510 LINE SMOOTH",
"63 510 OFFCURVE",
"59 500 OFFCURVE",
"66 493 CURVE SMOOTH",
"258 294 LINE SMOOTH",
"261 291 OFFCURVE",
"266 291 OFFCURVE",
"269 294 CURVE SMOOTH",
"469 492 LINE SMOOTH",
"477 500 OFFCURVE",
"472 510 OFFCURVE",
"461 510 CURVE SMOOTH"
);
}
);
width = 536;
}
);
unicode = 005D;
},
{
glyphname = asciicircum;
lastChange = "2013-03-19 23:14:48 +0100";
layers = (
{
layerId = "47E17F20-96EA-4F25-9FDC-A26DCA823BDE";
name = Regular;
paths = (
{
closed = 1;
nodes = (
"100 445 LINE",
"155 445 LINE",
"155 309 LINE SMOOTH",
"155 284 OFFCURVE",
"175 264 OFFCURVE",
"200 264 CURVE SMOOTH",
"377 264 LINE",
"319 327 LINE",
"218 327 LINE",
"218 445 LINE",
"273 445 LINE",
"186 536 LINE"
);
},
{
closed = 1;
nodes = (
"277 536 LINE",
"335 473 LINE",
"436 473 LINE",
"436 355 LINE",
"381 355 LINE",
"468 264 LINE",
"554 355 LINE",
"499 355 LINE",
"499 491 LINE SMOOTH",
"499 516 OFFCURVE",
"478 536 OFFCURVE",
"454 536 CURVE SMOOTH"
);
}
);
width = 604;
}
);
unicode = 005E;
},
{
glyphname = underscore;
lastChange = "2013-03-19 22:59:15 +0100";
layers = (
{
layerId = "47E17F20-96EA-4F25-9FDC-A26DCA823BDE";
name = Regular;
paths = (
{
closed = 1;
nodes = (
"101 593 LINE SMOOTH",
"68 593 OFFCURVE",
"49 569 OFFCURVE",
"49 544 CURVE SMOOTH",
"49 514 OFFCURVE",
"71 491 OFFCURVE",
"101 491 CURVE SMOOTH",
"496 491 LINE SMOOTH",
"521 491 OFFCURVE",
"549 513 OFFCURVE",
"549 544 CURVE SMOOTH",
"549 569 OFFCURVE",
"521 593 OFFCURVE",
"496 593 CURVE SMOOTH"
);
},
{
closed = 1;
nodes = (
"101 451 LINE SMOOTH",
"68 451 OFFCURVE",
"49 427 OFFCURVE",
"49 402 CURVE SMOOTH",
"49 373 OFFCURVE",
"71 349 OFFCURVE",
"101 349 CURVE SMOOTH",
"496 349 LINE SMOOTH",
"521 349 OFFCURVE",
"549 372 OFFCURVE",
"549 402 CURVE SMOOTH",
"549 427 OFFCURVE",
"521 451 OFFCURVE",
"496 451 CURVE SMOOTH"
);
},
{
closed = 1;
nodes = (
"101 309 LINE SMOOTH",
"68 309 OFFCURVE",
"49 286 OFFCURVE",
"49 260 CURVE SMOOTH",
"49 231 OFFCURVE",
"71 208 OFFCURVE",
"101 208 CURVE SMOOTH",
"496 208 LINE SMOOTH",
"521 208 OFFCURVE",
"549 230 OFFCURVE",
"549 260 CURVE SMOOTH",
"549 286 OFFCURVE",
"521 309 OFFCURVE",
"496 309 CURVE SMOOTH"
);
}
);
width = 598;
}
);
unicode = 005F;
},
{
glyphname = a;
lastChange = "2013-03-19 22:59:26 +0100";
layers = (
{
layerId = "47E17F20-96EA-4F25-9FDC-A26DCA823BDE";
name = Regular;
paths = (
{
closed = 1;
nodes = (
"426 575 LINE",
"426 525 LINE",
"346 525 LINE",
"346 575 LINE",
"201 575 LINE",
"201 525 LINE",
"121 525 LINE",
"121 575 LINE",
"99 575 LINE SMOOTH",
"71 575 OFFCURVE",
"49 552 OFFCURVE",
"49 525 CURVE SMOOTH",
"49 225 LINE SMOOTH",
"49 197 OFFCURVE",
"71 175 OFFCURVE",
"99 175 CURVE SMOOTH",
"449 175 LINE SMOOTH",
"476 175 OFFCURVE",
"499 197 OFFCURVE",
"499 225 CURVE SMOOTH",
"499 525 LINE SMOOTH",
"499 552 OFFCURVE",
"476 575 OFFCURVE",
"449 575 CURVE SMOOTH"
);
},
{
closed = 1;
nodes = (
"449 225 LINE",
"99 225 LINE",
"99 425 LINE",
"449 425 LINE"
);
},
{
closed = 1;
nodes = (
"144 625 LINE",
"144 540 LINE",
"179 540 LINE",
"179 625 LINE"
);
},
{
closed = 1;
nodes = (
"369 625 LINE",
"369 540 LINE",
"404 540 LINE",
"404 625 LINE"
);
}
);
width = 548;
}
);
unicode = 0061;
},
{
glyphname = b;
lastChange = "2013-03-19 22:59:33 +0100";
layers = (
{
layerId = "47E17F20-96EA-4F25-9FDC-A26DCA823BDE";
name = Regular;
paths = (
{
closed = 1;
nodes = (
"345 454 LINE SMOOTH",
"352 456 OFFCURVE",
"358 451 OFFCURVE",
"360 445 CURVE SMOOTH",
"361 443 OFFCURVE",
"361 442 OFFCURVE",
"361 441 CURVE SMOOTH",
"361 438 OFFCURVE",
"358 432 OFFCURVE",
"352 429 CURVE",
"278 410 LINE",
"278 406 OFFCURVE",
"278 402 OFFCURVE",
"278 398 CURVE SMOOTH",
"278 386 OFFCURVE",
"277 373 OFFCURVE",
"274 357 CURVE",
"346 317 LINE SMOOTH",
"352 314 OFFCURVE",
"354 306 OFFCURVE",
"350 300 CURVE SMOOTH",
"347 294 OFFCURVE",
"339 292 OFFCURVE",
"333 295 CURVE SMOOTH",
"268 333 LINE",
"258 297 OFFCURVE",
"246 277 OFFCURVE",
"233 272 CURVE",
"231 271 OFFCURVE",
"229 271 OFFCURVE",
"228 271 CURVE SMOOTH",
"222 271 OFFCURVE",
"216 274 OFFCURVE",
"211 282 CURVE",
"211 268 OFFCURVE",
"206 261 OFFCURVE",
"197 261 CURVE SMOOTH",
"191 261 OFFCURVE",
"185 263 OFFCURVE",
"177 268 CURVE",
"166 273 OFFCURVE",
"153 283 OFFCURVE",
"140 296 CURVE",
"104 232 LINE",
"102 229 OFFCURVE",
"99 227 OFFCURVE",
"96 226 CURVE",
"94 226 OFFCURVE",
"93 226 OFFCURVE",
"92 226 CURVE SMOOTH",
"88 226 OFFCURVE",
"83 228 OFFCURVE",
"81 234 CURVE SMOOTH",
"80 238 OFFCURVE",
"80 241 OFFCURVE",
"82 244 CURVE",
"122 315 LINE",
"108 330 OFFCURVE",
"98 345 OFFCURVE",
"92 358 CURVE",
"19 337 LINE SMOOTH",
"12 336 OFFCURVE",
"5 339 OFFCURVE",
"3 346 CURVE",
"2 347 OFFCURVE",
"2 348 OFFCURVE",
"2 350 CURVE SMOOTH",
"2 354 OFFCURVE",
"4 359 OFFCURVE",
"12 361 CURVE SMOOTH",
"84 381 LINE",
"83 389 OFFCURVE",
"83 397 OFFCURVE",
"83 405 CURVE SMOOTH",
"83 416 OFFCURVE",
"83 425 OFFCURVE",
"86 436 CURVE",
"18 474 LINE SMOOTH",
"12 478 OFFCURVE",
"10 485 OFFCURVE",
"14 491 CURVE SMOOTH",
"17 497 OFFCURVE",
"24 499 OFFCURVE",
"30 496 CURVE SMOOTH",
"95 459 LINE",
"100 469 OFFCURVE",
"105 477 OFFCURVE",
"113 484 CURVE",
"112 488 OFFCURVE",
"112 491 OFFCURVE",
"112 495 CURVE SMOOTH",
"112 507 OFFCURVE",
"117 517 OFFCURVE",
"126 526 CURVE",
"126 527 LINE",
"126 528 LINE",
"125 534 OFFCURVE",
"122 539 OFFCURVE",
"120 541 CURVE",
"119 542 OFFCURVE",
"118 543 OFFCURVE",
"116 544 CURVE",
"113 545 OFFCURVE",
"110 545 OFFCURVE",
"107 545 CURVE",
"109 539 OFFCURVE",
"106 534 OFFCURVE",
"102 532 CURVE",
"97 530 OFFCURVE",
"91 533 OFFCURVE",
"90 539 CURVE",
"88 544 OFFCURVE",
"91 549 OFFCURVE",
"95 551 CURVE SMOOTH",
"99 553 OFFCURVE",
"103 554 OFFCURVE",
"107 553 CURVE SMOOTH",
"111 552 OFFCURVE",
"116 549 OFFCURVE",
"121 544 CURVE",
"125 538 OFFCURVE",
"127 535 OFFCURVE",
"129 528 CURVE",
"138 536 OFFCURVE",
"149 539 OFFCURVE",
"159 538 CURVE",
"159 542 OFFCURVE",
"158 543 OFFCURVE",
"158 544 CURVE",
"158 550 OFFCURVE",
"158 558 OFFCURVE",
"161 564 CURVE SMOOTH",
"164 568 OFFCURVE",
"167 571 OFFCURVE",
"170 573 CURVE",
"172 573 OFFCURVE",
"174 574 OFFCURVE",
"177 574 CURVE SMOOTH",
"181 574 OFFCURVE",
"186 571 OFFCURVE",
"188 566 CURVE",
"189 561 OFFCURVE",
"187 555 OFFCURVE",
"181 554 CURVE SMOOTH",
"175 553 OFFCURVE",
"170 556 OFFCURVE",
"169 563 CURVE",
"167 562 OFFCURVE",
"164 560 OFFCURVE",
"163 556 CURVE",
"161 554 OFFCURVE",
"160 550 OFFCURVE",
"160 546 CURVE",
"161 544 OFFCURVE",
"161 541 OFFCURVE",
"162 538 CURVE",
"180 536 OFFCURVE",
"194 523 OFFCURVE",
"200 506 CURVE",
"208 503 OFFCURVE",
"216 500 OFFCURVE",
"224 495 CURVE",
"260 560 LINE SMOOTH",
"263 565 OFFCURVE",
"271 567 OFFCURVE",
"277 564 CURVE SMOOTH",
"283 561 OFFCURVE",
"286 553 OFFCURVE",
"282 547 CURVE SMOOTH",
"243 479 LINE",
"256 466 OFFCURVE",
"266 451 OFFCURVE",
"272 434 CURVE"
);
}
);
width = 363;
}
);
unicode = 0062;
},
{
glyphname = c;
lastChange = "2013-03-19 22:59:47 +0100";
layers = (
{
layerId = "47E17F20-96EA-4F25-9FDC-A26DCA823BDE";
name = Regular;
paths = (
{
closed = 1;
nodes = (
"85 593 LINE SMOOTH",
"54 593 OFFCURVE",
"30 568 OFFCURVE",
"30 538 CURVE SMOOTH",
"30 345 LINE SMOOTH",
"30 315 OFFCURVE",
"54 290 OFFCURVE",
"85 290 CURVE SMOOTH",
"195 290 LINE",
"305 208 LINE",
"305 290 LINE",
"415 290 LINE SMOOTH",
"445 290 OFFCURVE",
"470 315 OFFCURVE",
"470 345 CURVE SMOOTH",
"470 538 LINE SMOOTH",
"470 568 OFFCURVE",
"445 593 OFFCURVE",
"415 593 CURVE SMOOTH"
);
}
);
width = 500;
}
);
unicode = 0063;
},
{
glyphname = d;
lastChange = "2013-03-19 23:00:02 +0100";
layers = (
{
layerId = "47E17F20-96EA-4F25-9FDC-A26DCA823BDE";
name = Regular;
paths = (
{
closed = 1;
nodes = (
"149 628 OFFCURVE",
"47 524 OFFCURVE",
"49 397 CURVE SMOOTH",
"51 270 OFFCURVE",
"155 168 OFFCURVE",
"282 170 CURVE SMOOTH",
"409 172 OFFCURVE",
"511 276 OFFCURVE",
"509 403 CURVE SMOOTH",
"507 529 OFFCURVE",
"403 632 OFFCURVE",
"276 630 CURVE SMOOTH"
);
},
{
closed = 1;
nodes = (
"311 448 OFFCURVE",
"316 442 OFFCURVE",
"316 429 CURVE SMOOTH",
"316 422 OFFCURVE",
"314 412 OFFCURVE",
"311 401 CURVE SMOOTH",
"290 321 LINE",
"289 317 OFFCURVE",
"289 312 OFFCURVE",
"289 309 CURVE SMOOTH",
"289 305 OFFCURVE",
"290 302 OFFCURVE",
"292 302 CURVE SMOOTH",
"300 302 OFFCURVE",
"312 308 OFFCURVE",
"328 320 CURVE",
"337 309 LINE",
"302 274 OFFCURVE",
"262 255 OFFCURVE",
"242 255 CURVE SMOOTH",
"228 255 OFFCURVE",
"221 264 OFFCURVE",
"221 280 CURVE SMOOTH",
"221 288 OFFCURVE",
"222 297 OFFCURVE",
"225 309 CURVE SMOOTH",
"244 383 LINE",
"246 389 OFFCURVE",
"246 393 OFFCURVE",
"246 396 CURVE SMOOTH",
"246 399 OFFCURVE",
"246 401 OFFCURVE",
"244 401 CURVE SMOOTH",
"234 401 OFFCURVE",
"221 395 OFFCURVE",
"206 383 CURVE",
"198 398 LINE",
"235 428 OFFCURVE",
"281 448 OFFCURVE",
"301 448 CURVE SMOOTH"
);
},
{
closed = 1;
nodes = (
"322 552 OFFCURVE",
"332 543 OFFCURVE",
"332 524 CURVE SMOOTH",
"332 504 OFFCURVE",
"315 486 OFFCURVE",
"290 486 CURVE SMOOTH",
"270 486 OFFCURVE",
"258 496 OFFCURVE",
"258 513 CURVE SMOOTH",
"258 514 OFFCURVE",
"258 515 OFFCURVE",
"258 516 CURVE",
"258 535 OFFCURVE",
"274 552 OFFCURVE",
"302 552 CURVE SMOOTH"
);
}
);
width = 558;
}
);
unicode = 0064;
},
{
glyphname = e;
lastChange = "2013-03-19 23:00:37 +0100";
layers = (
{
layerId = "47E17F20-96EA-4F25-9FDC-A26DCA823BDE";
name = Regular;
paths = (
{
closed = 1;
nodes = (
"121 294 LINE",
"216 214 LINE",
"98 170 LINE"
);
},
{
closed = 1;
nodes = (
"137 312 LINE",
"346 563 LINE",
"443 481 LINE",
"232 229 LINE"
);
},
{
closed = 1;
nodes = (
"362 581 LINE",
"396 623 LINE",
"400 628 OFFCURVE",
"406 629 OFFCURVE",
"411 630 CURVE SMOOTH",
"417 630 OFFCURVE",
"421 629 OFFCURVE",
"424 627 CURVE SMOOTH",
"491 570 LINE SMOOTH",
"502 562 OFFCURVE",
"502 551 OFFCURVE",
"493 541 CURVE SMOOTH",
"458 499 LINE"
);
}
);
width = 598;
}
);
unicode = 0065;
},
{
glyphname = f;
lastChange = "2013-03-19 23:00:50 +0100";
layers = (
{
layerId = "47E17F20-96EA-4F25-9FDC-A26DCA823BDE";
name = Regular;
paths = (
{
closed = 1;
nodes = (
"143 621 OFFCURVE",
"140 620 OFFCURVE",
"137 619 CURVE SMOOTH",
"125 615 OFFCURVE",
"122 608 OFFCURVE",
"122 602 CURVE SMOOTH",
"122 595 OFFCURVE",
"119 584 OFFCURVE",
"107 575 CURVE SMOOTH",
"67 542 OFFCURVE",
"50 507 OFFCURVE",
"50 459 CURVE SMOOTH",
"50 424 OFFCURVE",
"60 383 OFFCURVE",
"75 329 CURVE",
"77 324 OFFCURVE",
"77 318 OFFCURVE",
"77 313 CURVE SMOOTH",
"77 300 OFFCURVE",
"74 287 OFFCURVE",
"66 274 CURVE SMOOTH",
"60 262 OFFCURVE",
"56 249 OFFCURVE",
"56 237 CURVE SMOOTH",
"56 210 OFFCURVE",
"76 186 OFFCURVE",
"137 180 CURVE SMOOTH",
"146 179 OFFCURVE",
"154 179 OFFCURVE",
"163 179 CURVE SMOOTH",
"200 179 OFFCURVE",
"241 187 OFFCURVE",
"285 202 CURVE SMOOTH",
"380 237 OFFCURVE",
"451 307 OFFCURVE",
"451 350 CURVE SMOOTH",
"451 354 OFFCURVE",
"451 358 OFFCURVE",
"449 361 CURVE SMOOTH",
"441 385 OFFCURVE",
"423 398 OFFCURVE",
"410 400 CURVE SMOOTH",
"396 402 OFFCURVE",
"377 414 OFFCURVE",
"367 437 CURVE SMOOTH",
"305 570 OFFCURVE",
"275 606 OFFCURVE",
"187 604 CURVE SMOOTH",
"176 604 OFFCURVE",
"167 608 OFFCURVE",
"161 614 CURVE",
"156 619 OFFCURVE",
"151 621 OFFCURVE",
"146 621 CURVE SMOOTH"
);
},
{
closed = 1;
nodes = (
"252 326 OFFCURVE",
"246 323 OFFCURVE",
"243 322 CURVE",
"197 306 OFFCURVE",
"161 286 OFFCURVE",
"134 263 CURVE",
"145 253 OFFCURVE",
"158 248 OFFCURVE",
"173 248 CURVE SMOOTH",
"184 248 OFFCURVE",
"196 251 OFFCURVE",
"210 256 CURVE SMOOTH",
"242 268 OFFCURVE",
"264 293 OFFCURVE",
"264 317 CURVE SMOOTH",
"264 320 OFFCURVE",
"264 324 OFFCURVE",
"262 328 CURVE",
"262 329 LINE"
);
},
{
closed = 1;
nodes = (
"375 368 OFFCURVE",
"384 367 OFFCURVE",
"392 365 CURVE SMOOTH",
"407 360 OFFCURVE",
"415 356 OFFCURVE",
"415 347 CURVE SMOOTH",
"415 341 OFFCURVE",
"411 334 OFFCURVE",
"403 323 CURVE SMOOTH",
"385 297 OFFCURVE",
"333 256 OFFCURVE",
"274 235 CURVE SMOOTH",
"235 221 OFFCURVE",
"193 215 OFFCURVE",
"160 215 CURVE SMOOTH",
"144 215 OFFCURVE",
"129 216 OFFCURVE",
"119 219 CURVE SMOOTH",
"104 222 OFFCURVE",
"96 226 OFFCURVE",
"94 230 CURVE",
"94 231 OFFCURVE",
"94 233 OFFCURVE",
"94 234 CURVE SMOOTH",
"94 240 OFFCURVE",
"97 247 OFFCURVE",
"103 256 CURVE SMOOTH",
"118 280 OFFCURVE",
"168 316 OFFCURVE",
"236 341 CURVE SMOOTH",
"287 359 OFFCURVE",
"333 368 OFFCURVE",
"364 368 CURVE SMOOTH"
);
}
);
width = 501;
}
);
unicode = 0066;
},
{
glyphname = h;
lastChange = "2013-03-19 23:01:10 +0100";
layers = (
{
layerId = "47E17F20-96EA-4F25-9FDC-A26DCA823BDE";
name = Regular;
paths = (
{
closed = 1;
nodes = (
"334 530 LINE",
"334 393 LINE",
"419 308 LINE",
"444 332 LINE",
"369 407 LINE",
"369 530 LINE"
);
},
{
closed = 1;
nodes = (
"225 636 OFFCURVE",
"121 533 OFFCURVE",
"118 405 CURVE",
"49 405 LINE",
"153 289 LINE",
"258 405 LINE",
"176 405 LINE",
"179 500 OFFCURVE",
"258 577 OFFCURVE",
"353 577 CURVE SMOOTH",
"451 577 OFFCURVE",
"527 498 OFFCURVE",
"527 400 CURVE SMOOTH",
"527 302 OFFCURVE",
"451 223 OFFCURVE",
"353 223 CURVE SMOOTH",
"314 223 OFFCURVE",
"279 235 OFFCURVE",
"249 257 CURVE",
"208 214 LINE",
"251 181 OFFCURVE",
"299 164 OFFCURVE",
"353 164 CURVE SMOOTH",
"481 164 OFFCURVE",
"586 269 OFFCURVE",
"586 400 CURVE SMOOTH",
"586 531 OFFCURVE",
"481 636 OFFCURVE",
"353 636 CURVE SMOOTH"
);
}
);
width = 635;
}
);
unicode = 0068;
},
{
glyphname = i;
lastChange = "2013-03-19 23:01:19 +0100";
layers = (
{
layerId = "47E17F20-96EA-4F25-9FDC-A26DCA823BDE";
name = Regular;
paths = (
{
closed = 1;
nodes = (
"185 475 OFFCURVE",
"110 440 OFFCURVE",
"50 388 CURVE",
"63 366 LINE",
"72 373 OFFCURVE",
"84 379 OFFCURVE",
"98 385 CURVE SMOOTH",
"109 390 OFFCURVE",
"118 394 OFFCURVE",
"123 394 CURVE SMOOTH",
"127 394 OFFCURVE",
"129 392 OFFCURVE",
"129 386 CURVE SMOOTH",
"129 381 OFFCURVE",
"127 375 OFFCURVE",
"125 365 CURVE SMOOTH",
"95 238 LINE SMOOTH",
"90 219 OFFCURVE",
"88 204 OFFCURVE",
"88 191 CURVE SMOOTH",
"88 164 OFFCURVE",
"99 150 OFFCURVE",
"122 150 CURVE SMOOTH",
"155 150 OFFCURVE",
"223 181 OFFCURVE",
"280 238 CURVE",
"265 258 LINE",
"239 238 OFFCURVE",
"219 228 OFFCURVE",
"205 228 CURVE",
"201 228 OFFCURVE",
"199 232 OFFCURVE",
"199 238 CURVE SMOOTH",
"199 244 OFFCURVE",
"200 251 OFFCURVE",
"202 260 CURVE SMOOTH",
"237 394 LINE SMOOTH",
"242 414 OFFCURVE",
"245 430 OFFCURVE",
"245 442 CURVE SMOOTH",
"245 464 OFFCURVE",
"236 475 OFFCURVE",
"220 475 CURVE SMOOTH"
);
},
{
closed = 1;
nodes = (
"185 650 OFFCURVE",
"159 617 OFFCURVE",
"159 588 CURVE",
"158 557 OFFCURVE",
"177 538 OFFCURVE",
"209 538 CURVE SMOOTH",
"246 538 OFFCURVE",
"276 568 OFFCURVE",
"276 601 CURVE SMOOTH",
"276 629 OFFCURVE",
"257 650 OFFCURVE",
"225 650 CURVE SMOOTH"
);
}
);
width = 330;
}
);
unicode = 0069;
},
{
glyphname = j;
lastChange = "2013-03-19 23:01:29 +0100";
layers = (
{
background = {
paths = (
{
closed = 1;
nodes = (
"187 474 OFFCURVE",
"160 464 OFFCURVE",
"145 445 CURVE SMOOTH",
"129 424 OFFCURVE",
"124 406 OFFCURVE",
"124 390 CURVE SMOOTH",
"124 375 OFFCURVE",
"128 360 OFFCURVE",
"131 344 CURVE",
"128 343 LINE",
"125 340 OFFCURVE",
"121 333 OFFCURVE",
"121 323 CURVE",
"123 307 OFFCURVE",
"126 297 OFFCURVE",
"134 293 CURVE SMOOTH",
"141 289 OFFCURVE",
"145 285 OFFCURVE",
"145 281 CURVE SMOOTH",
"147 265 OFFCURVE",
"153 252 OFFCURVE",
"161 244 CURVE SMOOTH",
"168 236 OFFCURVE",
"172 228 OFFCURVE",
"172 220 CURVE SMOOTH",
"172 179 OFFCURVE",
"152 161 OFFCURVE",
"90 138 CURVE SMOOTH",
"88 138 OFFCURVE",
"83 136 OFFCURVE",
"73 133 CURVE",
"63 129 OFFCURVE",
"56 126 OFFCURVE",
"50 124 CURVE",
"50 24 LINE",
"450 24 LINE",
"450 77 LINE SMOOTH",
"450 95 OFFCURVE",
"419 115 OFFCURVE",
"359 138 CURVE SMOOTH",
"296 160 OFFCURVE",
"277 179 OFFCURVE",
"277 220 CURVE SMOOTH",
"277 228 OFFCURVE",
"281 235 OFFCURVE",
"289 244 CURVE SMOOTH",
"296 253 OFFCURVE",
"302 265 OFFCURVE",
"304 281 CURVE SMOOTH",
"305 285 OFFCURVE",
"309 289 OFFCURVE",
"316 293 CURVE SMOOTH",
"323 297 OFFCURVE",
"327 307 OFFCURVE",
"328 323 CURVE",
"328 334 OFFCURVE",
"324 342 OFFCURVE",
"318 344 CURVE",
"325 388 LINE",
"328 424 OFFCURVE",
"300 474 OFFCURVE",
"225 474 CURVE SMOOTH"
);
},
{
closed = 1;
nodes = (
"849 349 LINE",
"849 274 LINE",
"774 274 LINE",
"774 224 LINE",
"849 224 LINE",
"849 149 LINE",
"899 149 LINE",
"899 224 LINE",
"974 224 LINE",
"974 274 LINE",
"899 274 LINE",
"899 349 LINE"
);
},
{
closed = 1;
nodes = (
"394 376 OFFCURVE",
"374 369 OFFCURVE",
"362 354 CURVE SMOOTH",
"349 337 OFFCURVE",
"345 323 OFFCURVE",
"345 311 CURVE SMOOTH",
"345 298 OFFCURVE",
"348 287 OFFCURVE",
"351 274 CURVE",
"348 274 LINE",
"346 271 OFFCURVE",
"343 266 OFFCURVE",
"343 258 CURVE",
"344 245 OFFCURVE",
"347 237 OFFCURVE",
"353 234 CURVE SMOOTH",
"358 231 OFFCURVE",
"362 229 OFFCURVE",
"362 225 CURVE SMOOTH",
"364 213 OFFCURVE",
"368 203 OFFCURVE",
"374 195 CURVE SMOOTH",
"380 189 OFFCURVE",
"383 184 OFFCURVE",
"383 177 CURVE SMOOTH",
"383 145 OFFCURVE",
"368 131 OFFCURVE",
"318 113 CURVE SMOOTH",
"317 113 OFFCURVE",
"314 111 OFFCURVE",
"306 109 CURVE",
"297 106 OFFCURVE",
"292 104 OFFCURVE",
"287 102 CURVE",
"287 24 LINE",
"601 24 LINE",
"601 65 LINE SMOOTH",
"601 80 OFFCURVE",
"577 95 OFFCURVE",
"529 113 CURVE SMOOTH",
"481 130 OFFCURVE",
"465 146 OFFCURVE",
"465 177 CURVE SMOOTH",
"465 184 OFFCURVE",
"468 189 OFFCURVE",
"474 195 CURVE SMOOTH",
"481 204 OFFCURVE",
"484 213 OFFCURVE",
"486 225 CURVE SMOOTH",
"487 229 OFFCURVE",
"491 231 OFFCURVE",
"496 234 CURVE SMOOTH",
"501 238 OFFCURVE",
"504 245 OFFCURVE",
"505 258 CURVE",
"505 267 OFFCURVE",
"501 273 OFFCURVE",
"498 274 CURVE",
"502 309 LINE",
"505 337 OFFCURVE",
"482 376 OFFCURVE",
"424 376 CURVE SMOOTH"
);
}
);
};
layerId = "47E17F20-96EA-4F25-9FDC-A26DCA823BDE";
name = Regular;
paths = (
{
closed = 1;
nodes = (
"186 625 OFFCURVE",
"159 615 OFFCURVE",
"144 596 CURVE SMOOTH",
"128 575 OFFCURVE",
"123 557 OFFCURVE",
"123 541 CURVE SMOOTH",
"123 526 OFFCURVE",
"127 511 OFFCURVE",
"130 495 CURVE",
"127 494 LINE",
"125 491 OFFCURVE",
"120 484 OFFCURVE",
"120 474 CURVE",
"122 458 OFFCURVE",
"125 448 OFFCURVE",
"133 444 CURVE SMOOTH",
"140 440 OFFCURVE",
"144 436 OFFCURVE",
"144 432 CURVE SMOOTH",
"146 416 OFFCURVE",
"152 403 OFFCURVE",
"160 395 CURVE SMOOTH",
"167 387 OFFCURVE",
"171 379 OFFCURVE",
"171 371 CURVE SMOOTH",
"171 330 OFFCURVE",
"151 312 OFFCURVE",
"89 289 CURVE SMOOTH",
"87 289 OFFCURVE",
"82 287 OFFCURVE",
"72 284 CURVE",
"63 280 OFFCURVE",
"55 277 OFFCURVE",
"49 275 CURVE",
"49 175 LINE",
"449 175 LINE",
"449 228 LINE SMOOTH",
"449 246 OFFCURVE",
"418 266 OFFCURVE",
"358 289 CURVE SMOOTH",
"295 311 OFFCURVE",
"276 330 OFFCURVE",
"276 371 CURVE SMOOTH",
"276 379 OFFCURVE",
"280 386 OFFCURVE",
"288 395 CURVE SMOOTH",
"295 404 OFFCURVE",
"301 416 OFFCURVE",
"303 432 CURVE SMOOTH",
"304 436 OFFCURVE",
"308 440 OFFCURVE",
"315 444 CURVE SMOOTH",
"322 448 OFFCURVE",
"326 458 OFFCURVE",
"327 474 CURVE",
"327 485 OFFCURVE",
"323 493 OFFCURVE",
"317 495 CURVE",
"324 539 LINE",
"327 575 OFFCURVE",
"299 625 OFFCURVE",
"224 625 CURVE SMOOTH"
);
},
{
closed = 1;
nodes = (
"422 527 OFFCURVE",
"402 520 OFFCURVE",
"390 505 CURVE SMOOTH",
"377 488 OFFCURVE",
"374 474 OFFCURVE",
"374 462 CURVE SMOOTH",
"374 449 OFFCURVE",
"376 438 OFFCURVE",
"379 425 CURVE",
"376 425 LINE",
"375 422 OFFCURVE",
"372 417 OFFCURVE",
"372 409 CURVE",
"373 396 OFFCURVE",
"375 388 OFFCURVE",
"381 385 CURVE",
"387 382 OFFCURVE",
"390 380 OFFCURVE",
"390 376 CURVE",
"392 364 OFFCURVE",
"396 354 OFFCURVE",
"402 346 CURVE",
"408 340 OFFCURVE",
"411 335 OFFCURVE",
"411 328 CURVE SMOOTH",
"411 310 OFFCURVE",
"408 305 OFFCURVE",
"402 297 CURVE",
"457 276 OFFCURVE",
"479 246 OFFCURVE",
"479 228 CURVE SMOOTH",
"479 175 LINE",
"629 175 LINE",
"629 216 LINE SMOOTH",
"629 231 OFFCURVE",
"605 246 OFFCURVE",
"558 264 CURVE SMOOTH",
"509 281 OFFCURVE",
"493 297 OFFCURVE",
"493 328 CURVE SMOOTH",
"493 335 OFFCURVE",
"496 340 OFFCURVE",
"502 346 CURVE SMOOTH",
"509 355 OFFCURVE",
"512 364 OFFCURVE",
"515 376 CURVE",
"515 380 OFFCURVE",
"519 382 OFFCURVE",
"524 385 CURVE SMOOTH",
"529 389 OFFCURVE",
"532 396 OFFCURVE",
"534 409 CURVE",
"533 418 OFFCURVE",
"530 424 OFFCURVE",
"526 425 CURVE",
"531 460 LINE",
"533 488 OFFCURVE",
"511 527 OFFCURVE",
"453 527 CURVE SMOOTH"
);
},
{
closed = 1;
nodes = (
"672 500 LINE",
"672 425 LINE",
"597 425 LINE",
"597 375 LINE",
"672 375 LINE",
"672 300 LINE",
"722 300 LINE",
"722 375 LINE",
"797 375 LINE",
"797 425 LINE",
"722 425 LINE",
"722 500 LINE"
);
}
);
width = 846;
}
);
unicode = 006A;
},
{
glyphname = k;
lastChange = "2013-03-19 23:01:43 +0100";
layers = (
{
layerId = "47E17F20-96EA-4F25-9FDC-A26DCA823BDE";
name = Regular;
paths = (
{
closed = 1;
nodes = (
"229 268 LINE SMOOTH",
"203 268 OFFCURVE",
"183 246 OFFCURVE",
"183 224 CURVE SMOOTH",
"183 211 OFFCURVE",
"187 200 OFFCURVE",
"196 192 CURVE",
"205 182 OFFCURVE",
"216 178 OFFCURVE",
"229 178 CURVE SMOOTH",
"459 178 LINE SMOOTH",
"484 178 OFFCURVE",
"503 199 OFFCURVE",
"503 224 CURVE SMOOTH",
"503 246 OFFCURVE",
"484 268 OFFCURVE",
"459 268 CURVE SMOOTH"
);
},
{
closed = 1;
nodes = (
"229 447 LINE SMOOTH",
"203 447 OFFCURVE",
"183 425 OFFCURVE",
"183 402 CURVE SMOOTH",
"183 390 OFFCURVE",
"187 381 OFFCURVE",
"196 372 CURVE",
"205 362 OFFCURVE",
"216 357 OFFCURVE",
"229 357 CURVE SMOOTH",
"459 357 LINE SMOOTH",
"484 357 OFFCURVE",
"503 378 OFFCURVE",
"503 402 CURVE SMOOTH",
"503 425 OFFCURVE",
"484 447 OFFCURVE",
"459 447 CURVE SMOOTH"
);
},
{
closed = 1;
nodes = (
"229 626 LINE SMOOTH",
"203 626 OFFCURVE",
"183 605 OFFCURVE",
"183 584 CURVE SMOOTH",
"183 570 OFFCURVE",
"187 560 OFFCURVE",
"196 550 CURVE",
"205 542 OFFCURVE",
"216 538 OFFCURVE",
"229 538 CURVE SMOOTH",
"459 538 LINE SMOOTH",
"484 538 OFFCURVE",
"503 557 OFFCURVE",
"503 584 CURVE SMOOTH",
"503 605 OFFCURVE",
"484 626 OFFCURVE",
"459 626 CURVE SMOOTH"
);
},
{
closed = 1;
nodes = (
"138 642 LINE SMOOTH",
"136 643 OFFCURVE",
"133 643 OFFCURVE",
"131 642 CURVE SMOOTH",
"63 573 LINE SMOOTH",
"61 571 OFFCURVE",
"57 571 OFFCURVE",
"56 573 CURVE SMOOTH",
"27 601 LINE SMOOTH",
"26 603 OFFCURVE",
"23 603 OFFCURVE",
"20 601 CURVE SMOOTH",
"2 584 LINE SMOOTH",
"0 581 OFFCURVE",
"0 578 OFFCURVE",
"2 576 CURVE SMOOTH",
"56 523 LINE SMOOTH",
"57 521 OFFCURVE",
"61 521 OFFCURVE",
"63 523 CURVE SMOOTH",
"157 616 LINE SMOOTH",
"158 618 OFFCURVE",
"158 621 OFFCURVE",
"157 624 CURVE SMOOTH"
);
},
{
closed = 1;
nodes = (
"92 224 LINE",
"132 264 LINE SMOOTH",
"133 264 OFFCURVE",
"133 264 OFFCURVE",
"134 264 CURVE",
"134 267 OFFCURVE",
"134 269 OFFCURVE",
"132 270 CURVE SMOOTH",
"115 289 LINE SMOOTH",
"113 290 OFFCURVE",
"111 290 OFFCURVE",
"109 290 CURVE",
"108 290 OFFCURVE",
"108 290 OFFCURVE",
"108 289 CURVE SMOOTH",
"68 248 LINE",
"27 289 LINE SMOOTH",
"27 290 OFFCURVE",
"27 290 OFFCURVE",
"26 290 CURVE",
"24 290 OFFCURVE",
"23 290 OFFCURVE",
"21 289 CURVE SMOOTH",
"3 270 LINE SMOOTH",
"1 269 OFFCURVE",
"1 267 OFFCURVE",
"1 264 CURVE",
"2 264 OFFCURVE",
"2 264 OFFCURVE",
"3 264 CURVE SMOOTH",
"43 224 LINE",
"3 184 LINE SMOOTH",
"2 183 OFFCURVE",
"2 183 OFFCURVE",
"1 182 CURVE",
"1 180 OFFCURVE",
"1 179 OFFCURVE",
"3 177 CURVE SMOOTH",
"21 158 LINE SMOOTH",
"23 157 OFFCURVE",
"24 157 OFFCURVE",
"26 157 CURVE",
"27 157 OFFCURVE",
"27 158 OFFCURVE",
"27 158 CURVE SMOOTH",
"68 198 LINE",
"108 158 LINE SMOOTH",
"108 158 OFFCURVE",
"108 157 OFFCURVE",
"109 157 CURVE",
"111 157 OFFCURVE",
"113 157 OFFCURVE",
"115 158 CURVE SMOOTH",
"132 177 LINE SMOOTH",
"134 179 OFFCURVE",
"134 180 OFFCURVE",
"134 182 CURVE",
"133 183 OFFCURVE",
"133 183 OFFCURVE",
"132 184 CURVE SMOOTH"
);
},
{
closed = 1;
nodes = (
"138 461 LINE SMOOTH",
"136 462 OFFCURVE",
"133 462 OFFCURVE",
"131 461 CURVE SMOOTH",
"63 392 LINE SMOOTH",
"61 390 OFFCURVE",
"57 390 OFFCURVE",
"56 392 CURVE SMOOTH",
"27 420 LINE SMOOTH",
"26 422 OFFCURVE",
"23 422 OFFCURVE",
"20 420 CURVE SMOOTH",
"2 402 LINE SMOOTH",
"0 400 OFFCURVE",
"0 397 OFFCURVE",
"2 395 CURVE SMOOTH",
"56 342 LINE SMOOTH",
"57 339 OFFCURVE",
"61 339 OFFCURVE",
"63 342 CURVE SMOOTH",
"157 435 LINE SMOOTH",
"158 437 OFFCURVE",
"158 440 OFFCURVE",
"157 443 CURVE SMOOTH"
);
}
);
width = 503;
}
);
unicode = 006B;
},
{
glyphname = l;
lastChange = "2013-03-19 23:01:56 +0100";
layers = (
{
background = {
paths = (
{
closed = 1;
nodes = (
"187 474 OFFCURVE",
"160 464 OFFCURVE",
"145 445 CURVE SMOOTH",
"129 424 OFFCURVE",
"124 406 OFFCURVE",
"124 390 CURVE SMOOTH",
"124 375 OFFCURVE",
"128 360 OFFCURVE",
"131 344 CURVE",
"128 343 LINE",
"125 340 OFFCURVE",
"121 333 OFFCURVE",
"121 323 CURVE",
"123 307 OFFCURVE",
"126 297 OFFCURVE",
"134 293 CURVE SMOOTH",
"141 289 OFFCURVE",
"145 285 OFFCURVE",
"145 281 CURVE SMOOTH",
"147 265 OFFCURVE",
"153 252 OFFCURVE",
"161 244 CURVE SMOOTH",
"168 236 OFFCURVE",
"172 228 OFFCURVE",
"172 220 CURVE SMOOTH",
"172 179 OFFCURVE",
"152 161 OFFCURVE",
"90 138 CURVE SMOOTH",
"88 138 OFFCURVE",
"83 136 OFFCURVE",
"73 133 CURVE",
"63 129 OFFCURVE",
"56 126 OFFCURVE",
"50 124 CURVE",
"50 24 LINE",
"450 24 LINE",
"450 77 LINE SMOOTH",
"450 95 OFFCURVE",
"419 115 OFFCURVE",
"359 138 CURVE SMOOTH",
"296 160 OFFCURVE",
"277 179 OFFCURVE",
"277 220 CURVE SMOOTH",
"277 228 OFFCURVE",
"281 235 OFFCURVE",
"289 244 CURVE SMOOTH",
"296 253 OFFCURVE",
"302 265 OFFCURVE",
"304 281 CURVE SMOOTH",
"305 285 OFFCURVE",
"309 289 OFFCURVE",
"316 293 CURVE SMOOTH",
"323 297 OFFCURVE",
"327 307 OFFCURVE",
"328 323 CURVE",
"328 334 OFFCURVE",
"324 342 OFFCURVE",
"318 344 CURVE",
"325 388 LINE",
"328 424 OFFCURVE",
"300 474 OFFCURVE",
"225 474 CURVE SMOOTH"
);
},
{
closed = 1;
nodes = (
"849 349 LINE",
"849 274 LINE",
"774 274 LINE",
"774 224 LINE",
"849 224 LINE",
"849 149 LINE",
"899 149 LINE",
"899 224 LINE",
"974 224 LINE",
"974 274 LINE",
"899 274 LINE",
"899 349 LINE"
);
},
{
closed = 1;
nodes = (
"394 376 OFFCURVE",
"374 369 OFFCURVE",
"362 354 CURVE SMOOTH",
"349 337 OFFCURVE",
"345 323 OFFCURVE",
"345 311 CURVE SMOOTH",
"345 298 OFFCURVE",
"348 287 OFFCURVE",
"351 274 CURVE",
"348 274 LINE",
"346 271 OFFCURVE",
"343 266 OFFCURVE",
"343 258 CURVE",
"344 245 OFFCURVE",
"347 237 OFFCURVE",
"353 234 CURVE SMOOTH",
"358 231 OFFCURVE",
"362 229 OFFCURVE",
"362 225 CURVE SMOOTH",
"364 213 OFFCURVE",
"368 203 OFFCURVE",
"374 195 CURVE SMOOTH",
"380 189 OFFCURVE",
"383 184 OFFCURVE",
"383 177 CURVE SMOOTH",
"383 145 OFFCURVE",
"368 131 OFFCURVE",
"318 113 CURVE SMOOTH",
"317 113 OFFCURVE",
"314 111 OFFCURVE",
"306 109 CURVE",
"297 106 OFFCURVE",
"292 104 OFFCURVE",
"287 102 CURVE",
"287 24 LINE",
"601 24 LINE",
"601 65 LINE SMOOTH",
"601 80 OFFCURVE",
"577 95 OFFCURVE",
"529 113 CURVE SMOOTH",
"481 130 OFFCURVE",
"465 146 OFFCURVE",
"465 177 CURVE SMOOTH",
"465 184 OFFCURVE",
"468 189 OFFCURVE",
"474 195 CURVE SMOOTH",
"481 204 OFFCURVE",
"484 213 OFFCURVE",
"486 225 CURVE SMOOTH",
"487 229 OFFCURVE",
"491 231 OFFCURVE",
"496 234 CURVE SMOOTH",
"501 238 OFFCURVE",
"504 245 OFFCURVE",
"505 258 CURVE",
"505 267 OFFCURVE",
"501 273 OFFCURVE",
"498 274 CURVE",
"502 309 LINE",
"505 337 OFFCURVE",
"482 376 OFFCURVE",
"424 376 CURVE SMOOTH"
);
}
);
};
layerId = "47E17F20-96EA-4F25-9FDC-A26DCA823BDE";
name = Regular;
paths = (
{
closed = 1;
nodes = (
"186 625 OFFCURVE",
"159 615 OFFCURVE",
"144 596 CURVE SMOOTH",
"128 575 OFFCURVE",
"123 557 OFFCURVE",
"123 541 CURVE SMOOTH",
"123 526 OFFCURVE",
"127 511 OFFCURVE",
"130 495 CURVE",
"127 494 LINE",
"125 491 OFFCURVE",
"120 484 OFFCURVE",
"120 474 CURVE",
"122 458 OFFCURVE",
"125 448 OFFCURVE",
"133 444 CURVE SMOOTH",
"140 440 OFFCURVE",
"144 436 OFFCURVE",
"144 432 CURVE SMOOTH",
"146 416 OFFCURVE",
"152 403 OFFCURVE",
"160 395 CURVE SMOOTH",
"167 387 OFFCURVE",
"171 379 OFFCURVE",
"171 371 CURVE SMOOTH",
"171 330 OFFCURVE",
"151 312 OFFCURVE",
"89 289 CURVE SMOOTH",
"87 289 OFFCURVE",
"82 287 OFFCURVE",
"72 284 CURVE",
"63 280 OFFCURVE",
"55 277 OFFCURVE",
"49 275 CURVE",
"49 175 LINE",
"449 175 LINE",
"449 228 LINE SMOOTH",
"449 246 OFFCURVE",
"418 266 OFFCURVE",
"358 289 CURVE SMOOTH",
"295 311 OFFCURVE",
"276 330 OFFCURVE",
"276 371 CURVE SMOOTH",
"276 379 OFFCURVE",
"280 386 OFFCURVE",
"288 395 CURVE SMOOTH",
"295 404 OFFCURVE",
"301 416 OFFCURVE",
"303 432 CURVE SMOOTH",
"304 436 OFFCURVE",
"308 440 OFFCURVE",
"315 444 CURVE SMOOTH",
"322 448 OFFCURVE",
"326 458 OFFCURVE",
"327 474 CURVE",
"327 485 OFFCURVE",
"323 493 OFFCURVE",
"317 495 CURVE",
"324 539 LINE",
"327 575 OFFCURVE",
"299 625 OFFCURVE",
"224 625 CURVE SMOOTH"
);
},
{
closed = 1;
nodes = (
"422 527 OFFCURVE",
"402 520 OFFCURVE",
"390 505 CURVE SMOOTH",
"377 488 OFFCURVE",
"374 474 OFFCURVE",
"374 462 CURVE SMOOTH",
"374 449 OFFCURVE",
"376 438 OFFCURVE",
"379 425 CURVE",
"376 425 LINE",
"375 422 OFFCURVE",
"372 417 OFFCURVE",
"372 409 CURVE",
"373 396 OFFCURVE",
"375 388 OFFCURVE",
"381 385 CURVE",
"387 382 OFFCURVE",
"390 380 OFFCURVE",
"390 376 CURVE",
"392 364 OFFCURVE",
"396 354 OFFCURVE",
"402 346 CURVE",
"408 340 OFFCURVE",
"411 335 OFFCURVE",
"411 328 CURVE SMOOTH",
"411 310 OFFCURVE",
"408 305 OFFCURVE",
"402 297 CURVE",
"457 276 OFFCURVE",
"479 246 OFFCURVE",
"479 228 CURVE SMOOTH",
"479 175 LINE",
"629 175 LINE",
"629 216 LINE SMOOTH",
"629 231 OFFCURVE",
"605 246 OFFCURVE",
"558 264 CURVE SMOOTH",
"509 281 OFFCURVE",
"493 297 OFFCURVE",
"493 328 CURVE SMOOTH",
"493 335 OFFCURVE",
"496 340 OFFCURVE",
"502 346 CURVE SMOOTH",
"509 355 OFFCURVE",
"512 364 OFFCURVE",
"515 376 CURVE",
"515 380 OFFCURVE",
"519 382 OFFCURVE",
"524 385 CURVE SMOOTH",
"529 389 OFFCURVE",
"532 396 OFFCURVE",
"534 409 CURVE",
"533 418 OFFCURVE",
"530 424 OFFCURVE",
"526 425 CURVE",
"531 460 LINE",
"533 488 OFFCURVE",
"511 527 OFFCURVE",
"453 527 CURVE SMOOTH"
);
},
{
closed = 1;
nodes = (
"672 425 LINE",
"597 425 LINE",
"597 375 LINE",
"672 375 LINE",
"722 375 LINE",
"797 375 LINE",
"797 425 LINE",
"722 425 LINE"
);
}
);
width = 846;
}
);
unicode = 006C;
},
{
glyphname = m;
lastChange = "2013-03-19 23:48:04 +0100";
layers = (
{
layerId = "47E17F20-96EA-4F25-9FDC-A26DCA823BDE";
name = Regular;
paths = (
{
closed = 1;
nodes = (
"364 352 LINE",
"544 228 LINE",
"544 514 LINE"
);
},
{
closed = 1;
nodes = (
"49 514 LINE",
"49 228 LINE",
"229 352 LINE"
);
},
{
closed = 1;
nodes = (
"296 291 LINE",
"253 330 LINE",
"49 206 LINE",
"544 206 LINE",
"338 330 LINE"
);
},
{
closed = 1;
nodes = (
"530 514 LINE",
"63 514 LINE",
"296 340 LINE"
);
}
);
width = 593;
}
);
unicode = 006D;
},
{
glyphname = o;
lastChange = "2013-03-19 23:04:31 +0100";
layers = (
{
layerId = "47E17F20-96EA-4F25-9FDC-A26DCA823BDE";
name = Regular;
paths = (
{
closed = 1;
nodes = (
"187 625 OFFCURVE",
"160 615 OFFCURVE",
"145 596 CURVE SMOOTH",
"129 575 OFFCURVE",
"124 557 OFFCURVE",
"124 541 CURVE SMOOTH",
"124 526 OFFCURVE",
"128 511 OFFCURVE",
"131 495 CURVE",
"128 494 LINE",
"125 491 OFFCURVE",
"121 484 OFFCURVE",
"121 474 CURVE",
"123 458 OFFCURVE",
"126 448 OFFCURVE",
"134 444 CURVE SMOOTH",
"141 440 OFFCURVE",
"145 436 OFFCURVE",
"145 432 CURVE SMOOTH",
"147 416 OFFCURVE",
"153 403 OFFCURVE",
"161 395 CURVE SMOOTH",
"168 387 OFFCURVE",
"172 379 OFFCURVE",
"172 371 CURVE SMOOTH",
"172 330 OFFCURVE",
"152 312 OFFCURVE",
"90 289 CURVE SMOOTH",
"88 289 OFFCURVE",
"83 287 OFFCURVE",
"73 284 CURVE",
"63 280 OFFCURVE",
"56 277 OFFCURVE",
"50 275 CURVE",
"50 175 LINE",
"450 175 LINE",
"450 228 LINE SMOOTH",
"450 246 OFFCURVE",
"419 266 OFFCURVE",
"359 289 CURVE SMOOTH",
"296 311 OFFCURVE",
"277 330 OFFCURVE",
"277 371 CURVE SMOOTH",
"277 379 OFFCURVE",
"281 386 OFFCURVE",
"289 395 CURVE SMOOTH",
"296 404 OFFCURVE",
"302 416 OFFCURVE",
"304 432 CURVE SMOOTH",
"305 436 OFFCURVE",
"309 440 OFFCURVE",
"316 444 CURVE SMOOTH",
"323 448 OFFCURVE",
"327 458 OFFCURVE",
"328 474 CURVE",
"328 485 OFFCURVE",
"324 493 OFFCURVE",
"318 495 CURVE",
"325 539 LINE",
"328 575 OFFCURVE",
"300 625 OFFCURVE",
"225 625 CURVE SMOOTH"
);
},
{
closed = 1;
nodes = (
"425 500 LINE",
"425 425 LINE",
"350 425 LINE",
"350 375 LINE",
"425 375 LINE",
"425 300 LINE",
"475 300 LINE",
"475 375 LINE",
"550 375 LINE",
"550 425 LINE",
"475 425 LINE",
"475 500 LINE"
);
}
);
width = 600;
}
);
unicode = 006F;
},
{
glyphname = p;
lastChange = "2013-03-19 23:04:44 +0100";
layers = (
{
layerId = "47E17F20-96EA-4F25-9FDC-A26DCA823BDE";
name = Regular;
paths = (
{
closed = 1;
nodes = (
"187 625 OFFCURVE",
"160 615 OFFCURVE",
"145 596 CURVE SMOOTH",
"129 575 OFFCURVE",
"124 557 OFFCURVE",
"124 541 CURVE SMOOTH",
"124 526 OFFCURVE",
"128 511 OFFCURVE",
"131 495 CURVE",
"128 494 LINE",
"125 491 OFFCURVE",
"121 484 OFFCURVE",
"121 474 CURVE",
"123 458 OFFCURVE",
"126 448 OFFCURVE",
"134 444 CURVE SMOOTH",
"141 440 OFFCURVE",
"145 436 OFFCURVE",
"145 432 CURVE SMOOTH",
"147 416 OFFCURVE",
"153 403 OFFCURVE",
"161 395 CURVE SMOOTH",
"168 387 OFFCURVE",
"172 379 OFFCURVE",
"172 371 CURVE SMOOTH",
"172 330 OFFCURVE",
"152 312 OFFCURVE",
"90 289 CURVE SMOOTH",
"88 289 OFFCURVE",
"83 287 OFFCURVE",
"73 284 CURVE",
"63 280 OFFCURVE",
"56 277 OFFCURVE",
"50 275 CURVE",
"50 175 LINE",
"450 175 LINE",
"450 228 LINE SMOOTH",
"450 246 OFFCURVE",
"419 266 OFFCURVE",
"359 289 CURVE SMOOTH",
"296 311 OFFCURVE",
"277 330 OFFCURVE",
"277 371 CURVE SMOOTH",
"277 379 OFFCURVE",
"281 386 OFFCURVE",
"289 395 CURVE SMOOTH",
"296 404 OFFCURVE",
"302 416 OFFCURVE",
"304 432 CURVE SMOOTH",
"305 436 OFFCURVE",
"309 440 OFFCURVE",
"316 444 CURVE SMOOTH",
"323 448 OFFCURVE",
"327 458 OFFCURVE",
"328 474 CURVE",
"328 485 OFFCURVE",
"324 493 OFFCURVE",
"318 495 CURVE",
"325 539 LINE",
"328 575 OFFCURVE",
"300 625 OFFCURVE",
"225 625 CURVE SMOOTH"
);
},
{
closed = 1;
nodes = (
"350 425 LINE",
"350 375 LINE",
"550 375 LINE",
"550 425 LINE"
);
}
);
width = 600;
}
);
unicode = 0070;
},
{
glyphname = r;
lastChange = "2013-03-19 23:04:54 +0100";
layers = (
{
layerId = "47E17F20-96EA-4F25-9FDC-A26DCA823BDE";
name = Regular;
paths = (
{
closed = 1;
nodes = (
"117 604 LINE SMOOTH",
"98 604 OFFCURVE",
"82 598 OFFCURVE",
"69 584 CURVE SMOOTH",
"56 570 OFFCURVE",
"49 554 OFFCURVE",
"49 537 CURVE SMOOTH",
"49 264 LINE SMOOTH",
"49 246 OFFCURVE",
"56 228 OFFCURVE",
"68 217 CURVE SMOOTH",
"82 204 OFFCURVE",
"98 196 OFFCURVE",
"117 196 CURVE SMOOTH",
"388 196 LINE SMOOTH",
"407 196 OFFCURVE",
"423 204 OFFCURVE",
"437 217 CURVE SMOOTH",
"449 228 OFFCURVE",
"456 246 OFFCURVE",
"456 264 CURVE SMOOTH",
"456 537 LINE SMOOTH",
"456 554 OFFCURVE",
"449 570 OFFCURVE",
"436 584 CURVE SMOOTH",
"423 598 OFFCURVE",
"407 604 OFFCURVE",
"388 604 CURVE SMOOTH"
);
},
{
closed = 1;
nodes = (
"178 276 OFFCURVE",
"170 272 OFFCURVE",
"160 272 CURVE SMOOTH",
"150 272 OFFCURVE",
"142 276 OFFCURVE",
"136 283 CURVE",
"129 290 OFFCURVE",
"125 299 OFFCURVE",
"125 308 CURVE SMOOTH",
"125 317 OFFCURVE",
"129 325 OFFCURVE",
"136 333 CURVE",
"143 338 OFFCURVE",
"151 343 OFFCURVE",
"160 343 CURVE SMOOTH",
"170 343 OFFCURVE",
"178 338 OFFCURVE",
"185 333 CURVE",
"191 325 OFFCURVE",
"194 317 OFFCURVE",
"194 308 CURVE SMOOTH",
"194 299 OFFCURVE",
"191 290 OFFCURVE",
"185 283 CURVE"
);
},
{
closed = 1;
nodes = (
"249 272 LINE",
"249 307 OFFCURVE",
"236 336 OFFCURVE",
"211 360 CURVE SMOOTH",
"188 383 OFFCURVE",
"159 395 OFFCURVE",
"125 395 CURVE",
"125 445 LINE",
"172 445 OFFCURVE",
"213 428 OFFCURVE",
"248 394 CURVE SMOOTH",
"280 361 OFFCURVE",
"297 320 OFFCURVE",
"297 272 CURVE"
);
},
{
closed = 1;
nodes = (
"335 272 LINE",
"335 332 OFFCURVE",
"314 380 OFFCURVE",
"273 422 CURVE SMOOTH",
"233 462 OFFCURVE",
"183 483 OFFCURVE",
"125 483 CURVE",
"125 535 LINE",
"172 535 OFFCURVE",
"217 522 OFFCURVE",
"255 498 CURVE SMOOTH",
"295 475 OFFCURVE",
"327 444 OFFCURVE",
"351 403 CURVE SMOOTH",
"374 364 OFFCURVE",
"385 320 OFFCURVE",
"385 272 CURVE"
);
}
);
width = 505;
}
);
unicode = 0072;
},
{
glyphname = s;
lastChange = "2013-03-19 22:47:04 +0100";
layers = (
{
layerId = "47E17F20-96EA-4F25-9FDC-A26DCA823BDE";
name = Regular;
paths = (
{
closed = 1;
nodes = (
"143 610 OFFCURVE",
"49 516 OFFCURVE",
"49 400 CURVE SMOOTH",
"49 342 OFFCURVE",
"69 293 OFFCURVE",
"110 252 CURVE SMOOTH",
"151 211 OFFCURVE",
"201 190 OFFCURVE",
"259 190 CURVE SMOOTH",
"375 190 OFFCURVE",
"469 284 OFFCURVE",
"469 400 CURVE SMOOTH",
"469 516 OFFCURVE",
"375 610 OFFCURVE",
"259 610 CURVE SMOOTH"
);
},
{
closed = 1;
nodes = (
"169 315 LINE",
"161 322 OFFCURVE",
"154 330 OFFCURVE",
"150 338 CURVE SMOOTH",
"146 346 OFFCURVE",
"143 355 OFFCURVE",
"139 364 CURVE",
"88 373 LINE",
"85 391 OFFCURVE",
"84 410 OFFCURVE",
"89 428 CURVE",
"139 436 LINE",
"145 455 OFFCURVE",
"153 471 OFFCURVE",
"168 486 CURVE",
"150 534 LINE",
"158 540 OFFCURVE",
"164 545 OFFCURVE",
"173 550 CURVE SMOOTH",
"182 555 OFFCURVE",
"190 559 OFFCURVE",
"199 562 CURVE",
"231 523 LINE",
"250 527 OFFCURVE",
"270 527 OFFCURVE",
"289 523 CURVE",
"321 562 LINE",
"338 555 OFFCURVE",
"355 546 OFFCURVE",
"369 535 CURVE",
"352 486 LINE",
"358 480 OFFCURVE",
"364 472 OFFCURVE",
"368 464 CURVE SMOOTH",
"374 456 OFFCURVE",
"377 446 OFFCURVE",
"380 437 CURVE",
"430 429 LINE",
"433 411 OFFCURVE",
"434 391 OFFCURVE",
"430 373 CURVE",
"380 364 LINE",
"374 346 OFFCURVE",
"365 330 OFFCURVE",
"352 315 CURVE",
"369 267 LINE",
"363 261 OFFCURVE",
"355 256 OFFCURVE",
"346 251 CURVE SMOOTH",
"338 246 OFFCURVE",
"329 242 OFFCURVE",
"320 239 CURVE",
"288 278 LINE",
"268 275 OFFCURVE",
"250 275 OFFCURVE",
"231 277 CURVE",
"198 238 LINE",
"181 245 OFFCURVE",
"164 255 OFFCURVE",
"150 266 CURVE"
);
},
{
closed = 1;
nodes = (
"195 400 OFFCURVE",
"196 385 OFFCURVE",
"205 369 CURVE SMOOTH",
"222 340 OFFCURVE",
"261 330 OFFCURVE",
"291 346 CURVE SMOOTH",
"321 363 OFFCURVE",
"330 403 OFFCURVE",
"314 432 CURVE SMOOTH",
"296 462 OFFCURVE",
"258 473 OFFCURVE",
"228 455 CURVE SMOOTH",
"213 447 OFFCURVE",
"204 433 OFFCURVE",
"199 417 CURVE SMOOTH"
);
}
);
width = 518;
}
);
unicode = 0073;
},
{
glyphname = t;
lastChange = "2013-03-20 01:11:55 +0100";
layers = (
{
layerId = "47E17F20-96EA-4F25-9FDC-A26DCA823BDE";
name = Regular;
paths = (
{
closed = 1;
nodes = (
"141 495 LINE",
"0 355 LINE",
"109 245 LINE",
"250 386 LINE",
"250 495 LINE"
);
},
{
closed = 1;
nodes = (
"215 429 OFFCURVE",
"209 426 OFFCURVE",
"203 426 CURVE SMOOTH",
"197 426 OFFCURVE",
"192 429 OFFCURVE",
"188 433 CURVE SMOOTH",
"183 437 OFFCURVE",
"181 442 OFFCURVE",
"181 449 CURVE SMOOTH",
"181 455 OFFCURVE",
"183 460 OFFCURVE",
"188 465 CURVE SMOOTH",
"192 469 OFFCURVE",
"197 471 OFFCURVE",
"203 471 CURVE SMOOTH",
"209 471 OFFCURVE",
"215 469 OFFCURVE",
"219 465 CURVE SMOOTH",
"224 460 OFFCURVE",
"226 455 OFFCURVE",
"226 449 CURVE SMOOTH",
"226 442 OFFCURVE",
"224 437 OFFCURVE",
"219 433 CURVE SMOOTH"
);
}
);
width = 250;
}
);
unicode = 0074;
},
{
glyphname = v;
lastChange = "2013-03-19 23:05:38 +0100";
layers = (
{
layerId = "47E17F20-96EA-4F25-9FDC-A26DCA823BDE";
name = Regular;
paths = (
{
closed = 1;
nodes = (
"471 466 OFFCURVE",
"449 432 OFFCURVE",
"416 413 CURVE",
"416 413 OFFCURVE",
"416 411 OFFCURVE",
"417 409 CURVE SMOOTH",
"417 401 LINE SMOOTH",
"417 313 OFFCURVE",
"347 243 OFFCURVE",
"259 243 CURVE SMOOTH",
"227 243 OFFCURVE",
"198 252 OFFCURVE",
"171 269 CURVE",
"49 189 LINE",
"130 311 LINE",
"111 338 OFFCURVE",
"102 368 OFFCURVE",
"102 401 CURVE SMOOTH",
"102 487 OFFCURVE",
"173 558 OFFCURVE",
"259 558 CURVE SMOOTH",
"269 558 LINE SMOOTH",
"271 557 OFFCURVE",
"273 557 OFFCURVE",
"273 557 CURVE",
"292 589 OFFCURVE",
"326 611 OFFCURVE",
"365 611 CURVE SMOOTH",
"423 611 OFFCURVE",
"471 563 OFFCURVE",
"471 505 CURVE SMOOTH"
);
},
{
closed = 1;
nodes = (
"317 296 OFFCURVE",
"364 342 OFFCURVE",
"364 400 CURVE",
"355 400 OFFCURVE",
"347 401 OFFCURVE",
"337 403 CURVE",
"295 363 LINE SMOOTH",
"285 353 OFFCURVE",
"273 347 OFFCURVE",
"259 347 CURVE SMOOTH",
"229 347 OFFCURVE",
"207 371 OFFCURVE",
"207 401 CURVE SMOOTH",
"207 414 OFFCURVE",
"212 427 OFFCURVE",
"222 437 CURVE SMOOTH",
"263 479 LINE",
"261 489 OFFCURVE",
"260 497 OFFCURVE",
"260 505 CURVE",
"259 505 LINE SMOOTH",
"201 505 OFFCURVE",
"154 459 OFFCURVE",
"154 401 CURVE SMOOTH",
"154 342 OFFCURVE",
"201 296 OFFCURVE",
"259 296 CURVE SMOOTH"
);
},
{
closed = 1;
nodes = (
"338 458 OFFCURVE",
"351 453 OFFCURVE",
"365 453 CURVE SMOOTH",
"394 453 OFFCURVE",
"417 476 OFFCURVE",
"417 505 CURVE SMOOTH",
"417 534 OFFCURVE",
"394 558 OFFCURVE",
"365 558 CURVE SMOOTH",
"336 558 OFFCURVE",
"313 534 OFFCURVE",
"313 505 CURVE SMOOTH",
"313 491 OFFCURVE",
"317 479 OFFCURVE",
"328 468 CURVE SMOOTH"
);
}
);
width = 520;
}
);
unicode = 0076;
},
{
glyphname = w;
lastChange = "2013-03-19 23:05:54 +0100";
layers = (
{
layerId = "47E17F20-96EA-4F25-9FDC-A26DCA823BDE";
name = Regular;
paths = (
{
closed = 1;
nodes = (
"50 201 OFFCURVE",
"49 207 OFFCURVE",
"53 213 CURVE",
"275 604 LINE",
"279 609 OFFCURVE",
"284 612 OFFCURVE",
"291 612 CURVE SMOOTH",
"298 612 OFFCURVE",
"304 609 OFFCURVE",
"306 604 CURVE",
"528 213 LINE SMOOTH",
"529 210 OFFCURVE",
"530 207 OFFCURVE",
"530 204 CURVE SMOOTH",
"530 201 OFFCURVE",
"529 198 OFFCURVE",
"528 195 CURVE",
"524 190 OFFCURVE",
"520 188 OFFCURVE",
"513 188 CURVE SMOOTH",
"68 188 LINE SMOOTH",
"62 188 OFFCURVE",
"57 190 OFFCURVE",
"53 195 CURVE"
);
},
{
closed = 1;
nodes = (
"260 237 LINE",
"321 237 LINE",
"321 288 LINE",
"260 288 LINE"
);
},
{
closed = 1;
nodes = (
"260 325 LINE",
"321 325 LINE",
"321 476 LINE",
"260 476 LINE"
);
}
);
width = 581;
}
);
unicode = 0077;
},
{
glyphname = x;
lastChange = "2013-03-19 23:06:03 +0100";
layers = (
{
layerId = "47E17F20-96EA-4F25-9FDC-A26DCA823BDE";
name = Regular;
paths = (
{
closed = 1;
nodes = (
"143 610 OFFCURVE",
"49 516 OFFCURVE",
"49 400 CURVE SMOOTH",
"49 342 OFFCURVE",
"69 293 OFFCURVE",
"110 252 CURVE SMOOTH",
"151 211 OFFCURVE",
"201 190 OFFCURVE",
"259 190 CURVE SMOOTH",
"375 190 OFFCURVE",
"469 284 OFFCURVE",
"469 400 CURVE SMOOTH",
"469 516 OFFCURVE",
"375 610 OFFCURVE",
"259 610 CURVE SMOOTH"
);
},
{
closed = 1;
nodes = (
"373 482 LINE SMOOTH",
"376 478 OFFCURVE",
"376 474 OFFCURVE",
"373 471 CURVE SMOOTH",
"308 405 LINE SMOOTH",
"304 402 OFFCURVE",
"304 398 OFFCURVE",
"308 395 CURVE SMOOTH",
"373 328 LINE SMOOTH",
"376 325 OFFCURVE",
"376 321 OFFCURVE",
"373 318 CURVE SMOOTH",
"340 285 LINE SMOOTH",
"337 282 OFFCURVE",
"333 282 OFFCURVE",
"330 285 CURVE SMOOTH",
"264 352 LINE SMOOTH",
"261 355 OFFCURVE",
"256 355 OFFCURVE",
"253 352 CURVE SMOOTH",
"188 285 LINE SMOOTH",
"185 282 OFFCURVE",
"180 282 OFFCURVE",
"177 285 CURVE SMOOTH",
"145 318 LINE SMOOTH",
"141 321 OFFCURVE",
"141 325 OFFCURVE",
"145 328 CURVE SMOOTH",
"209 395 LINE SMOOTH",
"213 398 OFFCURVE",
"213 402 OFFCURVE",
"209 405 CURVE SMOOTH",
"145 471 LINE SMOOTH",
"141 474 OFFCURVE",
"141 478 OFFCURVE",
"144 482 CURVE SMOOTH",
"177 515 LINE SMOOTH",
"180 518 OFFCURVE",
"185 518 OFFCURVE",
"188 515 CURVE SMOOTH",
"253 448 LINE SMOOTH",
"256 445 OFFCURVE",
"261 445 OFFCURVE",
"264 448 CURVE SMOOTH",
"330 515 LINE SMOOTH",
"333 518 OFFCURVE",
"337 518 OFFCURVE",
"340 515 CURVE SMOOTH"
);
}
);
width = 518;
}
);
unicode = 0078;
},
{
glyphname = y;
lastChange = "2013-03-19 23:06:15 +0100";
layers = (
{
layerId = "47E17F20-96EA-4F25-9FDC-A26DCA823BDE";
name = Regular;
paths = (
{
closed = 1;
nodes = (
"238 540 OFFCURVE",
"177 522 OFFCURVE",
"140 497 CURVE SMOOTH",
"103 472 OFFCURVE",
"72 442 OFFCURVE",
"59 422 CURVE SMOOTH",
"52 412 OFFCURVE",
"49 404 OFFCURVE",
"49 400 CURVE SMOOTH",
"49 396 OFFCURVE",
"52 388 OFFCURVE",
"59 378 CURVE SMOOTH",
"72 358 OFFCURVE",
"103 328 OFFCURVE",
"140 303 CURVE SMOOTH",
"177 278 OFFCURVE",
"238 260 OFFCURVE",
"299 260 CURVE SMOOTH",
"361 260 OFFCURVE",
"421 278 OFFCURVE",
"458 303 CURVE SMOOTH",
"495 328 OFFCURVE",
"525 358 OFFCURVE",
"539 378 CURVE",
"545 388 OFFCURVE",
"549 396 OFFCURVE",
"549 400 CURVE SMOOTH",
"549 404 OFFCURVE",
"545 412 OFFCURVE",
"539 422 CURVE",
"525 442 OFFCURVE",
"495 472 OFFCURVE",
"458 497 CURVE SMOOTH",
"421 522 OFFCURVE",
"361 540 OFFCURVE",
"299 540 CURVE SMOOTH"
);
},
{
closed = 1;
nodes = (
"361 508 OFFCURVE",
"410 459 OFFCURVE",
"410 400 CURVE SMOOTH",
"410 340 OFFCURVE",
"360 292 OFFCURVE",
"299 292 CURVE SMOOTH",
"236 292 OFFCURVE",
"187 340 OFFCURVE",
"187 400 CURVE SMOOTH",
"187 459 OFFCURVE",
"238 508 OFFCURVE",
"299 508 CURVE SMOOTH"
);
},
{
closed = 1;
nodes = (
"268 454 OFFCURVE",
"243 429 OFFCURVE",
"243 400 CURVE SMOOTH",
"243 385 OFFCURVE",
"249 373 OFFCURVE",
"260 362 CURVE SMOOTH",
"271 351 OFFCURVE",
"284 346 OFFCURVE",
"299 346 CURVE SMOOTH",
"330 346 OFFCURVE",
"354 371 OFFCURVE",
"354 400 CURVE",
"354 429 OFFCURVE",
"330 454 OFFCURVE",
"299 454 CURVE SMOOTH"
);
}
);
width = 598;
}
);
unicode = 0079;
},
{
glyphname = acircumflex;
lastChange = "2013-03-19 23:06:25 +0100";
layers = (
{
layerId = "47E17F20-96EA-4F25-9FDC-A26DCA823BDE";
name = Regular;
paths = (
{
closed = 1;
nodes = (
"505 475 LINE",
"86 475 LINE",
"86 515 LINE",
"71 500 LINE",
"64 493 LINE",
"59 487 OFFCURVE",
"58 486 OFFCURVE",
"55 481 CURVE",
"51 476 OFFCURVE",
"50 472 OFFCURVE",
"50 468 CURVE SMOOTH",
"50 465 OFFCURVE",
"51 459 OFFCURVE",
"52 450 CURVE",
"54 441 OFFCURVE",
"61 403 OFFCURVE",
"72 337 CURVE SMOOTH",
"83 271 OFFCURVE",
"89 234 OFFCURVE",
"91 225 CURVE",
"94 208 OFFCURVE",
"104 200 OFFCURVE",
"121 200 CURVE SMOOTH",
"470 200 LINE SMOOTH",
"503 200 OFFCURVE",
"498 211 OFFCURVE",
"510 283 CURVE SMOOTH",
"522 355 OFFCURVE",
"535 431 OFFCURVE",
"539 450 CURVE",
"540 455 OFFCURVE",
"540 460 OFFCURVE",
"540 464 CURVE SMOOTH",
"540 472 OFFCURVE",
"540 476 OFFCURVE",
"537 481 CURVE SMOOTH",
"533 486 OFFCURVE",
"532 487 OFFCURVE",
"526 494 CURVE",
"522 497 OFFCURVE",
"521 499 OFFCURVE",
"519 500 CURVE SMOOTH",
"505 515 LINE"
);
},
{
closed = 1;
nodes = (
"395 365 LINE",
"394 358 LINE",
"394 350 OFFCURVE",
"385 340 OFFCURVE",
"370 340 CURVE SMOOTH",
"221 340 LINE SMOOTH",
"204 340 OFFCURVE",
"196 348 OFFCURVE",
"196 365 CURVE SMOOTH",
"196 415 LINE",
"231 415 LINE",
"231 375 LINE",
"360 375 LINE",
"360 415 LINE",
"395 415 LINE"
);
},
{
closed = 1;
nodes = (
"140 550 LINE",
"132 548 OFFCURVE",
"121 540 OFFCURVE",
"121 525 CURVE SMOOTH",
"121 500 LINE",
"470 500 LINE",
"470 525 LINE SMOOTH",
"470 540 OFFCURVE",
"458 549 OFFCURVE",
"452 549 CURVE",
"449 550 OFFCURVE",
"447 550 OFFCURVE",
"445 550 CURVE SMOOTH"
);
},
{
closed = 1;
nodes = (
"190 600 LINE",
"182 599 OFFCURVE",
"171 590 OFFCURVE",
"171 575 CURVE",
"420 575 LINE",
"420 590 OFFCURVE",
"407 599 OFFCURVE",
"402 600 CURVE",
"399 600 OFFCURVE",
"397 600 OFFCURVE",
"395 600 CURVE SMOOTH"
);
}
);
width = 591;
}
);
unicode = 00E2;
},
{
glyphname = ccedilla;
lastChange = "2013-03-19 23:06:37 +0100";
layers = (
{
layerId = "47E17F20-96EA-4F25-9FDC-A26DCA823BDE";
name = Regular;
paths = (
{
closed = 1;
nodes = (
"100 500 LINE SMOOTH",
"73 500 OFFCURVE",
"50 477 OFFCURVE",
"50 450 CURVE SMOOTH",
"50 300 LINE SMOOTH",
"50 272 OFFCURVE",
"73 250 OFFCURVE",
"100 250 CURVE SMOOTH",
"125 250 LINE",
"125 175 LINE",
"200 250 LINE",
"325 250 LINE SMOOTH",
"353 250 OFFCURVE",
"375 272 OFFCURVE",
"375 300 CURVE SMOOTH",
"375 345 LINE",
"280 345 LINE SMOOTH",
"225 345 OFFCURVE",
"195 375 OFFCURVE",
"195 430 CURVE SMOOTH",
"195 500 LINE"
);
},
{
closed = 1;
nodes = (
"275 625 LINE SMOOTH",
"248 625 OFFCURVE",
"225 602 OFFCURVE",
"225 575 CURVE SMOOTH",
"225 431 LINE SMOOTH",
"225 395 OFFCURVE",
"245 375 OFFCURVE",
"281 375 CURVE SMOOTH",
"400 375 LINE",
"475 300 LINE",
"475 375 LINE",
"500 375 LINE SMOOTH",
"528 375 OFFCURVE",
"550 397 OFFCURVE",
"550 425 CURVE SMOOTH",
"550 575 LINE SMOOTH",
"550 602 OFFCURVE",
"528 625 OFFCURVE",
"500 625 CURVE SMOOTH"
);
}
);
width = 600;
}
);
unicode = 00E7;
},
{
glyphname = ecircumflex;
lastChange = "2013-03-20 17:35:26 +0100";
layers = (
{
layerId = "47E17F20-96EA-4F25-9FDC-A26DCA823BDE";
name = Regular;
paths = (
{
closed = 1;
nodes = (
"313 396 LINE",
"372 338 LINE",
"167 133 LINE",
"197 102 LINE",
"402 307 LINE",
"461 249 LINE",
"461 396 LINE"
);
},
{
closed = 1;
nodes = (
"343 43 LINE",
"108 43 LINE",
"108 280 LINE",
"225 280 LINE",
"285 338 LINE",
"49 338 LINE",
"49 -16 LINE",
"402 -16 LINE",
"402 219 LINE",
"343 161 LINE"
);
}
);
width = 510;
}
);
unicode = 00EA;
},
{
glyphname = edieresis;
lastChange = "2013-03-19 23:06:59 +0100";
layers = (
{
layerId = "47E17F20-96EA-4F25-9FDC-A26DCA823BDE";
name = Regular;
paths = (
{
closed = 1;
nodes = (
"188 355 LINE",
"261 294 LINE",
"167 258 LINE"
);
},
{
closed = 1;
nodes = (
"204 376 LINE",
"369 575 LINE",
"446 508 LINE",
"280 309 LINE"
);
},
{
closed = 1;
nodes = (
"389 594 LINE",
"414 627 LINE",
"421 635 OFFCURVE",
"432 633 OFFCURVE",
"441 626 CURVE SMOOTH",
"488 585 LINE SMOOTH",
"497 577 OFFCURVE",
"498 571 OFFCURVE",
"492 562 CURVE SMOOTH",
"463 529 LINE"
);
},
{
closed = 1;
nodes = (
"326 565 LINE",
"105 565 LINE SMOOTH",
"75 565 OFFCURVE",
"49 538 OFFCURVE",
"49 507 CURVE SMOOTH",
"49 222 LINE SMOOTH",
"49 190 OFFCURVE",
"75 165 OFFCURVE",
"105 165 CURVE SMOOTH",
"396 165 LINE SMOOTH",
"428 165 OFFCURVE",
"453 190 OFFCURVE",
"453 222 CURVE SMOOTH",
"453 473 LINE",
"396 404 LINE",
"396 222 LINE",
"105 222 LINE",
"105 507 LINE",
"278 507 LINE SMOOTH"
);
}
);
width = 544;
}
);
unicode = 00EB;
},
{
glyphname = igrave;
lastChange = "2013-03-19 23:07:14 +0100";
layers = (
{
layerId = "47E17F20-96EA-4F25-9FDC-A26DCA823BDE";
name = Regular;
paths = (
{
closed = 1;
nodes = (
"57 542 LINE",
"51 547 OFFCURVE",
"49 553 OFFCURVE",
"49 560 CURVE SMOOTH",
"49 575 OFFCURVE",
"61 587 OFFCURVE",
"76 587 CURVE SMOOTH",
"83 587 OFFCURVE",
"89 584 OFFCURVE",
"94 579 CURVE",
"287 446 LINE",
"295 441 OFFCURVE",
"305 438 OFFCURVE",
"315 438 CURVE SMOOTH",
"326 438 OFFCURVE",
"336 442 OFFCURVE",
"346 447 CURVE",
"537 579 LINE",
"542 584 OFFCURVE",
"548 587 OFFCURVE",
"555 587 CURVE SMOOTH",
"570 587 OFFCURVE",
"582 575 OFFCURVE",
"582 560 CURVE SMOOTH",
"582 553 OFFCURVE",
"580 547 OFFCURVE",
"574 542 CURVE",
"574 541 LINE",
"338 227 LINE",
"333 217 OFFCURVE",
"326 214 OFFCURVE",
"315 214 CURVE SMOOTH",
"305 214 OFFCURVE",
"297 217 OFFCURVE",
"292 227 CURVE",
"57 541 LINE"
);
}
);
width = 631;
}
);
unicode = 00EC;
},
{
glyphname = iacute;
lastChange = "2013-03-19 23:07:30 +0100";
layers = (
{
layerId = "47E17F20-96EA-4F25-9FDC-A26DCA823BDE";
name = Regular;
paths = (
{
closed = 1;
nodes = (
"51 227 OFFCURVE",
"49 233 OFFCURVE",
"49 240 CURVE SMOOTH",
"49 247 OFFCURVE",
"51 254 OFFCURVE",
"57 258 CURVE",
"57 259 LINE",
"292 573 LINE",
"297 583 OFFCURVE",
"305 587 OFFCURVE",
"315 587 CURVE SMOOTH",
"326 587 OFFCURVE",
"333 583 OFFCURVE",
"338 573 CURVE",
"574 259 LINE",
"574 258 LINE",
"580 254 OFFCURVE",
"582 247 OFFCURVE",
"582 240 CURVE SMOOTH",
"582 225 OFFCURVE",
"570 214 OFFCURVE",
"555 214 CURVE SMOOTH",
"548 214 OFFCURVE",
"542 216 OFFCURVE",
"537 221 CURVE",
"346 352 LINE SMOOTH",
"336 359 OFFCURVE",
"326 362 OFFCURVE",
"315 362 CURVE SMOOTH",
"305 362 OFFCURVE",
"295 359 OFFCURVE",
"287 354 CURVE",
"94 221 LINE",
"89 216 OFFCURVE",
"83 214 OFFCURVE",
"76 214 CURVE SMOOTH",
"68 214 OFFCURVE",
"62 216 OFFCURVE",
"57 221 CURVE SMOOTH"
);
}
);
width = 631;
}
);
unicode = 00ED;
},
{
glyphname = icircumflex;
lastChange = "2013-03-19 23:07:44 +0100";
layers = (
{
layerId = "47E17F20-96EA-4F25-9FDC-A26DCA823BDE";
name = Regular;
paths = (
{
closed = 1;
nodes = (
"489 136 OFFCURVE",
"482 133 OFFCURVE",
"476 133 CURVE SMOOTH",
"468 133 OFFCURVE",
"462 136 OFFCURVE",
"457 141 CURVE",
"142 377 LINE",
"133 382 OFFCURVE",
"129 390 OFFCURVE",
"129 400 CURVE SMOOTH",
"129 410 OFFCURVE",
"133 418 OFFCURVE",
"142 423 CURVE",
"457 659 LINE",
"462 664 OFFCURVE",
"468 667 OFFCURVE",
"476 667 CURVE SMOOTH",
"490 667 OFFCURVE",
"502 655 OFFCURVE",
"502 640 CURVE SMOOTH",
"502 633 OFFCURVE",
"500 627 OFFCURVE",
"494 622 CURVE",
"494 621 LINE",
"363 430 LINE SMOOTH",
"357 421 OFFCURVE",
"354 410 OFFCURVE",
"354 400 CURVE SMOOTH",
"354 389 OFFCURVE",
"356 380 OFFCURVE",
"361 372 CURVE",
"361 371 LINE",
"494 179 LINE",
"494 178 LINE",
"500 173 OFFCURVE",
"502 167 OFFCURVE",
"502 160 CURVE SMOOTH",
"502 153 OFFCURVE",
"500 147 OFFCURVE",
"494 141 CURVE SMOOTH"
);
}
);
width = 631;
}
);
unicode = 00EE;
},
{
glyphname = idieresis;
lastChange = "2013-03-19 22:43:51 +0100";
layers = (
{
layerId = "47E17F20-96EA-4F25-9FDC-A26DCA823BDE";
name = Regular;
paths = (
{
closed = 1;
nodes = (
"142 664 OFFCURVE",
"148 667 OFFCURVE",
"155 667 CURVE SMOOTH",
"163 667 OFFCURVE",
"169 664 OFFCURVE",
"174 659 CURVE",
"174 659 LINE",
"489 423 LINE",
"498 418 OFFCURVE",
"502 410 OFFCURVE",
"502 400 CURVE SMOOTH",
"502 390 OFFCURVE",
"498 382 OFFCURVE",
"489 377 CURVE",
"174 141 LINE",
"174 141 LINE",
"169 136 OFFCURVE",
"163 133 OFFCURVE",
"155 133 CURVE SMOOTH",
"141 133 OFFCURVE",
"129 145 OFFCURVE",
"129 160 CURVE SMOOTH",
"129 167 OFFCURVE",
"131 173 OFFCURVE",
"137 178 CURVE",
"137 179 LINE",
"268 370 LINE",
"274 380 OFFCURVE",
"277 390 OFFCURVE",
"277 400 CURVE SMOOTH",
"277 411 OFFCURVE",
"274 420 OFFCURVE",
"270 428 CURVE",
"270 429 LINE",
"137 621 LINE",
"137 622 LINE",
"131 627 OFFCURVE",
"129 633 OFFCURVE",
"129 640 CURVE SMOOTH",
"129 647 OFFCURVE",
"131 653 OFFCURVE",
"137 659 CURVE SMOOTH"
);
}
);
width = 631;
}
);
unicode = 00EF;
},
{
glyphname = oe;
lastChange = "2013-03-19 23:07:55 +0100";
layers = (
{
layerId = "47E17F20-96EA-4F25-9FDC-A26DCA823BDE";
name = Regular;
paths = (
{
closed = 1;
nodes = (
"259 512 LINE SMOOTH",
"255 516 OFFCURVE",
"250 516 OFFCURVE",
"247 512 CURVE SMOOTH",
"117 382 LINE SMOOTH",
"114 379 OFFCURVE",
"107 379 OFFCURVE",
"104 382 CURVE SMOOTH",
"50 436 LINE SMOOTH",
"47 440 OFFCURVE",
"42 440 OFFCURVE",
"38 436 CURVE SMOOTH",
"3 401 LINE SMOOTH",
"-1 398 OFFCURVE",
"-1 392 OFFCURVE",
"3 389 CURVE SMOOTH",
"104 288 LINE SMOOTH",
"107 284 OFFCURVE",
"114 284 OFFCURVE",
"117 288 CURVE SMOOTH",
"293 464 LINE SMOOTH",
"298 468 OFFCURVE",
"298 474 OFFCURVE",
"293 478 CURVE SMOOTH"
);
}
);
width = 297;
}
);
unicode = 0153;
},
{
glyphname = lessequal;
lastChange = "2013-03-19 23:08:04 +0100";
layers = (
{
layerId = "47E17F20-96EA-4F25-9FDC-A26DCA823BDE";
name = Regular;
paths = (
{
closed = 1;
nodes = (
"175 409 LINE",
"356 241 LINE",
"356 350 LINE",
"448 350 OFFCURVE",
"493 333 OFFCURVE",
"550 230 CURVE",
"548 255 LINE SMOOTH",
"545 288 OFFCURVE",
"529 340 OFFCURVE",
"504 388 CURVE SMOOTH",
"479 435 OFFCURVE",
"425 473 OFFCURVE",
"356 473 CURVE",
"356 570 LINE"
);
},
{
closed = 1;
nodes = (
"50 409 LINE",
"231 241 LINE",
"231 311 LINE",
"125 409 LINE",
"231 503 LINE",
"231 570 LINE"
);
}
);
width = 600;
}
);
unicode = 2264;
},
{
glyphname = uniA000;
lastChange = "2013-03-19 23:10:42 +0100";
layers = (
{
layerId = "47E17F20-96EA-4F25-9FDC-A26DCA823BDE";
name = Regular;
paths = (
{
closed = 1;
nodes = (
"78 338 OFFCURVE",
"72 368 OFFCURVE",
"72 400 CURVE SMOOTH",
"72 465 OFFCURVE",
"98 522 OFFCURVE",
"140 565 CURVE SMOOTH",
"183 608 OFFCURVE",
"240 633 OFFCURVE",
"305 633 CURVE SMOOTH",
"369 633 OFFCURVE",
"428 608 OFFCURVE",
"470 565 CURVE SMOOTH",
"512 522 OFFCURVE",
"538 465 OFFCURVE",
"538 400 CURVE SMOOTH",
"538 336 OFFCURVE",
"512 276 OFFCURVE",
"470 235 CURVE SMOOTH",
"428 193 OFFCURVE",
"369 167 OFFCURVE",
"305 167 CURVE SMOOTH",
"240 167 OFFCURVE",
"183 193 OFFCURVE",
"140 235 CURVE SMOOTH",
"119 256 OFFCURVE",
"102 281 OFFCURVE",
"90 310 CURVE SMOOTH"
);
},
{
closed = 1;
nodes = (
"124 344 OFFCURVE",
"140 301 OFFCURVE",
"174 266 CURVE SMOOTH",
"191 248 OFFCURVE",
"211 235 OFFCURVE",
"235 225 CURVE",
"235 231 OFFCURVE",
"235 237 OFFCURVE",
"236 244 CURVE SMOOTH",
"238 257 OFFCURVE",
"239 274 OFFCURVE",
"240 284 CURVE SMOOTH",
"240 288 OFFCURVE",
"240 293 OFFCURVE",
"241 294 CURVE",
"241 298 OFFCURVE",
"240 302 OFFCURVE",
"236 308 CURVE",
"234 313 LINE",
"228 322 OFFCURVE",
"221 332 OFFCURVE",
"221 346 CURVE SMOOTH",
"220 354 OFFCURVE",
"220 358 OFFCURVE",
"221 361 CURVE SMOOTH",
"221 364 OFFCURVE",
"221 366 OFFCURVE",
"221 368 CURVE",
"220 370 OFFCURVE",
"219 371 OFFCURVE",
"218 371 CURVE",
"215 372 OFFCURVE",
"214 375 OFFCURVE",
"212 375 CURVE",
"210 378 OFFCURVE",
"208 379 OFFCURVE",
"206 380 CURVE",
"200 384 OFFCURVE",
"194 386 OFFCURVE",
"188 387 CURVE SMOOTH",
"181 389 OFFCURVE",
"174 392 OFFCURVE",
"168 394 CURVE",
"163 396 OFFCURVE",
"154 400 OFFCURVE",
"146 406 CURVE SMOOTH",
"136 413 OFFCURVE",
"127 421 OFFCURVE",
"122 431 CURVE",
"120 420 OFFCURVE",
"119 410 OFFCURVE",
"119 400 CURVE SMOOTH",
"119 393 OFFCURVE",
"120 386 OFFCURVE",
"120 379 CURVE SMOOTH"
);
},
{
closed = 1;
nodes = (
"192 544 OFFCURVE",
"195 545 OFFCURVE",
"198 545 CURVE SMOOTH",
"201 545 OFFCURVE",
"204 545 OFFCURVE",
"206 544 CURVE SMOOTH",
"212 544 OFFCURVE",
"217 541 OFFCURVE",
"218 536 CURVE SMOOTH",
"222 526 OFFCURVE",
"232 518 OFFCURVE",
"240 512 CURVE SMOOTH",
"242 511 OFFCURVE",
"243 511 OFFCURVE",
"246 510 CURVE",
"247 510 OFFCURVE",
"249 509 OFFCURVE",
"252 506 CURVE",
"252 506 OFFCURVE",
"252 506 OFFCURVE",
"253 506 CURVE SMOOTH",
"253 506 OFFCURVE",
"254 505 OFFCURVE",
"255 505 CURVE SMOOTH",
"260 504 LINE",
"263 505 OFFCURVE",
"267 504 OFFCURVE",
"269 502 CURVE",
"273 499 OFFCURVE",
"276 498 OFFCURVE",
"281 492 CURVE",
"283 491 OFFCURVE",
"284 489 OFFCURVE",
"286 486 CURVE",
"284 482 OFFCURVE",
"283 479 OFFCURVE",
"280 475 CURVE",
"276 471 LINE",
"274 468 OFFCURVE",
"272 468 OFFCURVE",
"270 466 CURVE",
"270 466 OFFCURVE",
"270 466 OFFCURVE",
"270 466 CURVE SMOOTH",
"271 466 OFFCURVE",
"271 466 OFFCURVE",
"271 466 CURVE",
"271 463 OFFCURVE",
"271 462 OFFCURVE",
"269 461 CURVE",
"266 459 OFFCURVE",
"263 459 OFFCURVE",
"260 459 CURVE",
"254 458 LINE",
"252 458 OFFCURVE",
"251 457 OFFCURVE",
"250 456 CURVE",
"250 456 OFFCURVE",
"250 454 OFFCURVE",
"249 454 CURVE",
"248 454 OFFCURVE",
"246 453 OFFCURVE",
"245 452 CURVE SMOOTH",
"243 450 OFFCURVE",
"242 445 OFFCURVE",
"241 441 CURVE SMOOTH",
"240 439 OFFCURVE",
"240 437 OFFCURVE",
"239 436 CURVE",
"240 431 OFFCURVE",
"240 424 OFFCURVE",
"240 419 CURVE SMOOTH",
"240 417 OFFCURVE",
"240 416 OFFCURVE",
"240 414 CURVE",
"240 407 OFFCURVE",
"237 403 OFFCURVE",
"234 402 CURVE SMOOTH",
"230 401 OFFCURVE",
"226 403 OFFCURVE",
"218 407 CURVE SMOOTH",
"214 409 OFFCURVE",
"211 412 OFFCURVE",
"206 415 CURVE",
"208 412 OFFCURVE",
"208 409 OFFCURVE",
"210 405 CURVE",
"210 405 OFFCURVE",
"210 403 OFFCURVE",
"211 401 CURVE",
"212 401 OFFCURVE",
"213 401 OFFCURVE",
"214 402 CURVE",
"214 402 OFFCURVE",
"215 402 OFFCURVE",
"217 402 CURVE SMOOTH",
"219 402 OFFCURVE",
"221 398 OFFCURVE",
"219 396 CURVE",
"218 394 LINE",
"218 393 OFFCURVE",
"218 392 OFFCURVE",
"218 392 CURVE",
"221 390 LINE SMOOTH",
"223 389 OFFCURVE",
"224 387 OFFCURVE",
"225 387 CURVE",
"226 387 OFFCURVE",
"226 387 OFFCURVE",
"227 387 CURVE",
"227 386 OFFCURVE",
"227 386 OFFCURVE",
"228 386 CURVE SMOOTH",
"232 386 OFFCURVE",
"236 387 OFFCURVE",
"241 387 CURVE SMOOTH",
"250 388 OFFCURVE",
"261 387 OFFCURVE",
"272 384 CURVE SMOOTH",
"277 382 OFFCURVE",
"282 379 OFFCURVE",
"286 372 CURVE",
"296 363 OFFCURVE",
"308 356 OFFCURVE",
"315 351 CURVE SMOOTH",
"324 346 OFFCURVE",
"329 341 OFFCURVE",
"329 334 CURVE SMOOTH",
"329 322 OFFCURVE",
"327 306 OFFCURVE",
"326 301 CURVE",
"325 294 OFFCURVE",
"311 283 OFFCURVE",
"299 275 CURVE SMOOTH",
"293 270 OFFCURVE",
"290 266 OFFCURVE",
"286 257 CURVE",
"285 254 OFFCURVE",
"284 250 OFFCURVE",
"284 245 CURVE",
"282 240 OFFCURVE",
"280 237 OFFCURVE",
"279 233 CURVE SMOOTH",
"276 229 OFFCURVE",
"275 226 OFFCURVE",
"273 223 CURVE",
"272 219 OFFCURVE",
"271 216 OFFCURVE",
"270 214 CURVE",
"282 212 OFFCURVE",
"293 211 OFFCURVE",
"305 211 CURVE SMOOTH",
"344 211 OFFCURVE",
"397 224 OFFCURVE",
"441 272 CURVE SMOOTH",
"474 305 OFFCURVE",
"491 350 OFFCURVE",
"492 396 CURVE",
"474 385 LINE",
"470 386 OFFCURVE",
"467 386 OFFCURVE",
"466 386 CURVE SMOOTH",
"463 386 OFFCURVE",
"460 384 OFFCURVE",
"460 382 CURVE",
"468 379 LINE",
"470 378 OFFCURVE",
"470 377 OFFCURVE",
"472 377 CURVE SMOOTH",
"473 374 OFFCURVE",
"472 371 OFFCURVE",
"469 366 CURVE",
"466 360 LINE",
"465 359 OFFCURVE",
"463 358 OFFCURVE",
"462 357 CURVE",
"458 354 LINE",
"456 350 LINE",
"456 349 OFFCURVE",
"456 347 OFFCURVE",
"456 346 CURVE SMOOTH",
"455 345 OFFCURVE",
"455 343 OFFCURVE",
"455 342 CURVE SMOOTH",
"455 337 OFFCURVE",
"451 330 OFFCURVE",
"449 324 CURVE",
"449 317 LINE",
"448 315 OFFCURVE",
"447 313 OFFCURVE",
"447 310 CURVE",
"445 309 OFFCURVE",
"445 307 OFFCURVE",
"444 304 CURVE",
"443 303 OFFCURVE",
"442 301 OFFCURVE",
"441 300 CURVE SMOOTH",
"441 298 OFFCURVE",
"440 296 OFFCURVE",
"440 293 CURVE SMOOTH",
"439 285 OFFCURVE",
"435 277 OFFCURVE",
"428 270 CURVE",
"420 261 OFFCURVE",
"414 257 OFFCURVE",
"408 257 CURVE SMOOTH",
"407 257 OFFCURVE",
"406 257 OFFCURVE",
"406 257 CURVE",
"399 258 OFFCURVE",
"396 267 OFFCURVE",
"396 272 CURVE",
"396 272 OFFCURVE",
"396 274 OFFCURVE",
"395 275 CURVE",
"393 277 LINE",
"392 278 OFFCURVE",
"392 281 OFFCURVE",
"391 283 CURVE SMOOTH",
"389 286 OFFCURVE",
"388 291 OFFCURVE",
"386 295 CURVE SMOOTH",
"384 299 OFFCURVE",
"383 303 OFFCURVE",
"384 309 CURVE",
"384 309 OFFCURVE",
"384 310 OFFCURVE",
"384 310 CURVE SMOOTH",
"384 312 OFFCURVE",
"384 313 OFFCURVE",
"384 314 CURVE",
"386 322 OFFCURVE",
"388 328 OFFCURVE",
"383 336 CURVE",
"382 338 LINE",
"378 345 OFFCURVE",
"377 349 OFFCURVE",
"380 356 CURVE",
"380 356 OFFCURVE",
"379 357 OFFCURVE",
"376 358 CURVE SMOOTH",
"374 358 OFFCURVE",
"369 359 OFFCURVE",
"362 359 CURVE SMOOTH",
"357 359 LINE",
"356 359 LINE SMOOTH",
"341 359 OFFCURVE",
"333 368 OFFCURVE",
"329 385 CURVE SMOOTH",
"328 387 OFFCURVE",
"328 390 OFFCURVE",
"328 393 CURVE SMOOTH",
"328 401 OFFCURVE",
"330 409 OFFCURVE",
"335 416 CURVE",
"335 417 OFFCURVE",
"335 418 OFFCURVE",
"335 419 CURVE SMOOTH",
"335 422 OFFCURVE",
"335 423 OFFCURVE",
"335 424 CURVE",
"339 424 OFFCURVE",
"340 427 OFFCURVE",
"342 428 CURVE",
"344 433 LINE",
"349 433 OFFCURVE",
"353 433 OFFCURVE",
"357 434 CURVE SMOOTH",
"368 437 OFFCURVE",
"378 438 OFFCURVE",
"388 437 CURVE SMOOTH",
"394 437 OFFCURVE",
"396 436 OFFCURVE",
"399 435 CURVE",
"404 432 OFFCURVE",
"412 427 OFFCURVE",
"418 424 CURVE",
"432 434 LINE",
"427 445 OFFCURVE",
"421 450 OFFCURVE",
"417 453 CURVE",
"416 454 OFFCURVE",
"414 454 OFFCURVE",
"412 456 CURVE",
"410 456 OFFCURVE",
"409 454 OFFCURVE",
"407 454 CURVE",
"404 453 OFFCURVE",
"400 450 OFFCURVE",
"397 446 CURVE",
"364 450 LINE",
"360 446 OFFCURVE",
"355 445 OFFCURVE",
"351 445 CURVE",
"349 445 OFFCURVE",
"347 445 OFFCURVE",
"344 445 CURVE",
"344 448 OFFCURVE",
"343 451 OFFCURVE",
"342 453 CURVE SMOOTH",
"339 458 OFFCURVE",
"339 461 OFFCURVE",
"339 463 CURVE SMOOTH",
"338 466 OFFCURVE",
"340 468 OFFCURVE",
"344 471 CURVE",
"347 473 OFFCURVE",
"349 479 OFFCURVE",
"349 482 CURVE SMOOTH",
"349 486 OFFCURVE",
"351 492 OFFCURVE",
"353 501 CURVE SMOOTH",
"356 509 OFFCURVE",
"362 521 OFFCURVE",
"372 526 CURVE SMOOTH",
"383 531 OFFCURVE",
"396 536 OFFCURVE",
"408 536 CURVE SMOOTH",
"414 538 OFFCURVE",
"420 538 OFFCURVE",
"426 538 CURVE",
"414 548 OFFCURVE",
"403 557 OFFCURVE",
"389 564 CURVE",
"384 564 OFFCURVE",
"378 565 OFFCURVE",
"375 566 CURVE",
"365 569 OFFCURVE",
"355 570 OFFCURVE",
"347 567 CURVE SMOOTH",
"343 566 OFFCURVE",
"339 564 OFFCURVE",
"337 561 CURVE",
"331 559 OFFCURVE",
"327 555 OFFCURVE",
"322 555 CURVE",
"319 554 OFFCURVE",
"316 553 OFFCURVE",
"312 553 CURVE SMOOTH",
"288 553 OFFCURVE",
"263 564 OFFCURVE",
"245 574 CURVE",
"225 567 OFFCURVE",
"206 557 OFFCURVE",
"189 544 CURVE"
);
}
);
width = 610;
}
);
unicode = A000;
},
{
glyphname = uniA001;
lastChange = "2013-03-19 23:10:52 +0100";
layers = (
{
layerId = "47E17F20-96EA-4F25-9FDC-A26DCA823BDE";
name = Regular;
paths = (
{
closed = 1;
nodes = (
"22 180 LINE",
"85 328 LINE",
"189 348 LINE",
"291 328 LINE",
"306 332 LINE",
"243 478 LINE SMOOTH",
"237 491 OFFCURVE",
"235 505 OFFCURVE",
"235 519 CURVE SMOOTH",
"235 574 OFFCURVE",
"280 620 OFFCURVE",
"334 620 CURVE SMOOTH",
"390 620 OFFCURVE",
"436 574 OFFCURVE",
"436 519 CURVE SMOOTH",
"436 506 OFFCURVE",
"433 493 OFFCURVE",
"428 480 CURVE SMOOTH",
"370 344 LINE",
"390 348 LINE",
"496 328 LINE",
"559 180 LINE",
"422 207 LINE",
"291 180 LINE",
"159 207 LINE"
);
},
{
closed = 1;
nodes = (
"56 199 LINE",
"163 221 LINE",
"166 237 LINE",
"187 216 LINE",
"216 211 LINE",
"170 256 LINE",
"174 275 LINE",
"243 206 LINE",
"271 199 LINE",
"178 294 LINE",
"182 312 LINE",
"291 202 LINE",
"291 195 LINE",
"418 221 LINE",
"432 219 LINE",
"416 234 LINE",
"410 263 LINE",
"460 213 LINE",
"488 207 LINE",
"403 292 LINE",
"397 320 LINE",
"516 201 LINE",
"525 199 LINE",
"516 225 LINE",
"403 337 LINE",
"393 339 LINE",
"365 335 LINE",
"334 263 LINE",
"310 323 LINE",
"291 318 LINE",
"291 315 LINE",
"286 320 LINE",
"257 325 LINE",
"291 293 LINE",
"291 270 LINE",
"229 331 LINE",
"201 337 LINE",
"291 248 LINE",
"291 225 LINE",
"186 330 LINE",
"188 339 LINE",
"103 321 LINE"
);
},
{
closed = 1;
nodes = (
"285 491 OFFCURVE",
"308 468 OFFCURVE",
"334 468 CURVE SMOOTH",
"363 468 OFFCURVE",
"386 491 OFFCURVE",
"386 519 CURVE SMOOTH",
"386 546 OFFCURVE",
"363 569 OFFCURVE",
"334 569 CURVE SMOOTH",
"308 569 OFFCURVE",
"285 546 OFFCURVE",
"285 519 CURVE SMOOTH"
);
},
{
closed = 1;
nodes = (
"431 332 LINE",
"501 261 LINE",
"487 297 LINE",
"460 325 LINE"
);
}
);
width = 610;
}
);
unicode = A001;
},
{
glyphname = uniE055;
lastChange = "2013-03-19 23:11:06 +0100";
layers = (
{
layerId = "47E17F20-96EA-4F25-9FDC-A26DCA823BDE";
name = Regular;
paths = (
{
closed = 1;
nodes = (
"501 429 LINE",
"535 576 LINE",
"475 535 LINE",
"399 637 OFFCURVE",
"253 663 OFFCURVE",
"148 589 CURVE SMOOTH",
"103 557 OFFCURVE",
"72 513 OFFCURVE",
"57 463 CURVE",
"140 438 LINE",
"149 471 OFFCURVE",
"168 502 OFFCURVE",
"200 523 CURVE SMOOTH",
"268 571 OFFCURVE",
"361 556 OFFCURVE",
"411 490 CURVE",
"353 448 LINE"
);
},
{
closed = 1;
nodes = (
"82 372 LINE",
"49 224 LINE",
"108 265 LINE",
"185 162 OFFCURVE",
"330 137 OFFCURVE",
"434 211 CURVE SMOOTH",
"481 243 OFFCURVE",
"512 288 OFFCURVE",
"526 337 CURVE",
"443 362 LINE",
"435 329 OFFCURVE",
"414 298 OFFCURVE",
"383 276 CURVE SMOOTH",
"316 229 OFFCURVE",
"222 244 OFFCURVE",
"172 310 CURVE",
"230 351 LINE"
);
}
);
width = 583;
}
);
unicode = E055;
},
{
glyphname = u2207;
lastChange = "2013-03-19 23:11:13 +0100";
layers = (
{
layerId = "47E17F20-96EA-4F25-9FDC-A26DCA823BDE";
name = Regular;
paths = (
{
closed = 1;
nodes = (
"556 619 OFFCURVE",
"556 613 OFFCURVE",
"551 607 CURVE",
"308 175 LINE",
"303 169 OFFCURVE",
"297 166 OFFCURVE",
"290 166 CURVE SMOOTH",
"281 166 OFFCURVE",
"276 169 OFFCURVE",
"272 175 CURVE SMOOTH",
"28 607 LINE SMOOTH",
"27 610 OFFCURVE",
"25 613 OFFCURVE",
"25 616 CURVE SMOOTH",
"25 619 OFFCURVE",
"27 622 OFFCURVE",
"28 626 CURVE",
"32 631 OFFCURVE",
"38 634 OFFCURVE",
"44 634 CURVE SMOOTH",
"536 634 LINE SMOOTH",
"542 634 OFFCURVE",
"548 631 OFFCURVE",
"551 626 CURVE"
);
},
{
closed = 1;
nodes = (
"464 579 OFFCURVE",
"461 582 OFFCURVE",
"456 582 CURVE SMOOTH",
"125 582 LINE SMOOTH",
"119 582 OFFCURVE",
"116 579 OFFCURVE",
"112 575 CURVE",
"111 573 OFFCURVE",
"110 571 OFFCURVE",
"110 569 CURVE SMOOTH",
"110 567 OFFCURVE",
"111 565 OFFCURVE",
"112 564 CURVE SMOOTH",
"278 272 LINE",
"280 267 OFFCURVE",
"284 265 OFFCURVE",
"290 265 CURVE SMOOTH",
"295 265 OFFCURVE",
"299 267 OFFCURVE",
"302 272 CURVE",
"467 564 LINE",
"471 567 OFFCURVE",
"471 571 OFFCURVE",
"467 575 CURVE SMOOTH"
);
}
);
width = 581;
}
);
},
{
glyphname = uniE01F;
lastChange = "2013-03-19 23:11:21 +0100";
layers = (
{
layerId = "47E17F20-96EA-4F25-9FDC-A26DCA823BDE";
name = Regular;
paths = (
{
closed = 1;
nodes = (
"86 222 LINE",
"104 222 OFFCURVE",
"118 223 OFFCURVE",
"128 224 CURVE",
"132 224 OFFCURVE",
"137 224 OFFCURVE",
"141 224 CURVE",
"146 224 OFFCURVE",
"148 224 OFFCURVE",
"149 224 CURVE",
"182 227 OFFCURVE",
"205 228 OFFCURVE",
"219 227 CURVE SMOOTH",
"265 226 LINE SMOOTH",
"304 226 OFFCURVE",
"335 232 OFFCURVE",
"359 242 CURVE SMOOTH",
"382 253 OFFCURVE",
"401 274 OFFCURVE",
"409 295 CURVE",
"413 308 OFFCURVE",
"415 321 OFFCURVE",
"415 332 CURVE SMOOTH",
"415 375 OFFCURVE",
"385 408 OFFCURVE",
"332 421 CURVE",
"350 429 OFFCURVE",
"366 438 OFFCURVE",
"367 439 CURVE",
"386 453 OFFCURVE",
"396 471 OFFCURVE",
"396 493 CURVE SMOOTH",
"396 503 OFFCURVE",
"394 512 OFFCURVE",
"392 521 CURVE SMOOTH",
"384 539 OFFCURVE",
"372 553 OFFCURVE",
"352 563 CURVE",
"344 568 OFFCURVE",
"337 570 OFFCURVE",
"329 571 CURVE",
"314 575 OFFCURVE",
"299 578 OFFCURVE",
"285 578 CURVE SMOOTH",
"267 578 LINE SMOOTH",
"262 578 OFFCURVE",
"260 578 OFFCURVE",
"258 578 CURVE",
"253 578 LINE",
"250 578 LINE SMOOTH",
"249 578 OFFCURVE",
"247 578 OFFCURVE",
"246 578 CURVE",
"236 578 LINE",
"147 575 LINE",
"86 573 LINE",
"87 554 LINE",
"102 552 OFFCURVE",
"110 551 OFFCURVE",
"114 551 CURVE SMOOTH",
"121 551 OFFCURVE",
"126 550 OFFCURVE",
"129 547 CURVE",
"131 547 OFFCURVE",
"132 547 OFFCURVE",
"133 545 CURVE SMOOTH",
"134 541 OFFCURVE",
"135 532 OFFCURVE",
"136 520 CURVE SMOOTH",
"136 503 OFFCURVE",
"137 483 OFFCURVE",
"137 458 CURVE SMOOTH",
"137 439 OFFCURVE",
"138 428 OFFCURVE",
"138 425 CURVE",
"138 311 LINE SMOOTH",
"138 289 OFFCURVE",
"137 274 OFFCURVE",
"136 266 CURVE SMOOTH",
"135 262 OFFCURVE",
"133 258 OFFCURVE",
"131 255 CURVE",
"122 251 OFFCURVE",
"112 248 OFFCURVE",
"102 247 CURVE SMOOTH",
"93 245 OFFCURVE",
"88 245 OFFCURVE",
"86 244 CURVE"
);
},
{
closed = 1;
nodes = (
"212 468 LINE SMOOTH",
"213 483 OFFCURVE",
"213 505 OFFCURVE",
"211 533 CURVE",
"211 538 OFFCURVE",
"210 544 OFFCURVE",
"210 551 CURVE",
"223 553 OFFCURVE",
"232 554 OFFCURVE",
"241 554 CURVE SMOOTH",
"268 554 OFFCURVE",
"288 548 OFFCURVE",
"301 537 CURVE",
"314 525 OFFCURVE",
"321 511 OFFCURVE",
"321 493 CURVE SMOOTH",
"321 445 OFFCURVE",
"293 426 OFFCURVE",
"238 426 CURVE SMOOTH",
"228 426 OFFCURVE",
"219 426 OFFCURVE",
"212 428 CURVE"
);
},
{
closed = 1;
nodes = (
"212 328 LINE",
"212 401 LINE",
"219 403 OFFCURVE",
"227 404 OFFCURVE",
"236 404 CURVE SMOOTH",
"288 405 OFFCURVE",
"309 395 OFFCURVE",
"325 370 CURVE SMOOTH",
"333 358 OFFCURVE",
"336 343 OFFCURVE",
"336 325 CURVE SMOOTH",
"336 296 OFFCURVE",
"324 269 OFFCURVE",
"299 257 CURVE SMOOTH",
"273 245 OFFCURVE",
"237 245 OFFCURVE",
"215 255 CURVE",
"214 258 OFFCURVE",
"213 262 OFFCURVE",
"213 265 CURVE"
);
}
);
width = 500;
}
);
},
{
glyphname = uniE032;
lastChange = "2013-03-19 23:11:32 +0100";
layers = (
{
layerId = "47E17F20-96EA-4F25-9FDC-A26DCA823BDE";
name = Regular;
paths = (
{
closed = 1;
nodes = (
"133 401 LINE",
"223 311 LINE",
"179 270 LINE",
"51 399 LINE",
"183 530 LINE",
"224 490 LINE"
);
},
{
closed = 1;
nodes = (
"367 399 LINE",
"277 489 LINE",
"321 530 LINE",
"449 401 LINE",
"317 270 LINE",
"276 310 LINE"
);
}
);
width = 500;
}
);
},
{
glyphname = uniE079;
lastChange = "2013-03-19 23:11:54 +0100";
layers = (
{
layerId = "47E17F20-96EA-4F25-9FDC-A26DCA823BDE";
name = Regular;
paths = (
{
closed = 1;
nodes = (
"127 222 LINE",
"133 222 OFFCURVE",
"135 222 OFFCURVE",
"150 223 CURVE SMOOTH",
"170 226 OFFCURVE",
"185 227 OFFCURVE",
"193 226 CURVE",
"240 226 LINE",
"251 225 OFFCURVE",
"259 224 OFFCURVE",
"265 223 CURVE",
"268 222 OFFCURVE",
"271 222 OFFCURVE",
"275 222 CURVE",
"276 222 OFFCURVE",
"277 221 OFFCURVE",
"279 221 CURVE",
"279 221 OFFCURVE",
"280 221 OFFCURVE",
"282 221 CURVE",
"282 221 OFFCURVE",
"283 221 OFFCURVE",
"285 221 CURVE SMOOTH",
"288 221 OFFCURVE",
"290 221 OFFCURVE",
"292 222 CURVE",
"292 222 OFFCURVE",
"294 222 OFFCURVE",
"297 222 CURVE",
"298 224 OFFCURVE",
"298 226 OFFCURVE",
"298 228 CURVE SMOOTH",
"298 228 OFFCURVE",
"299 229 OFFCURVE",
"300 232 CURVE",
"300 232 OFFCURVE",
"300 233 OFFCURVE",
"300 234 CURVE",
"300 235 OFFCURVE",
"300 237 OFFCURVE",
"300 238 CURVE SMOOTH",
"300 238 OFFCURVE",
"300 239 OFFCURVE",
"301 241 CURVE",
"301 243 OFFCURVE",
"301 244 OFFCURVE",
"301 245 CURVE",
"290 247 LINE",
"289 248 OFFCURVE",
"287 248 OFFCURVE",
"286 248 CURVE",
"278 248 OFFCURVE",
"270 250 OFFCURVE",
"257 253 CURVE",
"256 254 OFFCURVE",
"256 255 OFFCURVE",
"256 256 CURVE SMOOTH",
"256 259 LINE",
"260 269 LINE",
"270 324 LINE",
"279 360 LINE",
"293 433 LINE SMOOTH",
"294 437 OFFCURVE",
"299 460 OFFCURVE",
"309 504 CURVE",
"311 515 OFFCURVE",
"315 536 OFFCURVE",
"318 544 CURVE",
"326 546 OFFCURVE",
"334 549 OFFCURVE",
"342 551 CURVE SMOOTH",
"356 554 OFFCURVE",
"364 556 OFFCURVE",
"369 558 CURVE",
"370 564 OFFCURVE",
"371 568 OFFCURVE",
"372 570 CURVE",
"372 570 OFFCURVE",
"372 571 OFFCURVE",
"373 572 CURVE",
"373 573 OFFCURVE",
"373 574 OFFCURVE",
"373 574 CURVE",
"373 575 OFFCURVE",
"373 577 OFFCURVE",
"373 579 CURVE",
"367 579 OFFCURVE",
"365 579 OFFCURVE",
"348 577 CURVE SMOOTH",
"327 576 OFFCURVE",
"310 575 OFFCURVE",
"297 575 CURVE SMOOTH",
"291 575 LINE SMOOTH",
"290 575 OFFCURVE",
"288 575 OFFCURVE",
"286 576 CURVE",
"283 576 OFFCURVE",
"281 576 OFFCURVE",
"279 576 CURVE",
"203 579 LINE",
"198 555 LINE",
"203 555 LINE",
"203 554 OFFCURVE",
"206 554 OFFCURVE",
"208 554 CURVE",
"224 553 OFFCURVE",
"235 551 OFFCURVE",
"243 547 CURVE",
"243 538 LINE",
"240 527 LINE",
"235 496 LINE",
"232 481 LINE",
"224 444 LINE",
"224 443 OFFCURVE",
"223 439 OFFCURVE",
"220 429 CURVE SMOOTH",
"217 418 OFFCURVE",
"213 405 OFFCURVE",
"211 388 CURVE SMOOTH",
"208 373 LINE",
"194 311 LINE",
"188 279 LINE SMOOTH",
"186 270 OFFCURVE",
"183 262 OFFCURVE",
"178 255 CURVE",
"167 251 OFFCURVE",
"158 248 OFFCURVE",
"150 246 CURVE",
"146 245 OFFCURVE",
"139 244 OFFCURVE",
"136 243 CURVE SMOOTH",
"134 242 OFFCURVE",
"133 242 OFFCURVE",
"132 241 CURVE"
);
}
);
width = 500;
}
);
},
{
glyphname = uniE10B;
lastChange = "2013-03-19 23:12:00 +0100";
layers = (
{
layerId = "47E17F20-96EA-4F25-9FDC-A26DCA823BDE";
name = Regular;
paths = (
{
closed = 1;
nodes = (
"213 533 LINE",
"129 477 OFFCURVE",
"81 407 OFFCURVE",
"81 349 CURVE SMOOTH",
"81 297 OFFCURVE",
"118 268 OFFCURVE",
"156 268 CURVE SMOOTH",
"198 268 OFFCURVE",
"230 303 OFFCURVE",
"230 343 CURVE SMOOTH",
"230 376 OFFCURVE",
"210 403 OFFCURVE",
"181 414 CURVE",
"174 417 OFFCURVE",
"172 417 OFFCURVE",
"169 423 CURVE",
"167 425 OFFCURVE",
"166 429 OFFCURVE",
"166 433 CURVE SMOOTH",
"166 456 OFFCURVE",
"186 482 OFFCURVE",
"226 514 CURVE"
);
},
{
closed = 1;
nodes = (
"401 533 LINE",
"318 476 OFFCURVE",
"269 407 OFFCURVE",
"269 349 CURVE SMOOTH",
"269 298 OFFCURVE",
"306 268 OFFCURVE",
"345 268 CURVE SMOOTH",
"388 268 OFFCURVE",
"419 303 OFFCURVE",
"419 343 CURVE SMOOTH",
"419 376 OFFCURVE",
"400 403 OFFCURVE",
"370 414 CURVE SMOOTH",
"363 417 OFFCURVE",
"360 417 OFFCURVE",
"357 423 CURVE SMOOTH",
"355 425 OFFCURVE",
"354 429 OFFCURVE",
"354 433 CURVE SMOOTH",
"354 455 OFFCURVE",
"374 482 OFFCURVE",
"413 514 CURVE"
);
}
);
width = 500;
}
);
},
{
glyphname = uniE159;
lastChange = "2013-03-19 23:12:06 +0100";
layers = (
{
layerId = "47E17F20-96EA-4F25-9FDC-A26DCA823BDE";
name = Regular;
paths = (
{
closed = 1;
nodes = (
"79 415 LINE",
"421 415 LINE",
"421 385 LINE",
"79 385 LINE"
);
},
{
closed = 1;
nodes = (
"291 429 LINE",
"167 429 LINE",
"147 458 OFFCURVE",
"142 511 OFFCURVE",
"183 547 CURVE SMOOTH",
"205 564 OFFCURVE",
"232 572 OFFCURVE",
"268 572 CURVE SMOOTH",
"288 572 OFFCURVE",
"306 570 OFFCURVE",
"325 565 CURVE SMOOTH",
"330 563 OFFCURVE",
"335 562 OFFCURVE",
"342 561 CURVE",
"348 544 OFFCURVE",
"351 520 OFFCURVE",
"351 489 CURVE",
"338 488 OFFCURVE",
"332 488 OFFCURVE",
"331 488 CURVE",
"321 520 OFFCURVE",
"297 549 OFFCURVE",
"266 549 CURVE SMOOTH",
"234 549 OFFCURVE",
"215 529 OFFCURVE",
"215 503 CURVE SMOOTH",
"215 481 OFFCURVE",
"230 463 OFFCURVE",
"260 446 CURVE SMOOTH"
);
},
{
closed = 1;
nodes = (
"295 328 OFFCURVE",
"279 350 OFFCURVE",
"246 371 CURVE",
"354 371 LINE",
"360 358 OFFCURVE",
"363 344 OFFCURVE",
"363 329 CURVE SMOOTH",
"363 268 OFFCURVE",
"313 228 OFFCURVE",
"237 228 CURVE SMOOTH",
"203 228 OFFCURVE",
"175 234 OFFCURVE",
"153 246 CURVE",
"143 258 OFFCURVE",
"137 292 OFFCURVE",
"137 328 CURVE",
"156 329 LINE",
"167 291 OFFCURVE",
"203 251 OFFCURVE",
"242 251 CURVE SMOOTH",
"276 251 OFFCURVE",
"295 274 OFFCURVE",
"295 301 CURVE SMOOTH"
);
}
);
width = 500;
}
);
},
{
glyphname = uniF034;
lastChange = "2013-03-19 23:12:14 +0100";
layers = (
{
layerId = "47E17F20-96EA-4F25-9FDC-A26DCA823BDE";
name = Regular;
paths = (
{
closed = 1;
nodes = (
"97 508 OFFCURVE",
"104 533 OFFCURVE",
"111 570 CURVE SMOOTH",
"113 575 OFFCURVE",
"115 580 OFFCURVE",
"115 584 CURVE SMOOTH",
"115 588 OFFCURVE",
"116 589 OFFCURVE",
"118 592 CURVE",
"131 592 LINE",
"134 589 OFFCURVE",
"134 589 OFFCURVE",
"134 587 CURVE",
"139 578 OFFCURVE",
"143 571 OFFCURVE",
"145 568 CURVE",
"147 568 OFFCURVE",
"158 568 OFFCURVE",
"177 568 CURVE SMOOTH",
"183 568 OFFCURVE",
"188 568 OFFCURVE",
"194 568 CURVE SMOOTH",
"199 568 OFFCURVE",
"204 568 OFFCURVE",
"208 568 CURVE",
"214 568 LINE",
"242 569 LINE",
"295 568 LINE",
"368 568 LINE",
"382 571 LINE",
"383 572 OFFCURVE",
"385 578 OFFCURVE",
"388 585 CURVE",
"388 586 OFFCURVE",
"389 587 OFFCURVE",
"389 588 CURVE",
"390 589 OFFCURVE",
"391 590 OFFCURVE",
"391 592 CURVE",
"401 593 LINE",
"402 593 OFFCURVE",
"403 593 OFFCURVE",
"404 593 CURVE SMOOTH",
"405 593 OFFCURVE",
"407 592 OFFCURVE",
"409 592 CURVE",
"409 585 OFFCURVE",
"409 578 OFFCURVE",
"409 568 CURVE SMOOTH",
"409 558 OFFCURVE",
"409 546 OFFCURVE",
"409 533 CURVE SMOOTH",
"409 508 LINE",
"409 494 LINE SMOOTH",
"409 489 OFFCURVE",
"409 484 OFFCURVE",
"408 481 CURVE",
"404 479 OFFCURVE",
"401 479 OFFCURVE",
"398 478 CURVE",
"396 478 OFFCURVE",
"393 477 OFFCURVE",
"391 476 CURVE",
"387 484 OFFCURVE",
"382 495 OFFCURVE",
"378 508 CURVE SMOOTH",
"373 522 OFFCURVE",
"369 529 OFFCURVE",
"369 531 CURVE",
"366 534 OFFCURVE",
"364 535 OFFCURVE",
"361 536 CURVE",
"360 538 OFFCURVE",
"354 538 OFFCURVE",
"347 538 CURVE SMOOTH",
"338 538 OFFCURVE",
"327 538 OFFCURVE",
"312 538 CURVE SMOOTH",
"310 538 OFFCURVE",
"307 538 OFFCURVE",
"304 538 CURVE SMOOTH",
"301 538 OFFCURVE",
"298 538 OFFCURVE",
"295 536 CURVE",
"294 529 OFFCURVE",
"294 523 OFFCURVE",
"294 519 CURVE SMOOTH",
"294 481 LINE",
"294 398 LINE",
"295 307 LINE",
"295 270 LINE SMOOTH",
"295 258 OFFCURVE",
"295 248 OFFCURVE",
"297 241 CURVE",
"300 240 OFFCURVE",
"304 238 OFFCURVE",
"311 236 CURVE",
"312 236 OFFCURVE",
"314 236 OFFCURVE",
"316 236 CURVE SMOOTH",
"320 235 OFFCURVE",
"325 234 OFFCURVE",
"329 233 CURVE",
"333 231 OFFCURVE",
"338 229 OFFCURVE",
"341 229 CURVE",
"342 225 OFFCURVE",
"342 222 OFFCURVE",
"342 220 CURVE SMOOTH",
"342 217 OFFCURVE",
"342 216 OFFCURVE",
"342 215 CURVE SMOOTH",
"342 215 OFFCURVE",
"342 214 OFFCURVE",
"342 212 CURVE SMOOTH",
"342 212 OFFCURVE",
"342 210 OFFCURVE",
"342 208 CURVE",
"333 208 LINE SMOOTH",
"317 208 OFFCURVE",
"304 208 OFFCURVE",
"292 211 CURVE SMOOTH",
"280 212 OFFCURVE",
"261 212 OFFCURVE",
"231 212 CURVE SMOOTH",
"228 212 OFFCURVE",
"224 212 OFFCURVE",
"217 212 CURVE SMOOTH",
"210 211 OFFCURVE",
"201 210 OFFCURVE",
"189 208 CURVE",
"185 208 OFFCURVE",
"181 208 OFFCURVE",
"178 208 CURVE SMOOTH",
"175 207 OFFCURVE",
"173 207 OFFCURVE",
"173 207 CURVE",
"173 209 OFFCURVE",
"173 211 OFFCURVE",
"172 212 CURVE",
"172 213 OFFCURVE",
"171 214 OFFCURVE",
"171 214 CURVE",
"171 220 LINE",
"171 222 LINE",
"174 229 OFFCURVE",
"181 232 OFFCURVE",
"191 235 CURVE SMOOTH",
"208 240 OFFCURVE",
"218 244 OFFCURVE",
"225 248 CURVE",
"227 251 OFFCURVE",
"227 256 OFFCURVE",
"227 262 CURVE",
"229 285 OFFCURVE",
"230 321 OFFCURVE",
"229 370 CURVE SMOOTH",
"228 478 LINE SMOOTH",
"227 492 OFFCURVE",
"227 505 OFFCURVE",
"227 513 CURVE SMOOTH",
"227 522 OFFCURVE",
"227 528 OFFCURVE",
"227 531 CURVE",
"227 534 OFFCURVE",
"225 536 OFFCURVE",
"222 536 CURVE",
"219 538 OFFCURVE",
"214 538 OFFCURVE",
"206 538 CURVE SMOOTH",
"198 538 OFFCURVE",
"188 538 OFFCURVE",
"174 538 CURVE SMOOTH",
"144 538 OFFCURVE",
"141 535 OFFCURVE",
"115 494 CURVE SMOOTH",
"110 488 OFFCURVE",
"107 485 OFFCURVE",
"105 485 CURVE",
"98 490 OFFCURVE",
"94 493 OFFCURVE",
"91 495 CURVE"
);
}
);
width = 500;
}
);
},
{
glyphname = uniF03A;
lastChange = "2013-03-19 23:12:21 +0100";
layers = (
{
layerId = "47E17F20-96EA-4F25-9FDC-A26DCA823BDE";
name = Regular;
paths = (
{
closed = 1;
nodes = (
"475 416 LINE",
"455 417 OFFCURVE",
"442 427 OFFCURVE",
"437 444 CURVE",
"435 452 OFFCURVE",
"433 469 OFFCURVE",
"433 495 CURVE",
"432 548 OFFCURVE",
"431 559 OFFCURVE",
"420 574 CURVE",
"415 582 OFFCURVE",
"407 588 OFFCURVE",
"399 590 CURVE",
"393 593 OFFCURVE",
"383 593 OFFCURVE",
"370 593 CURVE SMOOTH",
"358 593 LINE",
"358 562 LINE",
"365 562 LINE SMOOTH",
"389 562 OFFCURVE",
"394 558 OFFCURVE",
"397 543 CURVE",
"398 539 OFFCURVE",
"399 521 OFFCURVE",
"399 491 CURVE SMOOTH",
"399 437 OFFCURVE",
"410 415 OFFCURVE",
"441 400 CURVE",
"417 390 OFFCURVE",
"404 373 OFFCURVE",
"401 340 CURVE SMOOTH",
"399 329 OFFCURVE",
"399 308 OFFCURVE",
"399 279 CURVE SMOOTH",
"399 243 OFFCURVE",
"392 237 OFFCURVE",
"365 237 CURVE SMOOTH",
"358 237 LINE",
"358 207 LINE",
"370 207 LINE SMOOTH",
"395 207 OFFCURVE",
"406 209 OFFCURVE",
"417 220 CURVE",
"422 226 OFFCURVE",
"426 234 OFFCURVE",
"429 243 CURVE SMOOTH",
"435 265 OFFCURVE",
"434 332 OFFCURVE",
"434 334 CURVE SMOOTH",
"435 358 OFFCURVE",
"442 371 OFFCURVE",
"455 379 CURVE",
"460 382 OFFCURVE",
"467 383 OFFCURVE",
"475 383 CURVE"
);
},
{
closed = 1;
nodes = (
"142 593 LINE",
"131 593 LINE SMOOTH",
"108 593 OFFCURVE",
"95 591 OFFCURVE",
"83 579 CURVE SMOOTH",
"78 573 OFFCURVE",
"74 566 OFFCURVE",
"71 557 CURVE",
"65 535 OFFCURVE",
"66 468 OFFCURVE",
"66 466 CURVE",
"64 442 OFFCURVE",
"59 429 OFFCURVE",
"45 421 CURVE SMOOTH",
"40 418 OFFCURVE",
"34 417 OFFCURVE",
"25 416 CURVE",
"25 383 LINE",
"44 383 OFFCURVE",
"59 373 OFFCURVE",
"63 355 CURVE SMOOTH",
"65 345 OFFCURVE",
"67 329 OFFCURVE",
"67 305 CURVE SMOOTH",
"67 260 OFFCURVE",
"69 241 OFFCURVE",
"79 226 CURVE",
"92 210 OFFCURVE",
"102 207 OFFCURVE",
"131 207 CURVE SMOOTH",
"142 207 LINE",
"142 237 LINE",
"129 237 OFFCURVE",
"120 238 OFFCURVE",
"116 240 CURVE",
"108 243 OFFCURVE",
"104 249 OFFCURVE",
"102 263 CURVE",
"101 269 OFFCURVE",
"101 285 OFFCURVE",
"101 309 CURVE SMOOTH",
"101 366 OFFCURVE",
"89 388 OFFCURVE",
"59 400 CURVE",
"86 412 OFFCURVE",
"96 429 OFFCURVE",
"100 461 CURVE SMOOTH",
"100 469 OFFCURVE",
"101 490 OFFCURVE",
"101 521 CURVE SMOOTH",
"101 554 OFFCURVE",
"108 562 OFFCURVE",
"135 562 CURVE SMOOTH",
"142 562 LINE"
);
},
{
closed = 1;
nodes = (
"225 500 LINE",
"225 425 LINE",
"150 425 LINE",
"150 375 LINE",
"225 375 LINE",
"225 300 LINE",
"275 300 LINE",
"275 375 LINE",
"350 375 LINE",
"350 425 LINE",
"275 425 LINE",
"275 500 LINE"
);
}
);
width = 500;
}
);
},
{
glyphname = uniF03B;
lastChange = "2013-03-19 23:12:28 +0100";
layers = (
{
layerId = "47E17F20-96EA-4F25-9FDC-A26DCA823BDE";
name = Regular;
paths = (
{
closed = 1;
nodes = (
"475 416 LINE",
"455 417 OFFCURVE",
"442 427 OFFCURVE",
"437 444 CURVE",
"435 452 OFFCURVE",
"433 469 OFFCURVE",
"433 495 CURVE",
"432 548 OFFCURVE",
"431 559 OFFCURVE",
"420 574 CURVE",
"415 582 OFFCURVE",
"407 588 OFFCURVE",
"399 590 CURVE",
"393 593 OFFCURVE",
"383 593 OFFCURVE",
"370 593 CURVE SMOOTH",
"358 593 LINE",
"358 562 LINE",
"365 562 LINE SMOOTH",
"389 562 OFFCURVE",
"394 558 OFFCURVE",
"397 543 CURVE",
"398 539 OFFCURVE",
"399 521 OFFCURVE",
"399 491 CURVE SMOOTH",
"399 437 OFFCURVE",
"410 415 OFFCURVE",
"441 400 CURVE",
"417 390 OFFCURVE",
"404 373 OFFCURVE",
"401 340 CURVE SMOOTH",
"399 329 OFFCURVE",
"399 308 OFFCURVE",
"399 279 CURVE SMOOTH",
"399 243 OFFCURVE",
"392 237 OFFCURVE",
"365 237 CURVE SMOOTH",
"358 237 LINE",
"358 207 LINE",
"370 207 LINE SMOOTH",
"395 207 OFFCURVE",
"406 209 OFFCURVE",
"417 220 CURVE",
"422 226 OFFCURVE",
"426 234 OFFCURVE",
"429 243 CURVE SMOOTH",
"435 265 OFFCURVE",
"434 332 OFFCURVE",
"434 334 CURVE SMOOTH",
"435 358 OFFCURVE",
"442 371 OFFCURVE",
"455 379 CURVE",
"460 382 OFFCURVE",
"467 383 OFFCURVE",
"475 383 CURVE"
);
},
{
closed = 1;
nodes = (
"142 593 LINE",
"131 593 LINE SMOOTH",
"108 593 OFFCURVE",
"95 591 OFFCURVE",
"83 579 CURVE SMOOTH",
"78 573 OFFCURVE",
"74 566 OFFCURVE",
"71 557 CURVE",
"65 535 OFFCURVE",
"66 468 OFFCURVE",
"66 466 CURVE",
"64 442 OFFCURVE",
"59 429 OFFCURVE",
"45 421 CURVE SMOOTH",
"40 418 OFFCURVE",
"34 417 OFFCURVE",
"25 416 CURVE",
"25 383 LINE",
"44 383 OFFCURVE",
"59 373 OFFCURVE",
"63 355 CURVE SMOOTH",
"65 345 OFFCURVE",
"67 329 OFFCURVE",
"67 305 CURVE SMOOTH",
"67 260 OFFCURVE",
"69 241 OFFCURVE",
"79 226 CURVE",
"92 210 OFFCURVE",
"102 207 OFFCURVE",
"131 207 CURVE SMOOTH",
"142 207 LINE",
"142 237 LINE",
"129 237 OFFCURVE",
"120 238 OFFCURVE",
"116 240 CURVE",
"108 243 OFFCURVE",
"104 249 OFFCURVE",
"102 263 CURVE",
"101 269 OFFCURVE",
"101 285 OFFCURVE",
"101 309 CURVE SMOOTH",
"101 366 OFFCURVE",
"89 388 OFFCURVE",
"59 400 CURVE",
"86 412 OFFCURVE",
"96 429 OFFCURVE",
"100 461 CURVE SMOOTH",
"100 469 OFFCURVE",
"101 490 OFFCURVE",
"101 521 CURVE SMOOTH",
"101 554 OFFCURVE",
"108 562 OFFCURVE",
"135 562 CURVE SMOOTH",
"142 562 LINE"
);
},
{
closed = 1;
nodes = (
"304 510 OFFCURVE",
"336 460 OFFCURVE",
"336 400 CURVE SMOOTH",
"336 341 OFFCURVE",
"304 290 OFFCURVE",
"254 290 CURVE SMOOTH",
"202 290 OFFCURVE",
"168 340 OFFCURVE",
"168 400 CURVE SMOOTH",
"168 460 OFFCURVE",
"202 510 OFFCURVE",
"254 510 CURVE SMOOTH"
);
},
{
closed = 1;
nodes = (
"292 313 OFFCURVE",
"313 352 OFFCURVE",
"313 400 CURVE SMOOTH",
"313 447 OFFCURVE",
"292 487 OFFCURVE",
"254 487 CURVE SMOOTH",
"214 487 OFFCURVE",
"191 447 OFFCURVE",
"191 400 CURVE SMOOTH",
"191 353 OFFCURVE",
"214 313 OFFCURVE",
"254 313 CURVE SMOOTH"
);
},
{
closed = 1;
nodes = (
"197 319 LINE",
"292 493 LINE",
"308 484 LINE",
"213 310 LINE"
);
}
);
width = 500;
}
);
},
{
glyphname = uniF03C;
lastChange = "2013-03-19 23:12:37 +0100";
layers = (
{
layerId = "47E17F20-96EA-4F25-9FDC-A26DCA823BDE";
name = Regular;
paths = (
{
closed = 1;
nodes = (
"475 416 LINE",
"455 417 OFFCURVE",
"442 427 OFFCURVE",
"437 444 CURVE",
"435 452 OFFCURVE",
"433 469 OFFCURVE",
"433 495 CURVE",
"432 548 OFFCURVE",
"431 559 OFFCURVE",
"420 574 CURVE",
"415 582 OFFCURVE",
"407 588 OFFCURVE",
"399 590 CURVE",
"393 593 OFFCURVE",
"383 593 OFFCURVE",
"370 593 CURVE SMOOTH",
"358 593 LINE",
"358 562 LINE",
"365 562 LINE SMOOTH",
"389 562 OFFCURVE",
"394 558 OFFCURVE",
"397 543 CURVE",
"398 539 OFFCURVE",
"399 521 OFFCURVE",
"399 491 CURVE SMOOTH",
"399 437 OFFCURVE",
"410 415 OFFCURVE",
"441 400 CURVE",
"417 390 OFFCURVE",
"404 373 OFFCURVE",
"401 340 CURVE SMOOTH",
"399 329 OFFCURVE",
"399 308 OFFCURVE",
"399 279 CURVE SMOOTH",
"399 243 OFFCURVE",
"392 237 OFFCURVE",
"365 237 CURVE SMOOTH",
"358 237 LINE",
"358 207 LINE",
"370 207 LINE SMOOTH",
"395 207 OFFCURVE",
"406 209 OFFCURVE",
"417 220 CURVE",
"422 226 OFFCURVE",
"426 234 OFFCURVE",
"429 243 CURVE SMOOTH",
"435 265 OFFCURVE",
"434 332 OFFCURVE",
"434 334 CURVE SMOOTH",
"435 358 OFFCURVE",
"442 371 OFFCURVE",
"455 379 CURVE",
"460 382 OFFCURVE",
"467 383 OFFCURVE",
"475 383 CURVE"
);
},
{
closed = 1;
nodes = (
"142 593 LINE",
"131 593 LINE SMOOTH",
"108 593 OFFCURVE",
"95 591 OFFCURVE",
"83 579 CURVE SMOOTH",
"78 573 OFFCURVE",
"74 566 OFFCURVE",
"71 557 CURVE",
"65 535 OFFCURVE",
"66 468 OFFCURVE",
"66 466 CURVE",
"64 442 OFFCURVE",
"59 429 OFFCURVE",
"45 421 CURVE SMOOTH",
"40 418 OFFCURVE",
"34 417 OFFCURVE",
"25 416 CURVE",
"25 383 LINE",
"44 383 OFFCURVE",
"59 373 OFFCURVE",
"63 355 CURVE SMOOTH",
"65 345 OFFCURVE",
"67 329 OFFCURVE",
"67 305 CURVE SMOOTH",
"67 260 OFFCURVE",
"69 241 OFFCURVE",
"79 226 CURVE",
"92 210 OFFCURVE",
"102 207 OFFCURVE",
"131 207 CURVE SMOOTH",
"142 207 LINE",
"142 237 LINE",
"129 237 OFFCURVE",
"120 238 OFFCURVE",
"116 240 CURVE",
"108 243 OFFCURVE",
"104 249 OFFCURVE",
"102 263 CURVE",
"101 269 OFFCURVE",
"101 285 OFFCURVE",
"101 309 CURVE SMOOTH",
"101 366 OFFCURVE",
"89 388 OFFCURVE",
"59 400 CURVE",
"86 412 OFFCURVE",
"96 429 OFFCURVE",
"100 461 CURVE SMOOTH",
"100 469 OFFCURVE",
"101 490 OFFCURVE",
"101 521 CURVE SMOOTH",
"101 554 OFFCURVE",
"108 562 OFFCURVE",
"135 562 CURVE SMOOTH",
"142 562 LINE"
);
},
{
closed = 1;
nodes = (
"150 425 LINE",
"150 375 LINE",
"350 375 LINE",
"350 425 LINE"
);
}
);
width = 500;
}
);
},
{
glyphname = uniF03E;
lastChange = "2013-03-19 23:12:44 +0100";
layers = (
{
layerId = "47E17F20-96EA-4F25-9FDC-A26DCA823BDE";
name = Regular;
paths = (
{
closed = 1;
nodes = (
"26 559 LINE SMOOTH",
"26 574 OFFCURVE",
"38 587 OFFCURVE",
"54 587 CURVE SMOOTH",
"447 587 LINE SMOOTH",
"463 587 OFFCURVE",
"474 574 OFFCURVE",
"474 559 CURVE SMOOTH",
"474 241 LINE SMOOTH",
"474 226 OFFCURVE",
"463 213 OFFCURVE",
"447 213 CURVE SMOOTH",
"54 213 LINE SMOOTH",
"38 213 OFFCURVE",
"26 226 OFFCURVE",
"26 241 CURVE SMOOTH"
);
},
{
closed = 1;
nodes = (
"63 251 LINE",
"438 251 LINE",
"438 549 LINE",
"63 549 LINE"
);
},
{
closed = 1;
nodes = (
"101 288 LINE",
"101 313 LINE",
"168 402 LINE",
"214 363 LINE",
"300 493 LINE",
"400 390 LINE",
"400 288 LINE"
);
},
{
closed = 1;
nodes = (
"101 496 OFFCURVE",
"118 512 OFFCURVE",
"139 512 CURVE SMOOTH",
"159 512 OFFCURVE",
"177 496 OFFCURVE",
"177 473 CURVE SMOOTH",
"177 454 OFFCURVE",
"159 437 OFFCURVE",
"139 437 CURVE SMOOTH",
"118 437 OFFCURVE",
"101 454 OFFCURVE",
"101 473 CURVE SMOOTH"
);
}
);
width = 500;
}
);
},
{
glyphname = uniF03F;
lastChange = "2013-03-19 23:11:46 +0100";
layers = (
{
layerId = "47E17F20-96EA-4F25-9FDC-A26DCA823BDE";
name = Regular;
paths = (
{
closed = 1;
nodes = (
"343 590 OFFCURVE",
"321 576 OFFCURVE",
"303 562 CURVE SMOOTH",
"277 540 LINE",
"272 534 OFFCURVE",
"270 531 OFFCURVE",
"269 524 CURVE SMOOTH",
"269 517 OFFCURVE",
"271 511 OFFCURVE",
"274 505 CURVE SMOOTH",
"279 500 OFFCURVE",
"284 496 OFFCURVE",
"291 495 CURVE SMOOTH",
"296 495 OFFCURVE",
"302 498 OFFCURVE",
"309 502 CURVE",
"334 526 LINE SMOOTH",
"342 531 OFFCURVE",
"352 534 OFFCURVE",
"359 534 CURVE SMOOTH",
"370 533 OFFCURVE",
"380 526 OFFCURVE",
"391 515 CURVE",
"398 505 OFFCURVE",
"401 493 OFFCURVE",
"400 483 CURVE SMOOTH",
"399 472 OFFCURVE",
"395 463 OFFCURVE",
"386 455 CURVE SMOOTH",
"302 385 LINE SMOOTH",
"286 373 OFFCURVE",
"272 367 OFFCURVE",
"262 368 CURVE SMOOTH",
"254 368 OFFCURVE",
"248 372 OFFCURVE",
"243 379 CURVE",
"237 383 OFFCURVE",
"232 386 OFFCURVE",
"225 386 CURVE SMOOTH",
"219 387 OFFCURVE",
"213 384 OFFCURVE",
"208 382 CURVE SMOOTH",
"203 377 OFFCURVE",
"199 372 OFFCURVE",
"199 366 CURVE SMOOTH",
"198 359 OFFCURVE",
"201 354 OFFCURVE",
"205 347 CURVE SMOOTH",
"220 330 OFFCURVE",
"236 320 OFFCURVE",
"257 318 CURVE SMOOTH",
"281 316 OFFCURVE",
"306 327 OFFCURVE",
"332 348 CURVE SMOOTH",
"417 418 LINE SMOOTH",
"436 434 OFFCURVE",
"453 456 OFFCURVE",
"456 479 CURVE SMOOTH",
"459 503 OFFCURVE",
"443 527 OFFCURVE",
"428 546 CURVE SMOOTH",
"409 567 OFFCURVE",
"387 587 OFFCURVE",
"364 588 CURVE SMOOTH"
);
},
{
closed = 1;
nodes = (
"212 471 OFFCURVE",
"184 462 OFFCURVE",
"155 438 CURVE SMOOTH",
"76 373 LINE SMOOTH",
"57 357 OFFCURVE",
"46 336 OFFCURVE",
"44 311 CURVE SMOOTH",
"42 286 OFFCURVE",
"48 264 OFFCURVE",
"65 244 CURVE SMOOTH",
"82 225 OFFCURVE",
"104 214 OFFCURVE",
"127 212 CURVE SMOOTH",
"150 210 OFFCURVE",
"174 217 OFFCURVE",
"194 233 CURVE SMOOTH",
"216 251 LINE",
"221 255 OFFCURVE",
"224 261 OFFCURVE",
"225 266 CURVE SMOOTH",
"226 272 OFFCURVE",
"223 279 OFFCURVE",
"219 284 CURVE",
"213 291 OFFCURVE",
"208 294 OFFCURVE",
"202 295 CURVE SMOOTH",
"197 295 OFFCURVE",
"190 293 OFFCURVE",
"184 288 CURVE",
"164 269 LINE SMOOTH",
"154 262 OFFCURVE",
"142 258 OFFCURVE",
"131 260 CURVE SMOOTH",
"120 261 OFFCURVE",
"109 266 OFFCURVE",
"101 275 CURVE",
"94 285 OFFCURVE",
"91 297 OFFCURVE",
"92 308 CURVE SMOOTH",
"93 318 OFFCURVE",
"98 328 OFFCURVE",
"106 336 CURVE SMOOTH",
"187 401 LINE SMOOTH",
"204 417 OFFCURVE",
"220 423 OFFCURVE",
"231 422 CURVE SMOOTH",
"238 422 OFFCURVE",
"245 418 OFFCURVE",
"250 412 CURVE SMOOTH",
"254 407 OFFCURVE",
"258 404 OFFCURVE",
"266 403 CURVE SMOOTH",
"267 403 LINE",
"280 402 OFFCURVE",
"292 413 OFFCURVE",
"293 426 CURVE SMOOTH",
"294 432 OFFCURVE",
"292 438 OFFCURVE",
"287 443 CURVE",
"273 459 OFFCURVE",
"256 468 OFFCURVE",
"236 470 CURVE SMOOTH"
);
}
);
width = 500;
}
);
},
{
glyphname = uniF0CA;
lastChange = "2013-03-19 23:12:51 +0100";
layers = (
{
layerId = "47E17F20-96EA-4F25-9FDC-A26DCA823BDE";
name = Regular;
paths = (
{
closed = 1;
nodes = (
"59 296 OFFCURVE",
"64 306 OFFCURVE",
"71 314 CURVE SMOOTH",
"79 320 OFFCURVE",
"88 324 OFFCURVE",
"99 324 CURVE SMOOTH",
"111 324 OFFCURVE",
"120 320 OFFCURVE",
"127 314 CURVE SMOOTH",
"135 306 OFFCURVE",
"139 296 OFFCURVE",
"139 285 CURVE SMOOTH",
"139 274 OFFCURVE",
"135 264 OFFCURVE",
"127 256 CURVE SMOOTH",
"120 250 OFFCURVE",
"110 245 OFFCURVE",
"99 245 CURVE SMOOTH",
"77 245 OFFCURVE",
"59 262 OFFCURVE",
"59 285 CURVE SMOOTH"
);
},
{
closed = 1;
nodes = (
"59 411 OFFCURVE",
"64 422 OFFCURVE",
"71 429 CURVE SMOOTH",
"79 435 OFFCURVE",
"88 440 OFFCURVE",
"99 440 CURVE SMOOTH",
"111 440 OFFCURVE",
"120 435 OFFCURVE",
"127 429 CURVE SMOOTH",
"135 422 OFFCURVE",
"139 411 OFFCURVE",
"139 400 CURVE SMOOTH",
"139 389 OFFCURVE",
"135 379 OFFCURVE",
"127 372 CURVE SMOOTH",
"120 365 OFFCURVE",
"110 360 OFFCURVE",
"99 360 CURVE SMOOTH",
"88 360 OFFCURVE",
"79 365 OFFCURVE",
"71 372 CURVE SMOOTH",
"64 379 OFFCURVE",
"59 389 OFFCURVE",
"59 400 CURVE SMOOTH"
);
},
{
closed = 1;
nodes = (
"59 526 OFFCURVE",
"64 536 OFFCURVE",
"71 544 CURVE SMOOTH",
"79 551 OFFCURVE",
"88 555 OFFCURVE",
"99 555 CURVE SMOOTH",
"111 555 OFFCURVE",
"120 551 OFFCURVE",
"127 544 CURVE SMOOTH",
"135 536 OFFCURVE",
"139 526 OFFCURVE",
"139 515 CURVE SMOOTH",
"139 505 OFFCURVE",
"135 495 OFFCURVE",
"127 486 CURVE SMOOTH",
"120 481 OFFCURVE",
"110 476 OFFCURVE",
"99 476 CURVE SMOOTH",
"88 476 OFFCURVE",
"79 481 OFFCURVE",
"71 486 CURVE SMOOTH",
"64 495 OFFCURVE",
"59 505 OFFCURVE",
"59 515 CURVE SMOOTH"
);
},
{
closed = 1;
nodes = (
"168 296 LINE SMOOTH",
"168 305 OFFCURVE",
"175 313 OFFCURVE",
"184 313 CURVE SMOOTH",
"426 313 LINE SMOOTH",
"434 313 OFFCURVE",
"441 305 OFFCURVE",
"441 296 CURVE SMOOTH",
"441 273 LINE SMOOTH",
"441 264 OFFCURVE",
"434 257 OFFCURVE",
"426 257 CURVE SMOOTH",
"184 257 LINE SMOOTH",
"175 257 OFFCURVE",
"168 264 OFFCURVE",
"168 273 CURVE SMOOTH"
);
},
{
closed = 1;
nodes = (
"168 412 LINE SMOOTH",
"168 421 OFFCURVE",
"175 428 OFFCURVE",
"184 428 CURVE SMOOTH",
"426 428 LINE SMOOTH",
"434 428 OFFCURVE",
"441 421 OFFCURVE",
"441 412 CURVE SMOOTH",
"441 388 LINE SMOOTH",
"441 379 OFFCURVE",
"434 372 OFFCURVE",
"426 372 CURVE SMOOTH",
"184 372 LINE SMOOTH",
"175 372 OFFCURVE",
"168 379 OFFCURVE",
"168 388 CURVE SMOOTH"
);
},
{
closed = 1;
nodes = (
"168 527 LINE SMOOTH",
"168 536 OFFCURVE",
"175 544 OFFCURVE",
"184 544 CURVE SMOOTH",
"426 544 LINE SMOOTH",
"434 544 OFFCURVE",
"441 536 OFFCURVE",
"441 527 CURVE SMOOTH",
"441 504 LINE SMOOTH",
"441 495 OFFCURVE",
"434 487 OFFCURVE",
"426 487 CURVE SMOOTH",
"184 487 LINE SMOOTH",
"175 487 OFFCURVE",
"168 495 OFFCURVE",
"168 504 CURVE SMOOTH"
);
}
);
width = 500;
}
);
},
{
glyphname = uniF0CB;
lastChange = "2013-03-19 23:13:02 +0100";
layers = (
{
layerId = "47E17F20-96EA-4F25-9FDC-A26DCA823BDE";
name = Regular;
paths = (
{
closed = 1;
nodes = (
"59 379 OFFCURVE",
"69 388 OFFCURVE",
"80 395 CURVE SMOOTH",
"91 402 OFFCURVE",
"101 408 OFFCURVE",
"101 417 CURVE SMOOTH",
"101 426 OFFCURVE",
"95 429 OFFCURVE",
"87 429 CURVE SMOOTH",
"81 429 OFFCURVE",
"75 425 OFFCURVE",
"71 419 CURVE",
"61 426 LINE",
"67 438 OFFCURVE",
"77 444 OFFCURVE",
"88 444 CURVE SMOOTH",
"104 444 OFFCURVE",
"117 435 OFFCURVE",
"117 418 CURVE SMOOTH",
"117 405 OFFCURVE",
"107 397 OFFCURVE",
"97 390 CURVE SMOOTH",
"87 383 OFFCURVE",
"77 378 OFFCURVE",
"77 369 CURVE",
"106 369 LINE",
"106 380 LINE",
"120 380 LINE",
"120 356 LINE",
"61 356 LINE",
"60 359 OFFCURVE",
"59 362 OFFCURVE",
"59 364 CURVE SMOOTH"
);
},
{
closed = 1;
nodes = (
"68 264 LINE",
"68 263 OFFCURVE",
"70 262 OFFCURVE",
"71 261 CURVE SMOOTH",
"73 259 LINE",
"77 256 OFFCURVE",
"82 255 OFFCURVE",
"87 255 CURVE SMOOTH",
"97 255 OFFCURVE",
"103 261 OFFCURVE",
"103 269 CURVE SMOOTH",
"103 277 OFFCURVE",
"96 282 OFFCURVE",
"87 282 CURVE SMOOTH",
"82 282 LINE",
"79 290 LINE",
"97 313 LINE",
"99 315 LINE",
"100 316 LINE",
"98 316 LINE",
"95 316 LINE",
"76 316 LINE",
"76 305 LINE",
"63 305 LINE",
"63 329 LINE",
"117 329 LINE",
"117 318 LINE",
"97 294 LINE",
"108 292 OFFCURVE",
"120 284 OFFCURVE",
"120 269 CURVE SMOOTH",
"120 255 OFFCURVE",
"108 241 OFFCURVE",
"88 241 CURVE SMOOTH",
"79 241 OFFCURVE",
"72 244 OFFCURVE",
"67 247 CURVE",
"64 249 OFFCURVE",
"62 251 OFFCURVE",
"61 253 CURVE"
);
},
{
closed = 1;
nodes = (
"62 538 LINE",
"84 559 LINE",
"98 559 LINE",
"98 484 LINE",
"117 484 LINE",
"117 471 LINE",
"63 471 LINE",
"63 484 LINE",
"83 484 LINE",
"83 539 LINE",
"80 535 OFFCURVE",
"76 531 OFFCURVE",
"72 528 CURVE"
);
},
{
closed = 1;
nodes = (
"168 296 LINE SMOOTH",
"168 305 OFFCURVE",
"175 313 OFFCURVE",
"184 313 CURVE SMOOTH",
"426 313 LINE SMOOTH",
"434 313 OFFCURVE",
"441 305 OFFCURVE",
"441 296 CURVE SMOOTH",
"441 273 LINE SMOOTH",
"441 264 OFFCURVE",
"434 257 OFFCURVE",
"426 257 CURVE SMOOTH",
"184 257 LINE SMOOTH",
"175 257 OFFCURVE",
"168 264 OFFCURVE",
"168 273 CURVE SMOOTH"
);
},
{
closed = 1;
nodes = (
"168 412 LINE SMOOTH",
"168 421 OFFCURVE",
"175 428 OFFCURVE",
"184 428 CURVE SMOOTH",
"426 428 LINE SMOOTH",
"434 428 OFFCURVE",
"441 421 OFFCURVE",
"441 412 CURVE SMOOTH",
"441 388 LINE SMOOTH",
"441 379 OFFCURVE",
"434 372 OFFCURVE",
"426 372 CURVE SMOOTH",
"184 372 LINE SMOOTH",
"175 372 OFFCURVE",
"168 379 OFFCURVE",
"168 388 CURVE SMOOTH"
);
},
{
closed = 1;
nodes = (
"168 527 LINE SMOOTH",
"168 536 OFFCURVE",
"175 544 OFFCURVE",
"184 544 CURVE SMOOTH",
"426 544 LINE SMOOTH",
"434 544 OFFCURVE",
"441 536 OFFCURVE",
"441 527 CURVE SMOOTH",
"441 504 LINE SMOOTH",
"441 495 OFFCURVE",
"434 487 OFFCURVE",
"426 487 CURVE SMOOTH",
"184 487 LINE SMOOTH",
"175 487 OFFCURVE",
"168 495 OFFCURVE",
"168 504 CURVE SMOOTH"
);
}
